<mxfile host="app.diagrams.net" modified="2024-01-24T00:35:42.736Z" agent="Mozilla/5.0 (Macintosh; Intel Mac OS X 10_15_7) AppleWebKit/537.36 (KHTML, like Gecko) Chrome/120.0.0.0 Safari/537.36" etag="16ZpK13xgVB-jLwK6Qov" version="22.1.19" type="github">
  <diagram name="Page-1" id="iI1IuEJFYCPPxYs_FzgC">
    <mxGraphModel dx="954" dy="590" grid="0" gridSize="10" guides="1" tooltips="1" connect="1" arrows="1" fold="1" page="1" pageScale="1" pageWidth="1100" pageHeight="850" math="0" shadow="0">
      <root>
        <mxCell id="0" />
        <mxCell id="1" parent="0" />
        <mxCell id="WiFk0VLU-a0-PrsS2nk8-17" value="GCP" style="sketch=0;points=[[0,0,0],[0.25,0,0],[0.5,0,0],[0.75,0,0],[1,0,0],[1,0.25,0],[1,0.5,0],[1,0.75,0],[1,1,0],[0.75,1,0],[0.5,1,0],[0.25,1,0],[0,1,0],[0,0.75,0],[0,0.5,0],[0,0.25,0]];rounded=1;absoluteArcSize=1;arcSize=2;html=1;strokeColor=#82b366;shadow=0;dashed=0;fontSize=12;align=left;verticalAlign=top;spacing=10;spacingTop=-4;whiteSpace=wrap;fillColor=#d5e8d4;" vertex="1" parent="1">
          <mxGeometry x="3654" y="199" width="220" height="280" as="geometry" />
        </mxCell>
        <mxCell id="WiFk0VLU-a0-PrsS2nk8-13" style="edgeStyle=orthogonalEdgeStyle;rounded=0;orthogonalLoop=1;jettySize=auto;html=1;entryX=0.5;entryY=0;entryDx=0;entryDy=0;" edge="1" parent="1" source="WiFk0VLU-a0-PrsS2nk8-8" target="WiFk0VLU-a0-PrsS2nk8-9">
          <mxGeometry relative="1" as="geometry" />
        </mxCell>
        <mxCell id="WiFk0VLU-a0-PrsS2nk8-14" style="edgeStyle=orthogonalEdgeStyle;rounded=0;orthogonalLoop=1;jettySize=auto;html=1;" edge="1" parent="1" source="WiFk0VLU-a0-PrsS2nk8-8" target="WiFk0VLU-a0-PrsS2nk8-1">
          <mxGeometry relative="1" as="geometry" />
        </mxCell>
        <mxCell id="WiFk0VLU-a0-PrsS2nk8-15" value="DEPLOY" style="edgeLabel;html=1;align=center;verticalAlign=middle;resizable=0;points=[];" vertex="1" connectable="0" parent="WiFk0VLU-a0-PrsS2nk8-14">
          <mxGeometry x="-0.098" relative="1" as="geometry">
            <mxPoint as="offset" />
          </mxGeometry>
        </mxCell>
        <mxCell id="WiFk0VLU-a0-PrsS2nk8-8" value="GITLAB" style="shape=image;html=1;verticalAlign=bottom;verticalLabelPosition=top;labelBackgroundColor=#ffffff;imageAspect=0;aspect=fixed;image=https://cdn4.iconfinder.com/data/icons/socialcones/508/Gitlab-128.png;labelPosition=center;align=center;" vertex="1" parent="1">
          <mxGeometry x="3414" y="249" width="58" height="58" as="geometry" />
        </mxCell>
        <mxCell id="WqzGKMTeR1Ja0gjyzSvE-9" value="&amp;nbsp; &amp;nbsp; &amp;nbsp; &amp;nbsp; &lt;b&gt;Google&lt;/b&gt; Cloud Service Provider" style="sketch=0;points=[[0,0,0],[0.25,0,0],[0.5,0,0],[0.75,0,0],[1,0,0],[1,0.25,0],[1,0.5,0],[1,0.75,0],[1,1,0],[0.75,1,0],[0.5,1,0],[0.25,1,0],[0,1,0],[0,0.75,0],[0,0.5,0],[0,0.25,0]];rounded=1;absoluteArcSize=1;arcSize=2;html=1;strokeColor=none;gradientColor=none;shadow=0;dashed=0;fontSize=12;fontColor=#9E9E9E;align=left;verticalAlign=top;spacing=10;spacingTop=-4;whiteSpace=wrap;fillColor=#F6F6F6;container=0;" parent="1" vertex="1">
          <mxGeometry x="2571" y="95" width="573" height="575" as="geometry" />
        </mxCell>
        <mxCell id="PP0Q2LRbQdD46bkliYrA-70" value="" style="rounded=1;whiteSpace=wrap;html=1;fillColor=none;arcSize=4;strokeColor=#3399FF;strokeWidth=3;" parent="1" vertex="1">
          <mxGeometry x="513" y="42" width="393" height="301.25" as="geometry" />
        </mxCell>
        <mxCell id="PP0Q2LRbQdD46bkliYrA-71" value="" style="html=1;align=center;verticalAlign=top;rounded=1;absoluteArcSize=1;arcSize=20;dashed=1;whiteSpace=wrap;strokeColor=#97D077;strokeWidth=2;fillColor=none;" parent="1" vertex="1">
          <mxGeometry x="540" y="79.25" width="238" height="238" as="geometry" />
        </mxCell>
        <mxCell id="PP0Q2LRbQdD46bkliYrA-73" style="edgeStyle=orthogonalEdgeStyle;rounded=0;orthogonalLoop=1;jettySize=auto;html=1;entryX=0;entryY=0.5;entryDx=0;entryDy=0;" parent="1" source="PP0Q2LRbQdD46bkliYrA-74" target="PP0Q2LRbQdD46bkliYrA-95" edge="1">
          <mxGeometry relative="1" as="geometry">
            <Array as="points">
              <mxPoint x="277" y="532" />
            </Array>
          </mxGeometry>
        </mxCell>
        <mxCell id="PP0Q2LRbQdD46bkliYrA-74" value="" style="rounded=1;whiteSpace=wrap;html=1;strokeWidth=2;" parent="1" vertex="1">
          <mxGeometry x="217" y="140.24" width="120" height="315.01" as="geometry" />
        </mxCell>
        <mxCell id="PP0Q2LRbQdD46bkliYrA-75" value="AZURE DEVOPS" style="image;aspect=fixed;html=1;points=[];align=center;fontSize=12;image=img/lib/azure2/devops/Azure_DevOps.svg;" parent="1" vertex="1">
          <mxGeometry x="252" y="115.25" width="45" height="45" as="geometry" />
        </mxCell>
        <mxCell id="PP0Q2LRbQdD46bkliYrA-76" value="RG - DEMO - 1" style="image;sketch=0;aspect=fixed;html=1;points=[];align=center;fontSize=12;image=img/lib/mscae/ResourceGroup.svg;" parent="1" vertex="1">
          <mxGeometry x="819" y="77.24000000000001" width="45" height="36" as="geometry" />
        </mxCell>
        <mxCell id="PP0Q2LRbQdD46bkliYrA-77" value="Azure Pipelines" style="image;sketch=0;aspect=fixed;html=1;points=[];align=center;fontSize=12;image=img/lib/mscae/Azure_Pipelines.svg;" parent="1" vertex="1">
          <mxGeometry x="249.5" y="209.5" width="50" height="50" as="geometry" />
        </mxCell>
        <mxCell id="PP0Q2LRbQdD46bkliYrA-78" value="Virtual Network" style="image;aspect=fixed;html=1;points=[];align=center;fontSize=12;image=img/lib/azure2/networking/Virtual_Networks.svg;" parent="1" vertex="1">
          <mxGeometry x="584" y="100.25" width="45" height="26.87" as="geometry" />
        </mxCell>
        <mxCell id="PP0Q2LRbQdD46bkliYrA-79" value="GitHub Repo" style="dashed=0;outlineConnect=0;html=1;align=center;labelPosition=center;verticalLabelPosition=bottom;verticalAlign=top;shape=mxgraph.weblogos.github;aspect=fixed;" parent="1" vertex="1">
          <mxGeometry x="252" y="373.25" width="45" height="45" as="geometry" />
        </mxCell>
        <mxCell id="PP0Q2LRbQdD46bkliYrA-80" value="" style="group" parent="1" vertex="1" connectable="0">
          <mxGeometry x="558" y="177.25" width="200" height="114.5" as="geometry" />
        </mxCell>
        <mxCell id="PP0Q2LRbQdD46bkliYrA-81" value="" style="rounded=1;whiteSpace=wrap;html=1;fillColor=#F2F2F2;" parent="PP0Q2LRbQdD46bkliYrA-80" vertex="1">
          <mxGeometry width="200" height="114.5" as="geometry" />
        </mxCell>
        <mxCell id="PP0Q2LRbQdD46bkliYrA-82" value="" style="image;aspect=fixed;html=1;points=[];align=center;fontSize=12;image=img/lib/azure2/databases/SQL_Server.svg;" parent="PP0Q2LRbQdD46bkliYrA-80" vertex="1">
          <mxGeometry x="43" y="34.75" width="45" height="45" as="geometry" />
        </mxCell>
        <mxCell id="PP0Q2LRbQdD46bkliYrA-83" value="VM" style="verticalLabelPosition=bottom;html=1;verticalAlign=top;align=center;strokeColor=none;fillColor=#00BEF2;shape=mxgraph.azure.virtual_machine;aspect=fixed;" parent="PP0Q2LRbQdD46bkliYrA-80" vertex="1">
          <mxGeometry x="118" y="39.25" width="45" height="36" as="geometry" />
        </mxCell>
        <mxCell id="PP0Q2LRbQdD46bkliYrA-84" style="edgeStyle=orthogonalEdgeStyle;rounded=0;orthogonalLoop=1;jettySize=auto;html=1;entryX=0;entryY=0.462;entryDx=0;entryDy=0;entryPerimeter=0;" parent="1" source="PP0Q2LRbQdD46bkliYrA-74" target="PP0Q2LRbQdD46bkliYrA-70" edge="1">
          <mxGeometry relative="1" as="geometry">
            <Array as="points">
              <mxPoint x="384" y="181.25" />
              <mxPoint x="384" y="181.25" />
            </Array>
          </mxGeometry>
        </mxCell>
        <mxCell id="PP0Q2LRbQdD46bkliYrA-93" value="TERRAFORM" style="shape=image;verticalLabelPosition=bottom;labelBackgroundColor=default;verticalAlign=top;aspect=fixed;imageAspect=0;image=https://static-00.iconduck.com/assets.00/terraform-icon-452x512-ildgg5fd.png;" parent="1" vertex="1">
          <mxGeometry x="252" y="293.25" width="45" height="50.97" as="geometry" />
        </mxCell>
        <mxCell id="PP0Q2LRbQdD46bkliYrA-94" style="edgeStyle=orthogonalEdgeStyle;rounded=0;orthogonalLoop=1;jettySize=auto;html=1;exitX=0.5;exitY=1;exitDx=0;exitDy=0;" parent="1" source="PP0Q2LRbQdD46bkliYrA-93" target="PP0Q2LRbQdD46bkliYrA-93" edge="1">
          <mxGeometry relative="1" as="geometry" />
        </mxCell>
        <mxCell id="PP0Q2LRbQdD46bkliYrA-99" value="&lt;font style=&quot;font-size: 15px;&quot;&gt;&lt;b&gt;TF STATE&amp;nbsp;&lt;/b&gt;&lt;/font&gt;" style="text;html=1;strokeColor=none;fillColor=none;align=center;verticalAlign=middle;whiteSpace=wrap;rounded=0;" parent="1" vertex="1">
          <mxGeometry x="372" y="493" width="98" height="30" as="geometry" />
        </mxCell>
        <mxCell id="PP0Q2LRbQdD46bkliYrA-95" value="" style="rounded=1;whiteSpace=wrap;html=1;fillColor=none;arcSize=4;strokeColor=#00CC66;strokeWidth=3;" parent="1" vertex="1">
          <mxGeometry x="561" y="479" width="307" height="105" as="geometry" />
        </mxCell>
        <mxCell id="PP0Q2LRbQdD46bkliYrA-101" value="" style="group" parent="1" vertex="1" connectable="0">
          <mxGeometry x="561" y="479" width="307" height="105" as="geometry" />
        </mxCell>
        <mxCell id="PP0Q2LRbQdD46bkliYrA-96" value="Storage Account" style="image;aspect=fixed;html=1;points=[];align=center;fontSize=12;image=img/lib/azure2/storage/Storage_Accounts.svg;" parent="PP0Q2LRbQdD46bkliYrA-101" vertex="1">
          <mxGeometry x="116.9969565217391" y="26" width="45" height="36" as="geometry" />
        </mxCell>
        <mxCell id="PP0Q2LRbQdD46bkliYrA-97" value="Storage Container" style="image;aspect=fixed;html=1;points=[];align=center;fontSize=12;image=img/lib/azure2/general/Storage_Container.svg;" parent="PP0Q2LRbQdD46bkliYrA-101" vertex="1">
          <mxGeometry x="225.9969565217391" y="25.440000000000055" width="45" height="36.56" as="geometry" />
        </mxCell>
        <mxCell id="PP0Q2LRbQdD46bkliYrA-98" value="RG - INFRA" style="image;sketch=0;aspect=fixed;html=1;points=[];align=center;fontSize=12;image=img/lib/mscae/ResourceGroup.svg;" parent="PP0Q2LRbQdD46bkliYrA-101" vertex="1">
          <mxGeometry x="23.996956521739094" y="26" width="45" height="36" as="geometry" />
        </mxCell>
        <mxCell id="aGxoeLjBCxl2E1MKSHPk-2" value="" style="rounded=1;arcSize=10;dashed=1;fillColor=none;gradientColor=none;dashPattern=1 1;strokeWidth=2;" parent="1" vertex="1">
          <mxGeometry x="1338" y="115.88" width="460" height="237.25" as="geometry" />
        </mxCell>
        <mxCell id="aGxoeLjBCxl2E1MKSHPk-13" style="edgeStyle=orthogonalEdgeStyle;rounded=0;orthogonalLoop=1;jettySize=auto;html=1;" parent="1" source="aGxoeLjBCxl2E1MKSHPk-5" target="aGxoeLjBCxl2E1MKSHPk-7" edge="1">
          <mxGeometry relative="1" as="geometry" />
        </mxCell>
        <mxCell id="aGxoeLjBCxl2E1MKSHPk-5" value="DEVOPS" style="sketch=0;outlineConnect=0;fontColor=#232F3E;gradientColor=none;fillColor=#232F3D;strokeColor=none;dashed=0;verticalLabelPosition=bottom;verticalAlign=top;align=center;html=1;fontSize=12;fontStyle=0;aspect=fixed;pointerEvents=1;shape=mxgraph.aws4.users;" parent="1" vertex="1">
          <mxGeometry x="1222" y="240.63" width="45" height="45" as="geometry" />
        </mxCell>
        <mxCell id="aGxoeLjBCxl2E1MKSHPk-19" style="edgeStyle=orthogonalEdgeStyle;rounded=0;orthogonalLoop=1;jettySize=auto;html=1;" parent="1" source="aGxoeLjBCxl2E1MKSHPk-7" target="aGxoeLjBCxl2E1MKSHPk-17" edge="1">
          <mxGeometry relative="1" as="geometry" />
        </mxCell>
        <mxCell id="aGxoeLjBCxl2E1MKSHPk-7" value="REPOSITORIO" style="dashed=0;outlineConnect=0;html=1;align=center;labelPosition=center;verticalLabelPosition=bottom;verticalAlign=top;shape=mxgraph.weblogos.github;aspect=fixed;" parent="1" vertex="1">
          <mxGeometry x="1367" y="240.63" width="45" height="45" as="geometry" />
        </mxCell>
        <mxCell id="aGxoeLjBCxl2E1MKSHPk-8" value="" style="shape=image;verticalLabelPosition=bottom;labelBackgroundColor=default;verticalAlign=top;aspect=fixed;imageAspect=0;image=https://miro.medium.com/v2/resize:fit:900/0*SM6gpc8GRfy65MmK.png;clipPath=inset(13% 12.67% 13% 11%);" parent="1" vertex="1">
          <mxGeometry x="1363" y="126.88" width="179.48" height="58" as="geometry" />
        </mxCell>
        <mxCell id="aGxoeLjBCxl2E1MKSHPk-21" style="edgeStyle=orthogonalEdgeStyle;rounded=0;orthogonalLoop=1;jettySize=auto;html=1;exitX=1;exitY=0.5;exitDx=0;exitDy=0;" parent="1" source="aGxoeLjBCxl2E1MKSHPk-17" target="aGxoeLjBCxl2E1MKSHPk-20" edge="1">
          <mxGeometry relative="1" as="geometry" />
        </mxCell>
        <mxCell id="aGxoeLjBCxl2E1MKSHPk-24" value="&lt;font style=&quot;font-size: 8px;&quot;&gt;REQUIERE EL&lt;br&gt;TERRAFORM PLAN&lt;/font&gt;" style="edgeLabel;html=1;align=center;verticalAlign=middle;resizable=0;points=[];" parent="aGxoeLjBCxl2E1MKSHPk-21" vertex="1" connectable="0">
          <mxGeometry x="-0.2228" y="3" relative="1" as="geometry">
            <mxPoint x="16" y="3" as="offset" />
          </mxGeometry>
        </mxCell>
        <mxCell id="aGxoeLjBCxl2E1MKSHPk-17" value="TERRAFORM&#xa;PLAN" style="shape=image;verticalLabelPosition=bottom;labelBackgroundColor=default;verticalAlign=top;aspect=fixed;imageAspect=0;image=https://static-00.iconduck.com/assets.00/terraform-icon-452x512-ildgg5fd.png;" parent="1" vertex="1">
          <mxGeometry x="1500" y="237.64999999999998" width="45" height="50.97" as="geometry" />
        </mxCell>
        <mxCell id="aGxoeLjBCxl2E1MKSHPk-22" style="edgeStyle=orthogonalEdgeStyle;rounded=0;orthogonalLoop=1;jettySize=auto;html=1;exitX=0.5;exitY=0;exitDx=0;exitDy=0;entryX=0.5;entryY=0;entryDx=0;entryDy=0;dashed=1;" parent="1" source="aGxoeLjBCxl2E1MKSHPk-20" target="aGxoeLjBCxl2E1MKSHPk-17" edge="1">
          <mxGeometry relative="1" as="geometry">
            <Array as="points">
              <mxPoint x="1732" y="199.88" />
              <mxPoint x="1522" y="199.88" />
            </Array>
          </mxGeometry>
        </mxCell>
        <mxCell id="aGxoeLjBCxl2E1MKSHPk-23" value="&lt;font style=&quot;font-size: 9px;&quot;&gt;SI FALLA SE REQUIERE QUE SE&lt;br&gt;VUELVA A MODIFICAR EL CODIGO&lt;/font&gt;" style="edgeLabel;html=1;align=center;verticalAlign=middle;resizable=0;points=[];" parent="aGxoeLjBCxl2E1MKSHPk-22" vertex="1" connectable="0">
          <mxGeometry x="0.0039" y="-1" relative="1" as="geometry">
            <mxPoint as="offset" />
          </mxGeometry>
        </mxCell>
        <mxCell id="aGxoeLjBCxl2E1MKSHPk-20" value="SCAN" style="shape=image;verticalLabelPosition=bottom;labelBackgroundColor=default;verticalAlign=top;aspect=fixed;imageAspect=0;image=https://docs.kics.io/latest/img/logo/Checkmarx_Kics_Logo_fit_to_content.png;" parent="1" vertex="1">
          <mxGeometry x="1689.38" y="248.25999999999988" width="84.25" height="29.75" as="geometry" />
        </mxCell>
        <mxCell id="xY-2ZIvj6qzeRiU0uwma-1" value="fire_cdn_web_prod_alternative" style="strokeColor=#dddddd;shadow=1;strokeWidth=1;rounded=1;absoluteArcSize=1;arcSize=2;labelPosition=center;verticalLabelPosition=bottom;align=center;verticalAlign=top;" parent="1" vertex="1">
          <mxGeometry x="1876" y="373.25" width="120" height="60" as="geometry" />
        </mxCell>
        <mxCell id="xY-2ZIvj6qzeRiU0uwma-2" value="Cloud&#xa;Storage" style="editableCssRules=.*;html=1;fontColor=#999999;shape=image;verticalLabelPosition=middle;verticalAlign=middle;labelPosition=right;align=left;spacingLeft=20;part=1;points=[];imageAspect=0;image=data:image/svg+xml,PHN2ZyB4bWxucz0iaHR0cDovL3d3dy53My5vcmcvMjAwMC9zdmciIHhtbG5zOnY9Imh0dHBzOi8vdmVjdGEuaW8vbmFubyIgd2lkdGg9IjIwIiBoZWlnaHQ9IjE2IiB2aWV3Qm94PSIwIDAgMjAgMTYiPiYjeGE7CTxzdHlsZSB0eXBlPSJ0ZXh0L2NzcyI+JiN4YTsJLnN0MHtmaWxsOiM0Mjg1ZjQ7fSYjeGE7CS5zdDF7ZmlsbDojNjY5ZGY2O30mI3hhOwkuc3Qye2ZpbGw6I2FlY2JmYTt9JiN4YTsJLnN0M3tmaWxsOiNmZmY7fSYjeGE7CTwvc3R5bGU+JiN4YTsJPHBhdGggY2xhc3M9InN0MiIgZD0iTTAgMGgyMHY3SDB6Ii8+JiN4YTsJPHBhdGggY2xhc3M9InN0MSIgZD0iTTE4IDBoMnY3aC0yeiIvPiYjeGE7CTxwYXRoIGNsYXNzPSJzdDAiIGQ9Ik0xOCA3bDItN2gtMnoiLz4mI3hhOwk8cGF0aCBjbGFzcz0ic3QxIiBkPSJNMCAwaDJ2N0gweiIvPiYjeGE7CTxnIGNsYXNzPSJzdDMiPiYjeGE7CQk8cGF0aCBkPSJNNCAzaDZ2MUg0eiIvPiYjeGE7CQk8cmVjdCB4PSIxMyIgeT0iMiIgd2lkdGg9IjMiIGhlaWdodD0iMyIgcng9IjEuNSIvPiYjeGE7CTwvZz4mI3hhOwk8cGF0aCBjbGFzcz0ic3QyIiBkPSJNMCA5aDIwdjdIMHoiLz4mI3hhOwk8cGF0aCBjbGFzcz0ic3QxIiBkPSJNMTggOWgydjdoLTJ6Ii8+JiN4YTsJPHBhdGggY2xhc3M9InN0MCIgZD0iTTE4IDE2bDItN2gtMnoiLz4mI3hhOwk8cGF0aCBjbGFzcz0ic3QxIiBkPSJNMCA5aDJ2N0gweiIvPiYjeGE7CTxnIGNsYXNzPSJzdDMiPiYjeGE7CQk8cGF0aCBkPSJNNCAxMmg2djFINHoiLz4mI3hhOwkJPHJlY3QgeD0iMTMiIHk9IjExIiB3aWR0aD0iMyIgaGVpZ2h0PSIzIiByeD0iMS41Ii8+JiN4YTsJPC9nPiYjeGE7PC9zdmc+;" parent="xY-2ZIvj6qzeRiU0uwma-1" vertex="1">
          <mxGeometry width="30" height="24" relative="1" as="geometry">
            <mxPoint x="15" y="18" as="offset" />
          </mxGeometry>
        </mxCell>
        <mxCell id="xY-2ZIvj6qzeRiU0uwma-25" style="edgeStyle=orthogonalEdgeStyle;rounded=0;orthogonalLoop=1;jettySize=auto;html=1;" parent="1" source="xY-2ZIvj6qzeRiU0uwma-3" target="xY-2ZIvj6qzeRiU0uwma-23" edge="1">
          <mxGeometry relative="1" as="geometry" />
        </mxCell>
        <mxCell id="xY-2ZIvj6qzeRiU0uwma-3" value="cmpc-fire-bucket-cdn-web-prod-alt" style="strokeColor=#dddddd;shadow=1;strokeWidth=1;rounded=1;absoluteArcSize=1;arcSize=2;labelPosition=center;verticalLabelPosition=bottom;align=center;verticalAlign=top;" parent="1" vertex="1">
          <mxGeometry x="1224" y="478" width="110" height="60" as="geometry" />
        </mxCell>
        <mxCell id="xY-2ZIvj6qzeRiU0uwma-4" value="Cloud&#xa;CDN" style="editableCssRules=.*;html=1;fontColor=#999999;shape=image;verticalLabelPosition=middle;verticalAlign=middle;labelPosition=right;align=left;spacingLeft=20;part=1;points=[];imageAspect=0;image=data:image/svg+xml,PHN2ZyB4bWxucz0iaHR0cDovL3d3dy53My5vcmcvMjAwMC9zdmciIHhtbG5zOnY9Imh0dHBzOi8vdmVjdGEuaW8vbmFubyIgd2lkdGg9IjIwIiBoZWlnaHQ9IjIwIiB2aWV3Qm94PSIwIDAgMjAgMjAiPiYjeGE7CTxzdHlsZSB0eXBlPSJ0ZXh0L2NzcyI+JiN4YTsJLnN0MHtmaWxsOiM0Mjg1ZjQ7fSYjeGE7CS5zdDF7ZmlsbDojNjY5ZGY2O30mI3hhOwkuc3Qye2ZpbGw6I2FlY2JmYTt9JiN4YTsJPC9zdHlsZT4mI3hhOwk8cGF0aCBjbGFzcz0ic3QxIiBkPSJNMTMuMTMgNS42M1YzLjIxTDEwIDB2Mi40MXptMy43NSA3LjVMMjAgMTBoLTIuNWwtMy4xMiAzLjEzem0tMTMuNzUgMEwwIDEwaDIuNWwzLjEzIDMuMTN6bTEwIDEuMjV2Mi40MUwxMCAyMHYtMi40MXoiIGZpbGwtcnVsZT0iZXZlbm9kZCIvPiYjeGE7CTxwYXRoIGNsYXNzPSJzdDIiIGQ9Ik02Ljg4IDUuNjNMMTAgMi40MVYwTDYuODggMy4yMXpNMTcuNSAxMEgyMGwtMy4xMi0zLjEyaC0yLjV6bS0xNSAwSDBsMy4xMy0zLjEyaDIuNXptNC4zOCA0LjM4TDEwIDE3LjU5VjIwbC0zLjEyLTMuMjF6bTAtNy41aDYuMjV2Ni4yNUg2Ljg4eiIgZmlsbC1ydWxlPSJldmVub2RkIi8+JiN4YTsJPHBhdGggY2xhc3M9InN0MSIgZD0iTTYuODggMTMuMTNsNi4yNS02LjI1djYuMjV6IiBmaWxsLXJ1bGU9ImV2ZW5vZGQiLz4mI3hhOwk8cGF0aCBjbGFzcz0ic3QwIiBkPSJNMTAgMTBsMy4xMy0zLjEydjYuMjV6IiBmaWxsLXJ1bGU9ImV2ZW5vZGQiLz4mI3hhOzwvc3ZnPg==;" parent="xY-2ZIvj6qzeRiU0uwma-3" vertex="1">
          <mxGeometry width="30" height="30" relative="1" as="geometry">
            <mxPoint x="15" y="15" as="offset" />
          </mxGeometry>
        </mxCell>
        <mxCell id="xY-2ZIvj6qzeRiU0uwma-8" value="fire_images_bucket_name_private_prod" style="strokeColor=#dddddd;shadow=1;strokeWidth=1;rounded=1;absoluteArcSize=1;arcSize=2;labelPosition=center;verticalLabelPosition=bottom;align=center;verticalAlign=top;" parent="1" vertex="1">
          <mxGeometry x="2077" y="606" width="120" height="60" as="geometry" />
        </mxCell>
        <mxCell id="xY-2ZIvj6qzeRiU0uwma-9" value="Cloud&#xa;Storage" style="editableCssRules=.*;html=1;fontColor=#999999;shape=image;verticalLabelPosition=middle;verticalAlign=middle;labelPosition=right;align=left;spacingLeft=20;part=1;points=[];imageAspect=0;image=data:image/svg+xml,PHN2ZyB4bWxucz0iaHR0cDovL3d3dy53My5vcmcvMjAwMC9zdmciIHhtbG5zOnY9Imh0dHBzOi8vdmVjdGEuaW8vbmFubyIgd2lkdGg9IjIwIiBoZWlnaHQ9IjE2IiB2aWV3Qm94PSIwIDAgMjAgMTYiPiYjeGE7CTxzdHlsZSB0eXBlPSJ0ZXh0L2NzcyI+JiN4YTsJLnN0MHtmaWxsOiM0Mjg1ZjQ7fSYjeGE7CS5zdDF7ZmlsbDojNjY5ZGY2O30mI3hhOwkuc3Qye2ZpbGw6I2FlY2JmYTt9JiN4YTsJLnN0M3tmaWxsOiNmZmY7fSYjeGE7CTwvc3R5bGU+JiN4YTsJPHBhdGggY2xhc3M9InN0MiIgZD0iTTAgMGgyMHY3SDB6Ii8+JiN4YTsJPHBhdGggY2xhc3M9InN0MSIgZD0iTTE4IDBoMnY3aC0yeiIvPiYjeGE7CTxwYXRoIGNsYXNzPSJzdDAiIGQ9Ik0xOCA3bDItN2gtMnoiLz4mI3hhOwk8cGF0aCBjbGFzcz0ic3QxIiBkPSJNMCAwaDJ2N0gweiIvPiYjeGE7CTxnIGNsYXNzPSJzdDMiPiYjeGE7CQk8cGF0aCBkPSJNNCAzaDZ2MUg0eiIvPiYjeGE7CQk8cmVjdCB4PSIxMyIgeT0iMiIgd2lkdGg9IjMiIGhlaWdodD0iMyIgcng9IjEuNSIvPiYjeGE7CTwvZz4mI3hhOwk8cGF0aCBjbGFzcz0ic3QyIiBkPSJNMCA5aDIwdjdIMHoiLz4mI3hhOwk8cGF0aCBjbGFzcz0ic3QxIiBkPSJNMTggOWgydjdoLTJ6Ii8+JiN4YTsJPHBhdGggY2xhc3M9InN0MCIgZD0iTTE4IDE2bDItN2gtMnoiLz4mI3hhOwk8cGF0aCBjbGFzcz0ic3QxIiBkPSJNMCA5aDJ2N0gweiIvPiYjeGE7CTxnIGNsYXNzPSJzdDMiPiYjeGE7CQk8cGF0aCBkPSJNNCAxMmg2djFINHoiLz4mI3hhOwkJPHJlY3QgeD0iMTMiIHk9IjExIiB3aWR0aD0iMyIgaGVpZ2h0PSIzIiByeD0iMS41Ii8+JiN4YTsJPC9nPiYjeGE7PC9zdmc+;" parent="xY-2ZIvj6qzeRiU0uwma-8" vertex="1">
          <mxGeometry width="30" height="24" relative="1" as="geometry">
            <mxPoint x="15" y="18" as="offset" />
          </mxGeometry>
        </mxCell>
        <mxCell id="xY-2ZIvj6qzeRiU0uwma-10" value="fire_images_bucket_name_cdn_web_prod" style="strokeColor=#dddddd;shadow=1;strokeWidth=1;rounded=1;absoluteArcSize=1;arcSize=2;labelPosition=center;verticalLabelPosition=bottom;align=center;verticalAlign=top;" parent="1" vertex="1">
          <mxGeometry x="1987" y="712" width="120" height="60" as="geometry" />
        </mxCell>
        <mxCell id="xY-2ZIvj6qzeRiU0uwma-11" value="Cloud&#xa;Storage" style="editableCssRules=.*;html=1;fontColor=#999999;shape=image;verticalLabelPosition=middle;verticalAlign=middle;labelPosition=right;align=left;spacingLeft=20;part=1;points=[];imageAspect=0;image=data:image/svg+xml,PHN2ZyB4bWxucz0iaHR0cDovL3d3dy53My5vcmcvMjAwMC9zdmciIHhtbG5zOnY9Imh0dHBzOi8vdmVjdGEuaW8vbmFubyIgd2lkdGg9IjIwIiBoZWlnaHQ9IjE2IiB2aWV3Qm94PSIwIDAgMjAgMTYiPiYjeGE7CTxzdHlsZSB0eXBlPSJ0ZXh0L2NzcyI+JiN4YTsJLnN0MHtmaWxsOiM0Mjg1ZjQ7fSYjeGE7CS5zdDF7ZmlsbDojNjY5ZGY2O30mI3hhOwkuc3Qye2ZpbGw6I2FlY2JmYTt9JiN4YTsJLnN0M3tmaWxsOiNmZmY7fSYjeGE7CTwvc3R5bGU+JiN4YTsJPHBhdGggY2xhc3M9InN0MiIgZD0iTTAgMGgyMHY3SDB6Ii8+JiN4YTsJPHBhdGggY2xhc3M9InN0MSIgZD0iTTE4IDBoMnY3aC0yeiIvPiYjeGE7CTxwYXRoIGNsYXNzPSJzdDAiIGQ9Ik0xOCA3bDItN2gtMnoiLz4mI3hhOwk8cGF0aCBjbGFzcz0ic3QxIiBkPSJNMCAwaDJ2N0gweiIvPiYjeGE7CTxnIGNsYXNzPSJzdDMiPiYjeGE7CQk8cGF0aCBkPSJNNCAzaDZ2MUg0eiIvPiYjeGE7CQk8cmVjdCB4PSIxMyIgeT0iMiIgd2lkdGg9IjMiIGhlaWdodD0iMyIgcng9IjEuNSIvPiYjeGE7CTwvZz4mI3hhOwk8cGF0aCBjbGFzcz0ic3QyIiBkPSJNMCA5aDIwdjdIMHoiLz4mI3hhOwk8cGF0aCBjbGFzcz0ic3QxIiBkPSJNMTggOWgydjdoLTJ6Ii8+JiN4YTsJPHBhdGggY2xhc3M9InN0MCIgZD0iTTE4IDE2bDItN2gtMnoiLz4mI3hhOwk8cGF0aCBjbGFzcz0ic3QxIiBkPSJNMCA5aDJ2N0gweiIvPiYjeGE7CTxnIGNsYXNzPSJzdDMiPiYjeGE7CQk8cGF0aCBkPSJNNCAxMmg2djFINHoiLz4mI3hhOwkJPHJlY3QgeD0iMTMiIHk9IjExIiB3aWR0aD0iMyIgaGVpZ2h0PSIzIiByeD0iMS41Ii8+JiN4YTsJPC9nPiYjeGE7PC9zdmc+;" parent="xY-2ZIvj6qzeRiU0uwma-10" vertex="1">
          <mxGeometry width="30" height="24" relative="1" as="geometry">
            <mxPoint x="15" y="18" as="offset" />
          </mxGeometry>
        </mxCell>
        <mxCell id="xY-2ZIvj6qzeRiU0uwma-14" value="fire_cdn_web_prod_alternative-dr" style="strokeColor=#dddddd;shadow=1;strokeWidth=1;rounded=1;absoluteArcSize=1;arcSize=2;labelPosition=center;verticalLabelPosition=bottom;align=center;verticalAlign=top;" parent="1" vertex="1">
          <mxGeometry x="2238.52" y="451" width="120" height="60" as="geometry" />
        </mxCell>
        <mxCell id="xY-2ZIvj6qzeRiU0uwma-15" value="Cloud&#xa;Storage" style="editableCssRules=.*;html=1;fontColor=#999999;shape=image;verticalLabelPosition=middle;verticalAlign=middle;labelPosition=right;align=left;spacingLeft=20;part=1;points=[];imageAspect=0;image=data:image/svg+xml,PHN2ZyB4bWxucz0iaHR0cDovL3d3dy53My5vcmcvMjAwMC9zdmciIHhtbG5zOnY9Imh0dHBzOi8vdmVjdGEuaW8vbmFubyIgd2lkdGg9IjIwIiBoZWlnaHQ9IjE2IiB2aWV3Qm94PSIwIDAgMjAgMTYiPiYjeGE7CTxzdHlsZSB0eXBlPSJ0ZXh0L2NzcyI+JiN4YTsJLnN0MHtmaWxsOiM0Mjg1ZjQ7fSYjeGE7CS5zdDF7ZmlsbDojNjY5ZGY2O30mI3hhOwkuc3Qye2ZpbGw6I2FlY2JmYTt9JiN4YTsJLnN0M3tmaWxsOiNmZmY7fSYjeGE7CTwvc3R5bGU+JiN4YTsJPHBhdGggY2xhc3M9InN0MiIgZD0iTTAgMGgyMHY3SDB6Ii8+JiN4YTsJPHBhdGggY2xhc3M9InN0MSIgZD0iTTE4IDBoMnY3aC0yeiIvPiYjeGE7CTxwYXRoIGNsYXNzPSJzdDAiIGQ9Ik0xOCA3bDItN2gtMnoiLz4mI3hhOwk8cGF0aCBjbGFzcz0ic3QxIiBkPSJNMCAwaDJ2N0gweiIvPiYjeGE7CTxnIGNsYXNzPSJzdDMiPiYjeGE7CQk8cGF0aCBkPSJNNCAzaDZ2MUg0eiIvPiYjeGE7CQk8cmVjdCB4PSIxMyIgeT0iMiIgd2lkdGg9IjMiIGhlaWdodD0iMyIgcng9IjEuNSIvPiYjeGE7CTwvZz4mI3hhOwk8cGF0aCBjbGFzcz0ic3QyIiBkPSJNMCA5aDIwdjdIMHoiLz4mI3hhOwk8cGF0aCBjbGFzcz0ic3QxIiBkPSJNMTggOWgydjdoLTJ6Ii8+JiN4YTsJPHBhdGggY2xhc3M9InN0MCIgZD0iTTE4IDE2bDItN2gtMnoiLz4mI3hhOwk8cGF0aCBjbGFzcz0ic3QxIiBkPSJNMCA5aDJ2N0gweiIvPiYjeGE7CTxnIGNsYXNzPSJzdDMiPiYjeGE7CQk8cGF0aCBkPSJNNCAxMmg2djFINHoiLz4mI3hhOwkJPHJlY3QgeD0iMTMiIHk9IjExIiB3aWR0aD0iMyIgaGVpZ2h0PSIzIiByeD0iMS41Ii8+JiN4YTsJPC9nPiYjeGE7PC9zdmc+;" parent="xY-2ZIvj6qzeRiU0uwma-14" vertex="1">
          <mxGeometry width="30" height="24" relative="1" as="geometry">
            <mxPoint x="15" y="18" as="offset" />
          </mxGeometry>
        </mxCell>
        <mxCell id="xY-2ZIvj6qzeRiU0uwma-16" value="fire_images_bucket_name_private_prod-dr" style="strokeColor=#dddddd;shadow=1;strokeWidth=1;rounded=1;absoluteArcSize=1;arcSize=2;labelPosition=center;verticalLabelPosition=bottom;align=center;verticalAlign=top;" parent="1" vertex="1">
          <mxGeometry x="2236" y="578" width="120" height="60" as="geometry" />
        </mxCell>
        <mxCell id="xY-2ZIvj6qzeRiU0uwma-17" value="Cloud&#xa;Storage" style="editableCssRules=.*;html=1;fontColor=#999999;shape=image;verticalLabelPosition=middle;verticalAlign=middle;labelPosition=right;align=left;spacingLeft=20;part=1;points=[];imageAspect=0;image=data:image/svg+xml,PHN2ZyB4bWxucz0iaHR0cDovL3d3dy53My5vcmcvMjAwMC9zdmciIHhtbG5zOnY9Imh0dHBzOi8vdmVjdGEuaW8vbmFubyIgd2lkdGg9IjIwIiBoZWlnaHQ9IjE2IiB2aWV3Qm94PSIwIDAgMjAgMTYiPiYjeGE7CTxzdHlsZSB0eXBlPSJ0ZXh0L2NzcyI+JiN4YTsJLnN0MHtmaWxsOiM0Mjg1ZjQ7fSYjeGE7CS5zdDF7ZmlsbDojNjY5ZGY2O30mI3hhOwkuc3Qye2ZpbGw6I2FlY2JmYTt9JiN4YTsJLnN0M3tmaWxsOiNmZmY7fSYjeGE7CTwvc3R5bGU+JiN4YTsJPHBhdGggY2xhc3M9InN0MiIgZD0iTTAgMGgyMHY3SDB6Ii8+JiN4YTsJPHBhdGggY2xhc3M9InN0MSIgZD0iTTE4IDBoMnY3aC0yeiIvPiYjeGE7CTxwYXRoIGNsYXNzPSJzdDAiIGQ9Ik0xOCA3bDItN2gtMnoiLz4mI3hhOwk8cGF0aCBjbGFzcz0ic3QxIiBkPSJNMCAwaDJ2N0gweiIvPiYjeGE7CTxnIGNsYXNzPSJzdDMiPiYjeGE7CQk8cGF0aCBkPSJNNCAzaDZ2MUg0eiIvPiYjeGE7CQk8cmVjdCB4PSIxMyIgeT0iMiIgd2lkdGg9IjMiIGhlaWdodD0iMyIgcng9IjEuNSIvPiYjeGE7CTwvZz4mI3hhOwk8cGF0aCBjbGFzcz0ic3QyIiBkPSJNMCA5aDIwdjdIMHoiLz4mI3hhOwk8cGF0aCBjbGFzcz0ic3QxIiBkPSJNMTggOWgydjdoLTJ6Ii8+JiN4YTsJPHBhdGggY2xhc3M9InN0MCIgZD0iTTE4IDE2bDItN2gtMnoiLz4mI3hhOwk8cGF0aCBjbGFzcz0ic3QxIiBkPSJNMCA5aDJ2N0gweiIvPiYjeGE7CTxnIGNsYXNzPSJzdDMiPiYjeGE7CQk8cGF0aCBkPSJNNCAxMmg2djFINHoiLz4mI3hhOwkJPHJlY3QgeD0iMTMiIHk9IjExIiB3aWR0aD0iMyIgaGVpZ2h0PSIzIiByeD0iMS41Ii8+JiN4YTsJPC9nPiYjeGE7PC9zdmc+;" parent="xY-2ZIvj6qzeRiU0uwma-16" vertex="1">
          <mxGeometry width="30" height="24" relative="1" as="geometry">
            <mxPoint x="15" y="18" as="offset" />
          </mxGeometry>
        </mxCell>
        <mxCell id="xY-2ZIvj6qzeRiU0uwma-18" value="fire_images_bucket_name_cdn_web_prod-dr" style="strokeColor=#dddddd;shadow=1;strokeWidth=1;rounded=1;absoluteArcSize=1;arcSize=2;labelPosition=center;verticalLabelPosition=bottom;align=center;verticalAlign=top;" parent="1" vertex="1">
          <mxGeometry x="2236" y="712" width="120" height="60" as="geometry" />
        </mxCell>
        <mxCell id="xY-2ZIvj6qzeRiU0uwma-19" value="Cloud&#xa;Storage" style="editableCssRules=.*;html=1;fontColor=#999999;shape=image;verticalLabelPosition=middle;verticalAlign=middle;labelPosition=right;align=left;spacingLeft=20;part=1;points=[];imageAspect=0;image=data:image/svg+xml,PHN2ZyB4bWxucz0iaHR0cDovL3d3dy53My5vcmcvMjAwMC9zdmciIHhtbG5zOnY9Imh0dHBzOi8vdmVjdGEuaW8vbmFubyIgd2lkdGg9IjIwIiBoZWlnaHQ9IjE2IiB2aWV3Qm94PSIwIDAgMjAgMTYiPiYjeGE7CTxzdHlsZSB0eXBlPSJ0ZXh0L2NzcyI+JiN4YTsJLnN0MHtmaWxsOiM0Mjg1ZjQ7fSYjeGE7CS5zdDF7ZmlsbDojNjY5ZGY2O30mI3hhOwkuc3Qye2ZpbGw6I2FlY2JmYTt9JiN4YTsJLnN0M3tmaWxsOiNmZmY7fSYjeGE7CTwvc3R5bGU+JiN4YTsJPHBhdGggY2xhc3M9InN0MiIgZD0iTTAgMGgyMHY3SDB6Ii8+JiN4YTsJPHBhdGggY2xhc3M9InN0MSIgZD0iTTE4IDBoMnY3aC0yeiIvPiYjeGE7CTxwYXRoIGNsYXNzPSJzdDAiIGQ9Ik0xOCA3bDItN2gtMnoiLz4mI3hhOwk8cGF0aCBjbGFzcz0ic3QxIiBkPSJNMCAwaDJ2N0gweiIvPiYjeGE7CTxnIGNsYXNzPSJzdDMiPiYjeGE7CQk8cGF0aCBkPSJNNCAzaDZ2MUg0eiIvPiYjeGE7CQk8cmVjdCB4PSIxMyIgeT0iMiIgd2lkdGg9IjMiIGhlaWdodD0iMyIgcng9IjEuNSIvPiYjeGE7CTwvZz4mI3hhOwk8cGF0aCBjbGFzcz0ic3QyIiBkPSJNMCA5aDIwdjdIMHoiLz4mI3hhOwk8cGF0aCBjbGFzcz0ic3QxIiBkPSJNMTggOWgydjdoLTJ6Ii8+JiN4YTsJPHBhdGggY2xhc3M9InN0MCIgZD0iTTE4IDE2bDItN2gtMnoiLz4mI3hhOwk8cGF0aCBjbGFzcz0ic3QxIiBkPSJNMCA5aDJ2N0gweiIvPiYjeGE7CTxnIGNsYXNzPSJzdDMiPiYjeGE7CQk8cGF0aCBkPSJNNCAxMmg2djFINHoiLz4mI3hhOwkJPHJlY3QgeD0iMTMiIHk9IjExIiB3aWR0aD0iMyIgaGVpZ2h0PSIzIiByeD0iMS41Ii8+JiN4YTsJPC9nPiYjeGE7PC9zdmc+;" parent="xY-2ZIvj6qzeRiU0uwma-18" vertex="1">
          <mxGeometry width="30" height="24" relative="1" as="geometry">
            <mxPoint x="15" y="18" as="offset" />
          </mxGeometry>
        </mxCell>
        <mxCell id="xY-2ZIvj6qzeRiU0uwma-21" value="" style="strokeColor=#dddddd;shadow=1;strokeWidth=1;rounded=1;absoluteArcSize=1;arcSize=2;" parent="1" vertex="1">
          <mxGeometry x="1294" y="750" width="130" height="60" as="geometry" />
        </mxCell>
        <mxCell id="xY-2ZIvj6qzeRiU0uwma-22" value="Transfer&#xa;Appliance" style="editableCssRules=.*;html=1;fontColor=#999999;shape=image;verticalLabelPosition=middle;verticalAlign=middle;labelPosition=right;align=left;spacingLeft=20;part=1;points=[];imageAspect=0;image=data:image/svg+xml,PHN2ZyB4bWxucz0iaHR0cDovL3d3dy53My5vcmcvMjAwMC9zdmciIHhtbG5zOnY9Imh0dHBzOi8vdmVjdGEuaW8vbmFubyIgd2lkdGg9IjE5LjkzMzEzNDA3ODk3OTQ5MiIgaGVpZ2h0PSIxMC44NjAwMDA2MTAzNTE1NjIiIHZpZXdCb3g9IjAuMDAwMDI2NTAxNDY0MTYyNzIwMzY3IC0zLjgxMjY2MDA1NDMzNjQ0NzVlLTggMTkuOTMzMTM0MDc4OTc5NDkyIDEwLjg2MDAwMDYxMDM1MTU2MiI+JiN4YTsJPHN0eWxlIHR5cGU9InRleHQvY3NzIj4mI3hhOwkuc3Qwe2ZpbGw6IzQyODVmNDt9JiN4YTsJLnN0MXtmaWxsOiM2NjlkZjY7fSYjeGE7CS5zdDJ7ZmlsbDojYWVjYmZhO30mI3hhOwk8L3N0eWxlPiYjeGE7CTxwYXRoIGNsYXNzPSJzdDAiIGQ9Ik0xOS41NjMgMEg3LjE5M2EuMzIuMzIgMCAwIDAtLjMyLjMzdjIuMTZhLjMyLjMyIDAgMCAwIC4zMi4zMmgxMi4zN2EuMzIuMzIgMCAwIDAgLjM3LS4zMlYuMzNhLjMyLjMyIDAgMCAwLS4zMS0uMzN6TTguNDIzIDIuMTRhLjcuNyAwIDEgMSAuNy0uN2gwYS43LjcgMCAwIDEtLjcuN3ptMTEuMTQgMS45SDcuMTkzYS4zMi4zMiAwIDAgMC0uMzIuMzJ2Mi4xNWEuMzIuMzIgMCAwIDAgLjMyLjMyaDEyLjM3YS4zMi4zMiAwIDAgMCAuMzItLjMyVjQuMzZhLjMyLjMyIDAgMCAwLS4zMi0uMzJ6TTguNDIzIDYuMThhLjcuNyAwIDEgMSAuNy0uN2gwYS43LjcgMCAwIDEtLjcuN3ptMTEuMTkgMS44N0g3LjI1M2EuMzIuMzIgMCAwIDAtLjMyLjMydjIuMTZhLjMyLjMyIDAgMCAwIC4zMi4zM2gxMi4zNmEuMzIuMzIgMCAwIDAgLjMyLS4zM1Y4LjM3YS4zMi4zMiAwIDAgMC0uMzItLjMyem0tMTEuMTQgMi4xM2EuNzEuNzEgMCAwIDEtLjctLjcxLjcxLjcxIDAgMCAxIDEuNDEgMCAuNzEuNzEgMCAwIDEtLjcxLjcxeiIvPiYjeGE7CTxwYXRoIGNsYXNzPSJzdDEiIGQ9Ik00LjY3MyAzLjI5aC0yLjEzYS44MTIuODEyIDAgMCAxLS4yMS0xLjYxaDIuMzRhLjgxNS44MTUgMCAxIDEgLjI2IDEuNjF6Ii8+JiN4YTsJPHBhdGggY2xhc3M9InN0MiIgZD0iTTQuNjczIDYuMjRILjg1M2EuODIuODIgMCAwIDEtLjIxLTEuNjJoNGEuODIzLjgyMyAwIDAgMSAuMjkgMS42MnoiLz4mI3hhOwk8cGF0aCBjbGFzcz0ic3QxIiBkPSJNNC42NzMgOS4xOGgtMi4xM2EuODEyLjgxMiAwIDAgMS0uMjEtMS42MWgyLjM0YS44MTUuODE1IDAgMCAxIC4yNiAxLjYxeiIvPiYjeGE7PC9zdmc+;" parent="xY-2ZIvj6qzeRiU0uwma-21" vertex="1">
          <mxGeometry width="30" height="16" relative="1" as="geometry">
            <mxPoint x="15" y="22" as="offset" />
          </mxGeometry>
        </mxCell>
        <mxCell id="xY-2ZIvj6qzeRiU0uwma-26" style="edgeStyle=orthogonalEdgeStyle;rounded=0;orthogonalLoop=1;jettySize=auto;html=1;" parent="1" source="xY-2ZIvj6qzeRiU0uwma-23" target="xY-2ZIvj6qzeRiU0uwma-1" edge="1">
          <mxGeometry relative="1" as="geometry">
            <Array as="points">
              <mxPoint x="1547" y="406" />
            </Array>
          </mxGeometry>
        </mxCell>
        <mxCell id="xY-2ZIvj6qzeRiU0uwma-28" value="&lt;b&gt;&amp;nbsp; &amp;nbsp; OLD - SINGLE REGION&amp;nbsp; &amp;nbsp;&amp;nbsp;&lt;/b&gt;" style="edgeLabel;html=1;align=center;verticalAlign=middle;resizable=0;points=[];" parent="xY-2ZIvj6qzeRiU0uwma-26" vertex="1" connectable="0">
          <mxGeometry x="0.3606" y="3" relative="1" as="geometry">
            <mxPoint x="-21" y="-1" as="offset" />
          </mxGeometry>
        </mxCell>
        <mxCell id="xY-2ZIvj6qzeRiU0uwma-31" style="edgeStyle=orthogonalEdgeStyle;rounded=0;orthogonalLoop=1;jettySize=auto;html=1;entryX=0;entryY=0.5;entryDx=0;entryDy=0;" parent="1" source="xY-2ZIvj6qzeRiU0uwma-23" target="xY-2ZIvj6qzeRiU0uwma-29" edge="1">
          <mxGeometry relative="1" as="geometry" />
        </mxCell>
        <mxCell id="xY-2ZIvj6qzeRiU0uwma-32" value="&amp;nbsp; &amp;nbsp;NEW - MULTI REGION&amp;nbsp; &amp;nbsp;" style="edgeLabel;html=1;align=center;verticalAlign=middle;resizable=0;points=[];fontStyle=1" parent="xY-2ZIvj6qzeRiU0uwma-31" vertex="1" connectable="0">
          <mxGeometry x="-0.2681" relative="1" as="geometry">
            <mxPoint x="35" as="offset" />
          </mxGeometry>
        </mxCell>
        <mxCell id="xY-2ZIvj6qzeRiU0uwma-23" value="cmpc-fire-bucket-cdn-web-prod-alt-cdn-url-map&#xa;" style="strokeColor=#dddddd;shadow=1;strokeWidth=1;rounded=1;absoluteArcSize=1;arcSize=2;labelPosition=center;verticalLabelPosition=bottom;align=center;verticalAlign=top;" parent="1" vertex="1">
          <mxGeometry x="1477" y="478" width="140" height="60" as="geometry" />
        </mxCell>
        <mxCell id="xY-2ZIvj6qzeRiU0uwma-24" value="Cloud Load&#xa;Balancing" style="editableCssRules=.*;html=1;fontColor=#999999;shape=image;verticalLabelPosition=middle;verticalAlign=middle;labelPosition=right;align=left;spacingLeft=20;part=1;points=[];imageAspect=0;image=data:image/svg+xml,PHN2ZyB4bWxucz0iaHR0cDovL3d3dy53My5vcmcvMjAwMC9zdmciIHhtbG5zOnY9Imh0dHBzOi8vdmVjdGEuaW8vbmFubyIgd2lkdGg9IjIwIiBoZWlnaHQ9IjIwIiB2aWV3Qm94PSIwIDAgMjAgMjAiPiYjeGE7CTxzdHlsZSB0eXBlPSJ0ZXh0L2NzcyI+JiN4YTsJLnN0MHtmaWxsOiM0Mjg1ZjQ7fSYjeGE7CS5zdDF7ZmlsbDojNjY5ZGY2O30mI3hhOwkuc3Qye2ZpbGw6I2FlY2JmYTt9JiN4YTsJPC9zdHlsZT4mI3hhOwk8cGF0aCBjbGFzcz0ic3QxIiBkPSJNMTYgMTBoMnY0aC0yem0tNyAwaDJ2NEg5em0tNyAwaDJ2NEgyeiIvPiYjeGE7CTxwYXRoIGNsYXNzPSJzdDAiIGQ9Ik05IDVoMnY0SDl6Ii8+JiN4YTsJPHBhdGggY2xhc3M9InN0MSIgZD0iTTIgOWgxNnYySDJ6Ii8+JiN4YTsJPHBhdGggY2xhc3M9InN0MiIgZD0iTTQgMGgxMnY1SDR6Ii8+JiN4YTsJPHBhdGggY2xhc3M9InN0MSIgZD0iTTEwIDBoNnY1aC02eiIvPiYjeGE7CTxwYXRoIGNsYXNzPSJzdDIiIGQ9Ik0xNCAxNGg2djZoLTZ6TTAgMTRoNnY2SDB6Ii8+JiN4YTsJPHBhdGggY2xhc3M9InN0MSIgZD0iTTMgMTRoM3Y2SDN6Ii8+JiN4YTsJPHBhdGggY2xhc3M9InN0MiIgZD0iTTcgMTRoNnY2SDd6Ii8+JiN4YTsJPHBhdGggY2xhc3M9InN0MSIgZD0iTTEwIDE0aDN2NmgtM3ptNyAwaDN2NmgtM3oiLz4mI3hhOzwvc3ZnPg==;" parent="xY-2ZIvj6qzeRiU0uwma-23" vertex="1">
          <mxGeometry width="30" height="30" relative="1" as="geometry">
            <mxPoint x="15" y="15" as="offset" />
          </mxGeometry>
        </mxCell>
        <mxCell id="xY-2ZIvj6qzeRiU0uwma-29" value="fire_cdn_web_prod_alternative" style="strokeColor=#dddddd;shadow=1;strokeWidth=1;rounded=1;absoluteArcSize=1;arcSize=2;labelPosition=center;verticalLabelPosition=bottom;align=center;verticalAlign=top;" parent="1" vertex="1">
          <mxGeometry x="1879" y="476" width="120" height="60" as="geometry" />
        </mxCell>
        <mxCell id="xY-2ZIvj6qzeRiU0uwma-30" value="Cloud&#xa;Storage" style="editableCssRules=.*;html=1;fontColor=#999999;shape=image;verticalLabelPosition=middle;verticalAlign=middle;labelPosition=right;align=left;spacingLeft=20;part=1;points=[];imageAspect=0;image=data:image/svg+xml,PHN2ZyB4bWxucz0iaHR0cDovL3d3dy53My5vcmcvMjAwMC9zdmciIHhtbG5zOnY9Imh0dHBzOi8vdmVjdGEuaW8vbmFubyIgd2lkdGg9IjIwIiBoZWlnaHQ9IjE2IiB2aWV3Qm94PSIwIDAgMjAgMTYiPiYjeGE7CTxzdHlsZSB0eXBlPSJ0ZXh0L2NzcyI+JiN4YTsJLnN0MHtmaWxsOiM0Mjg1ZjQ7fSYjeGE7CS5zdDF7ZmlsbDojNjY5ZGY2O30mI3hhOwkuc3Qye2ZpbGw6I2FlY2JmYTt9JiN4YTsJLnN0M3tmaWxsOiNmZmY7fSYjeGE7CTwvc3R5bGU+JiN4YTsJPHBhdGggY2xhc3M9InN0MiIgZD0iTTAgMGgyMHY3SDB6Ii8+JiN4YTsJPHBhdGggY2xhc3M9InN0MSIgZD0iTTE4IDBoMnY3aC0yeiIvPiYjeGE7CTxwYXRoIGNsYXNzPSJzdDAiIGQ9Ik0xOCA3bDItN2gtMnoiLz4mI3hhOwk8cGF0aCBjbGFzcz0ic3QxIiBkPSJNMCAwaDJ2N0gweiIvPiYjeGE7CTxnIGNsYXNzPSJzdDMiPiYjeGE7CQk8cGF0aCBkPSJNNCAzaDZ2MUg0eiIvPiYjeGE7CQk8cmVjdCB4PSIxMyIgeT0iMiIgd2lkdGg9IjMiIGhlaWdodD0iMyIgcng9IjEuNSIvPiYjeGE7CTwvZz4mI3hhOwk8cGF0aCBjbGFzcz0ic3QyIiBkPSJNMCA5aDIwdjdIMHoiLz4mI3hhOwk8cGF0aCBjbGFzcz0ic3QxIiBkPSJNMTggOWgydjdoLTJ6Ii8+JiN4YTsJPHBhdGggY2xhc3M9InN0MCIgZD0iTTE4IDE2bDItN2gtMnoiLz4mI3hhOwk8cGF0aCBjbGFzcz0ic3QxIiBkPSJNMCA5aDJ2N0gweiIvPiYjeGE7CTxnIGNsYXNzPSJzdDMiPiYjeGE7CQk8cGF0aCBkPSJNNCAxMmg2djFINHoiLz4mI3hhOwkJPHJlY3QgeD0iMTMiIHk9IjExIiB3aWR0aD0iMyIgaGVpZ2h0PSIzIiByeD0iMS41Ii8+JiN4YTsJPC9nPiYjeGE7PC9zdmc+;" parent="xY-2ZIvj6qzeRiU0uwma-29" vertex="1">
          <mxGeometry width="30" height="24" relative="1" as="geometry">
            <mxPoint x="15" y="18" as="offset" />
          </mxGeometry>
        </mxCell>
        <mxCell id="WqzGKMTeR1Ja0gjyzSvE-24" value="" style="shape=mxgraph.gcp2.google_cloud_platform;fillColor=#F6F6F6;strokeColor=none;shadow=0;gradientColor=none;" parent="1" vertex="1">
          <mxGeometry x="2580" y="103.68" width="23" height="20" as="geometry" />
        </mxCell>
        <mxCell id="WqzGKMTeR1Ja0gjyzSvE-39" value="Region Virginia" style="sketch=0;points=[[0,0,0],[0.25,0,0],[0.5,0,0],[0.75,0,0],[1,0,0],[1,0.25,0],[1,0.5,0],[1,0.75,0],[1,1,0],[0.75,1,0],[0.5,1,0],[0.25,1,0],[0,1,0],[0,0.75,0],[0,0.5,0],[0,0.25,0]];rounded=1;absoluteArcSize=1;arcSize=2;html=1;strokeColor=none;gradientColor=none;shadow=0;dashed=0;fontSize=12;fontColor=#9E9E9E;align=left;verticalAlign=top;spacing=10;spacingTop=-4;whiteSpace=wrap;fillColor=#ECEFF1;" parent="1" vertex="1">
          <mxGeometry x="2636" y="148" width="438" height="221" as="geometry" />
        </mxCell>
        <mxCell id="WqzGKMTeR1Ja0gjyzSvE-45" value="Zone B" style="sketch=0;points=[[0,0,0],[0.25,0,0],[0.5,0,0],[0.75,0,0],[1,0,0],[1,0.25,0],[1,0.5,0],[1,0.75,0],[1,1,0],[0.75,1,0],[0.5,1,0],[0.25,1,0],[0,1,0],[0,0.75,0],[0,0.5,0],[0,0.25,0]];rounded=1;absoluteArcSize=1;arcSize=2;html=1;strokeColor=none;shadow=0;dashed=0;fontSize=12;align=left;verticalAlign=top;spacing=10;spacingTop=-4;whiteSpace=wrap;fillColor=#ffe6cc;" parent="1" vertex="1">
          <mxGeometry x="2869" y="195" width="180" height="127" as="geometry" />
        </mxCell>
        <mxCell id="WqzGKMTeR1Ja0gjyzSvE-44" value="Zone A" style="sketch=0;points=[[0,0,0],[0.25,0,0],[0.5,0,0],[0.75,0,0],[1,0,0],[1,0.25,0],[1,0.5,0],[1,0.75,0],[1,1,0],[0.75,1,0],[0.5,1,0],[0.25,1,0],[0,1,0],[0,0.75,0],[0,0.5,0],[0,0.25,0]];rounded=1;absoluteArcSize=1;arcSize=2;html=1;strokeColor=none;gradientColor=none;shadow=0;dashed=0;fontSize=12;fontColor=#9E9E9E;align=left;verticalAlign=top;spacing=10;spacingTop=-4;whiteSpace=wrap;fillColor=#FFF3E0;" parent="1" vertex="1">
          <mxGeometry x="2664" y="195" width="180" height="127" as="geometry" />
        </mxCell>
        <mxCell id="WqzGKMTeR1Ja0gjyzSvE-50" value="pulp-postgres-TEST" style="strokeColor=#dddddd;shadow=1;strokeWidth=1;rounded=1;absoluteArcSize=1;arcSize=2;labelPosition=center;verticalLabelPosition=bottom;align=center;verticalAlign=top;" parent="1" vertex="1">
          <mxGeometry x="2689" y="231.75" width="130" height="60" as="geometry" />
        </mxCell>
        <mxCell id="WqzGKMTeR1Ja0gjyzSvE-51" value="&lt;font color=&quot;#000000&quot;&gt;Primary&lt;/font&gt;&lt;br&gt;Cloud SQL" style="editableCssRules=.*;html=1;fontColor=#999999;shape=image;verticalLabelPosition=middle;verticalAlign=middle;labelPosition=right;align=left;spacingLeft=20;part=1;points=[];imageAspect=0;image=data:image/svg+xml,PHN2ZyB4bWxucz0iaHR0cDovL3d3dy53My5vcmcvMjAwMC9zdmciIHhtbG5zOnY9Imh0dHBzOi8vdmVjdGEuaW8vbmFubyIgd2lkdGg9IjE0LjY1OTk5OTg0NzQxMjExIiBoZWlnaHQ9IjIwIiB2aWV3Qm94PSIwIDAgMTQuNjU5OTk5ODQ3NDEyMTEgMjAiPiYjeGE7CTxzdHlsZSB0eXBlPSJ0ZXh0L2NzcyI+JiN4YTsJLnN0MHtmaWxsOiM0Mjg1ZjQ7fSYjeGE7CS5zdDF7ZmlsbDojNjY5ZGY2O30mI3hhOwkuc3Qye2ZpbGw6I2FlY2JmYTt9JiN4YTsJPC9zdHlsZT4mI3hhOwk8c3R5bGU+JiN4YTsJCS5Ee2ZpbGwtcnVsZTpldmVub2RkfSYjeGE7CTwvc3R5bGU+JiN4YTsJPHBhdGggZD0iTTcuMzMgMTUuMzV2LTMuMDFMMCA4LjQ0djMuMDF6bTAgNC42NXYtMy4wMUwwIDEzLjA5djMuMDF6IiBjbGFzcz0ic3QyIEQiLz4mI3hhOwk8cGF0aCBkPSJNMTQuNjYgOC40NGwtNy4zMyAzLjl2My4wMWw3LjMzLTMuOXptMCA0LjY1bC03LjMzIDMuOVYyMGw3LjMzLTMuOXoiIGNsYXNzPSJzdDEgRCIvPiYjeGE7CTxwYXRoIGQ9Ik03LjMzIDB2My4wMWw3LjMzIDMuOVYzLjl6IiBjbGFzcz0ic3QwIEQiLz4mI3hhOwk8cGF0aCBkPSJNMCA2LjkxbDcuMzMtMy45VjBMMCAzLjl6IiBjbGFzcz0iRCBzdDEiLz4mI3hhOwk8cGF0aCBkPSJNNy4zMyAxMC43OVY3Ljc3TDAgMy44N3YzLjAyeiIgY2xhc3M9IkQgc3QyIi8+JiN4YTsJPHBhdGggZD0iTTE0LjY2IDMuODdsLTcuMzMgMy45djMuMDJsNy4zMy0zLjl6IiBjbGFzcz0iRCBzdDEiLz4mI3hhOzwvc3ZnPg==;" parent="WqzGKMTeR1Ja0gjyzSvE-50" vertex="1">
          <mxGeometry width="22" height="30" relative="1" as="geometry">
            <mxPoint x="19" y="15" as="offset" />
          </mxGeometry>
        </mxCell>
        <mxCell id="WqzGKMTeR1Ja0gjyzSvE-52" value="pulp-postgres-TEST-AZ" style="strokeColor=#dddddd;shadow=1;strokeWidth=1;rounded=1;absoluteArcSize=1;arcSize=2;labelPosition=center;verticalLabelPosition=bottom;align=center;verticalAlign=top;" parent="1" vertex="1">
          <mxGeometry x="2894" y="228.62" width="130" height="60" as="geometry" />
        </mxCell>
        <mxCell id="WqzGKMTeR1Ja0gjyzSvE-53" value="&lt;font color=&quot;#000000&quot;&gt;StandBy&lt;/font&gt;&lt;br&gt;Cloud SQL" style="editableCssRules=.*;html=1;fontColor=#999999;shape=image;verticalLabelPosition=middle;verticalAlign=middle;labelPosition=right;align=left;spacingLeft=20;part=1;points=[];imageAspect=0;image=data:image/svg+xml,PHN2ZyB4bWxucz0iaHR0cDovL3d3dy53My5vcmcvMjAwMC9zdmciIHhtbG5zOnY9Imh0dHBzOi8vdmVjdGEuaW8vbmFubyIgd2lkdGg9IjE0LjY1OTk5OTg0NzQxMjExIiBoZWlnaHQ9IjIwIiB2aWV3Qm94PSIwIDAgMTQuNjU5OTk5ODQ3NDEyMTEgMjAiPiYjeGE7CTxzdHlsZSB0eXBlPSJ0ZXh0L2NzcyI+JiN4YTsJLnN0MHtmaWxsOiM0Mjg1ZjQ7fSYjeGE7CS5zdDF7ZmlsbDojNjY5ZGY2O30mI3hhOwkuc3Qye2ZpbGw6I2FlY2JmYTt9JiN4YTsJPC9zdHlsZT4mI3hhOwk8c3R5bGU+JiN4YTsJCS5Ee2ZpbGwtcnVsZTpldmVub2RkfSYjeGE7CTwvc3R5bGU+JiN4YTsJPHBhdGggZD0iTTcuMzMgMTUuMzV2LTMuMDFMMCA4LjQ0djMuMDF6bTAgNC42NXYtMy4wMUwwIDEzLjA5djMuMDF6IiBjbGFzcz0ic3QyIEQiLz4mI3hhOwk8cGF0aCBkPSJNMTQuNjYgOC40NGwtNy4zMyAzLjl2My4wMWw3LjMzLTMuOXptMCA0LjY1bC03LjMzIDMuOVYyMGw3LjMzLTMuOXoiIGNsYXNzPSJzdDEgRCIvPiYjeGE7CTxwYXRoIGQ9Ik03LjMzIDB2My4wMWw3LjMzIDMuOVYzLjl6IiBjbGFzcz0ic3QwIEQiLz4mI3hhOwk8cGF0aCBkPSJNMCA2LjkxbDcuMzMtMy45VjBMMCAzLjl6IiBjbGFzcz0iRCBzdDEiLz4mI3hhOwk8cGF0aCBkPSJNNy4zMyAxMC43OVY3Ljc3TDAgMy44N3YzLjAyeiIgY2xhc3M9IkQgc3QyIi8+JiN4YTsJPHBhdGggZD0iTTE0LjY2IDMuODdsLTcuMzMgMy45djMuMDJsNy4zMy0zLjl6IiBjbGFzcz0iRCBzdDEiLz4mI3hhOzwvc3ZnPg==;" parent="WqzGKMTeR1Ja0gjyzSvE-52" vertex="1">
          <mxGeometry width="22" height="30" relative="1" as="geometry">
            <mxPoint x="19" y="15" as="offset" />
          </mxGeometry>
        </mxCell>
        <mxCell id="WqzGKMTeR1Ja0gjyzSvE-54" value="Region Santiago" style="sketch=0;points=[[0,0,0],[0.25,0,0],[0.5,0,0],[0.75,0,0],[1,0,0],[1,0.25,0],[1,0.5,0],[1,0.75,0],[1,1,0],[0.75,1,0],[0.5,1,0],[0.25,1,0],[0,1,0],[0,0.75,0],[0,0.5,0],[0,0.25,0]];rounded=1;absoluteArcSize=1;arcSize=2;html=1;strokeColor=none;gradientColor=none;shadow=0;dashed=0;fontSize=12;fontColor=#9E9E9E;align=left;verticalAlign=top;spacing=10;spacingTop=-4;whiteSpace=wrap;fillColor=#ECEFF1;" parent="1" vertex="1">
          <mxGeometry x="2636" y="393" width="438" height="221" as="geometry" />
        </mxCell>
        <mxCell id="WqzGKMTeR1Ja0gjyzSvE-55" value="Zone B" style="sketch=0;points=[[0,0,0],[0.25,0,0],[0.5,0,0],[0.75,0,0],[1,0,0],[1,0.25,0],[1,0.5,0],[1,0.75,0],[1,1,0],[0.75,1,0],[0.5,1,0],[0.25,1,0],[0,1,0],[0,0.75,0],[0,0.5,0],[0,0.25,0]];rounded=1;absoluteArcSize=1;arcSize=2;html=1;strokeColor=none;shadow=0;dashed=0;fontSize=12;align=left;verticalAlign=top;spacing=10;spacingTop=-4;whiteSpace=wrap;fillColor=#ffe6cc;" parent="1" vertex="1">
          <mxGeometry x="2869" y="440" width="180" height="127" as="geometry" />
        </mxCell>
        <mxCell id="WqzGKMTeR1Ja0gjyzSvE-56" value="Zone A" style="sketch=0;points=[[0,0,0],[0.25,0,0],[0.5,0,0],[0.75,0,0],[1,0,0],[1,0.25,0],[1,0.5,0],[1,0.75,0],[1,1,0],[0.75,1,0],[0.5,1,0],[0.25,1,0],[0,1,0],[0,0.75,0],[0,0.5,0],[0,0.25,0]];rounded=1;absoluteArcSize=1;arcSize=2;html=1;strokeColor=none;gradientColor=none;shadow=0;dashed=0;fontSize=12;fontColor=#9E9E9E;align=left;verticalAlign=top;spacing=10;spacingTop=-4;whiteSpace=wrap;fillColor=#FFF3E0;" parent="1" vertex="1">
          <mxGeometry x="2664" y="440" width="180" height="127" as="geometry" />
        </mxCell>
        <mxCell id="WqzGKMTeR1Ja0gjyzSvE-57" value="pulp-postgres-TEST-RR" style="strokeColor=#dddddd;shadow=1;strokeWidth=1;rounded=1;absoluteArcSize=1;arcSize=2;labelPosition=center;verticalLabelPosition=bottom;align=center;verticalAlign=top;" parent="1" vertex="1">
          <mxGeometry x="2689" y="476.75" width="130" height="60" as="geometry" />
        </mxCell>
        <mxCell id="WqzGKMTeR1Ja0gjyzSvE-58" value="&lt;font color=&quot;#000000&quot;&gt;Primary&lt;/font&gt;&lt;br&gt;Cloud SQL" style="editableCssRules=.*;html=1;fontColor=#999999;shape=image;verticalLabelPosition=middle;verticalAlign=middle;labelPosition=right;align=left;spacingLeft=20;part=1;points=[];imageAspect=0;image=data:image/svg+xml,PHN2ZyB4bWxucz0iaHR0cDovL3d3dy53My5vcmcvMjAwMC9zdmciIHhtbG5zOnY9Imh0dHBzOi8vdmVjdGEuaW8vbmFubyIgd2lkdGg9IjE0LjY1OTk5OTg0NzQxMjExIiBoZWlnaHQ9IjIwIiB2aWV3Qm94PSIwIDAgMTQuNjU5OTk5ODQ3NDEyMTEgMjAiPiYjeGE7CTxzdHlsZSB0eXBlPSJ0ZXh0L2NzcyI+JiN4YTsJLnN0MHtmaWxsOiM0Mjg1ZjQ7fSYjeGE7CS5zdDF7ZmlsbDojNjY5ZGY2O30mI3hhOwkuc3Qye2ZpbGw6I2FlY2JmYTt9JiN4YTsJPC9zdHlsZT4mI3hhOwk8c3R5bGU+JiN4YTsJCS5Ee2ZpbGwtcnVsZTpldmVub2RkfSYjeGE7CTwvc3R5bGU+JiN4YTsJPHBhdGggZD0iTTcuMzMgMTUuMzV2LTMuMDFMMCA4LjQ0djMuMDF6bTAgNC42NXYtMy4wMUwwIDEzLjA5djMuMDF6IiBjbGFzcz0ic3QyIEQiLz4mI3hhOwk8cGF0aCBkPSJNMTQuNjYgOC40NGwtNy4zMyAzLjl2My4wMWw3LjMzLTMuOXptMCA0LjY1bC03LjMzIDMuOVYyMGw3LjMzLTMuOXoiIGNsYXNzPSJzdDEgRCIvPiYjeGE7CTxwYXRoIGQ9Ik03LjMzIDB2My4wMWw3LjMzIDMuOVYzLjl6IiBjbGFzcz0ic3QwIEQiLz4mI3hhOwk8cGF0aCBkPSJNMCA2LjkxbDcuMzMtMy45VjBMMCAzLjl6IiBjbGFzcz0iRCBzdDEiLz4mI3hhOwk8cGF0aCBkPSJNNy4zMyAxMC43OVY3Ljc3TDAgMy44N3YzLjAyeiIgY2xhc3M9IkQgc3QyIi8+JiN4YTsJPHBhdGggZD0iTTE0LjY2IDMuODdsLTcuMzMgMy45djMuMDJsNy4zMy0zLjl6IiBjbGFzcz0iRCBzdDEiLz4mI3hhOzwvc3ZnPg==;" parent="WqzGKMTeR1Ja0gjyzSvE-57" vertex="1">
          <mxGeometry width="22" height="30" relative="1" as="geometry">
            <mxPoint x="19" y="15" as="offset" />
          </mxGeometry>
        </mxCell>
        <mxCell id="WqzGKMTeR1Ja0gjyzSvE-59" value="pulp-postgres-TEST-RR-AZ" style="strokeColor=#dddddd;shadow=1;strokeWidth=1;rounded=1;absoluteArcSize=1;arcSize=2;labelPosition=center;verticalLabelPosition=bottom;align=center;verticalAlign=top;" parent="1" vertex="1">
          <mxGeometry x="2894" y="473.62" width="130" height="60" as="geometry" />
        </mxCell>
        <mxCell id="WqzGKMTeR1Ja0gjyzSvE-60" value="&lt;font color=&quot;#000000&quot;&gt;StandBy&lt;/font&gt;&lt;br&gt;Cloud SQL" style="editableCssRules=.*;html=1;fontColor=#999999;shape=image;verticalLabelPosition=middle;verticalAlign=middle;labelPosition=right;align=left;spacingLeft=20;part=1;points=[];imageAspect=0;image=data:image/svg+xml,PHN2ZyB4bWxucz0iaHR0cDovL3d3dy53My5vcmcvMjAwMC9zdmciIHhtbG5zOnY9Imh0dHBzOi8vdmVjdGEuaW8vbmFubyIgd2lkdGg9IjE0LjY1OTk5OTg0NzQxMjExIiBoZWlnaHQ9IjIwIiB2aWV3Qm94PSIwIDAgMTQuNjU5OTk5ODQ3NDEyMTEgMjAiPiYjeGE7CTxzdHlsZSB0eXBlPSJ0ZXh0L2NzcyI+JiN4YTsJLnN0MHtmaWxsOiM0Mjg1ZjQ7fSYjeGE7CS5zdDF7ZmlsbDojNjY5ZGY2O30mI3hhOwkuc3Qye2ZpbGw6I2FlY2JmYTt9JiN4YTsJPC9zdHlsZT4mI3hhOwk8c3R5bGU+JiN4YTsJCS5Ee2ZpbGwtcnVsZTpldmVub2RkfSYjeGE7CTwvc3R5bGU+JiN4YTsJPHBhdGggZD0iTTcuMzMgMTUuMzV2LTMuMDFMMCA4LjQ0djMuMDF6bTAgNC42NXYtMy4wMUwwIDEzLjA5djMuMDF6IiBjbGFzcz0ic3QyIEQiLz4mI3hhOwk8cGF0aCBkPSJNMTQuNjYgOC40NGwtNy4zMyAzLjl2My4wMWw3LjMzLTMuOXptMCA0LjY1bC03LjMzIDMuOVYyMGw3LjMzLTMuOXoiIGNsYXNzPSJzdDEgRCIvPiYjeGE7CTxwYXRoIGQ9Ik03LjMzIDB2My4wMWw3LjMzIDMuOVYzLjl6IiBjbGFzcz0ic3QwIEQiLz4mI3hhOwk8cGF0aCBkPSJNMCA2LjkxbDcuMzMtMy45VjBMMCAzLjl6IiBjbGFzcz0iRCBzdDEiLz4mI3hhOwk8cGF0aCBkPSJNNy4zMyAxMC43OVY3Ljc3TDAgMy44N3YzLjAyeiIgY2xhc3M9IkQgc3QyIi8+JiN4YTsJPHBhdGggZD0iTTE0LjY2IDMuODdsLTcuMzMgMy45djMuMDJsNy4zMy0zLjl6IiBjbGFzcz0iRCBzdDEiLz4mI3hhOzwvc3ZnPg==;" parent="WqzGKMTeR1Ja0gjyzSvE-59" vertex="1">
          <mxGeometry width="22" height="30" relative="1" as="geometry">
            <mxPoint x="19" y="15" as="offset" />
          </mxGeometry>
        </mxCell>
        <mxCell id="WiFk0VLU-a0-PrsS2nk8-5" value="&lt;span style=&quot;background-color: rgb(213, 232, 212);&quot;&gt;CODE&lt;/span&gt;" style="edgeStyle=orthogonalEdgeStyle;rounded=0;orthogonalLoop=1;jettySize=auto;html=1;" edge="1" parent="1" source="WiFk0VLU-a0-PrsS2nk8-1" target="WiFk0VLU-a0-PrsS2nk8-4">
          <mxGeometry relative="1" as="geometry" />
        </mxCell>
        <mxCell id="WiFk0VLU-a0-PrsS2nk8-19" style="edgeStyle=orthogonalEdgeStyle;rounded=0;orthogonalLoop=1;jettySize=auto;html=1;dashed=1;" edge="1" parent="1" source="WiFk0VLU-a0-PrsS2nk8-1" target="WiFk0VLU-a0-PrsS2nk8-18">
          <mxGeometry relative="1" as="geometry" />
        </mxCell>
        <mxCell id="WiFk0VLU-a0-PrsS2nk8-1" value="Cloud&#xa;Functions" style="sketch=0;html=1;verticalAlign=bottom;labelPosition=center;verticalLabelPosition=top;align=center;spacingTop=-6;fontSize=11;fontStyle=1;fontColor=#1A1A1A;shape=image;aspect=fixed;imageAspect=0;image=data:image/svg+xml,PHN2ZyB4bWxucz0iaHR0cDovL3d3dy53My5vcmcvMjAwMC9zdmciIHhtbG5zOnY9Imh0dHBzOi8vdmVjdGEuaW8vbmFubyIgd2lkdGg9IjIwIiBoZWlnaHQ9IjE5Ljk4OTk5OTc3MTExODE2NCIgdmlld0JveD0iMCAwIDIwIDE5Ljk4OTk5OTc3MTExODE2NCI+JiN4YTsJPHN0eWxlIHR5cGU9InRleHQvY3NzIj4mI3hhOwkuc3Qwe2ZpbGw6IzQyODVmNDt9JiN4YTsJLnN0MXtmaWxsOiM2NjlkZjY7fSYjeGE7CS5zdDJ7ZmlsbDojYWVjYmZhO30mI3hhOwk8L3N0eWxlPiYjeGE7CTxwYXRoIGNsYXNzPSJzdDEiIGQ9Ik0zIDMuOTlMMCA2LjQydjcuMTNsMyAyLjQ0eiIvPiYjeGE7CTxwYXRoIGNsYXNzPSJzdDAiIGQ9Ik0zIDMuOTlsLTMgNCAzLTJ6bS0zIDhsMyA0di0yeiIvPiYjeGE7CTxwYXRoIGNsYXNzPSJzdDIiIGQ9Ik0wIDE1Ljk5bDQgNCAyLTItNi02em0uMDEtOEw1Ljk5IDJsLTItMkwwIDMuOTl6Ii8+JiN4YTsJPHBhdGggY2xhc3M9InN0MSIgZD0iTTE3IDE2bDMtMi40MlY2LjQ0TDE3IDR6Ii8+JiN4YTsJPHBhdGggY2xhc3M9InN0MCIgZD0iTTE3IDE2bDMtNC0zIDJ6bTMtOGwtMy00djJ6Ii8+JiN4YTsJPGcgY2xhc3M9InN0MiI+JiN4YTsJCTxwYXRoIGQ9Ik0yMCA0bC00LTQtMiAyIDYgNnptLS4wMSA4bC01Ljk4IDUuOTkgMiAyTDIwIDE2eiIvPiYjeGE7CQk8Y2lyY2xlIGN4PSI2IiBjeT0iOS45OSIgcj0iMSIvPiYjeGE7CQk8Y2lyY2xlIGN4PSIxMCIgY3k9IjkuOTkiIHI9IjEiLz4mI3hhOwkJPGNpcmNsZSBjeD0iMTMuOTkiIGN5PSI5Ljk5IiByPSIxIi8+JiN4YTsJPC9nPiYjeGE7PC9zdmc+;" vertex="1" parent="1">
          <mxGeometry x="3743" y="259.25" width="42" height="34" as="geometry" />
        </mxCell>
        <mxCell id="WiFk0VLU-a0-PrsS2nk8-4" value="Cloud&#xa;Storage" style="sketch=0;html=1;verticalAlign=top;labelPosition=center;verticalLabelPosition=bottom;align=center;spacingTop=-6;fontSize=11;fontStyle=1;fontColor=#1A1A1A;shape=image;aspect=fixed;imageAspect=0;image=data:image/svg+xml,PHN2ZyB4bWxucz0iaHR0cDovL3d3dy53My5vcmcvMjAwMC9zdmciIHhtbG5zOnY9Imh0dHBzOi8vdmVjdGEuaW8vbmFubyIgd2lkdGg9IjIwIiBoZWlnaHQ9IjE2IiB2aWV3Qm94PSIwIDAgMjAgMTYiPiYjeGE7CTxzdHlsZSB0eXBlPSJ0ZXh0L2NzcyI+JiN4YTsJLnN0MHtmaWxsOiM0Mjg1ZjQ7fSYjeGE7CS5zdDF7ZmlsbDojNjY5ZGY2O30mI3hhOwkuc3Qye2ZpbGw6I2FlY2JmYTt9JiN4YTsJLnN0M3tmaWxsOiNmZmY7fSYjeGE7CTwvc3R5bGU+JiN4YTsJPHBhdGggY2xhc3M9InN0MiIgZD0iTTAgMGgyMHY3SDB6Ii8+JiN4YTsJPHBhdGggY2xhc3M9InN0MSIgZD0iTTE4IDBoMnY3aC0yeiIvPiYjeGE7CTxwYXRoIGNsYXNzPSJzdDAiIGQ9Ik0xOCA3bDItN2gtMnoiLz4mI3hhOwk8cGF0aCBjbGFzcz0ic3QxIiBkPSJNMCAwaDJ2N0gweiIvPiYjeGE7CTxnIGNsYXNzPSJzdDMiPiYjeGE7CQk8cGF0aCBkPSJNNCAzaDZ2MUg0eiIvPiYjeGE7CQk8cmVjdCB4PSIxMyIgeT0iMiIgd2lkdGg9IjMiIGhlaWdodD0iMyIgcng9IjEuNSIvPiYjeGE7CTwvZz4mI3hhOwk8cGF0aCBjbGFzcz0ic3QyIiBkPSJNMCA5aDIwdjdIMHoiLz4mI3hhOwk8cGF0aCBjbGFzcz0ic3QxIiBkPSJNMTggOWgydjdoLTJ6Ii8+JiN4YTsJPHBhdGggY2xhc3M9InN0MCIgZD0iTTE4IDE2bDItN2gtMnoiLz4mI3hhOwk8cGF0aCBjbGFzcz0ic3QxIiBkPSJNMCA5aDJ2N0gweiIvPiYjeGE7CTxnIGNsYXNzPSJzdDMiPiYjeGE7CQk8cGF0aCBkPSJNNCAxMmg2djFINHoiLz4mI3hhOwkJPHJlY3QgeD0iMTMiIHk9IjExIiB3aWR0aD0iMyIgaGVpZ2h0PSIzIiByeD0iMS41Ii8+JiN4YTsJPC9nPiYjeGE7PC9zdmc+;" vertex="1" parent="1">
          <mxGeometry x="3743" y="384.25" width="42" height="34" as="geometry" />
        </mxCell>
        <mxCell id="WiFk0VLU-a0-PrsS2nk8-9" value="REPO" style="swimlane;fontStyle=0;childLayout=stackLayout;horizontal=1;startSize=26;fillColor=none;horizontalStack=0;resizeParent=1;resizeParentMax=0;resizeLast=0;collapsible=1;marginBottom=0;html=1;" vertex="1" parent="1">
          <mxGeometry x="3373" y="330.5" width="140" height="104" as="geometry" />
        </mxCell>
        <mxCell id="WiFk0VLU-a0-PrsS2nk8-10" value="CODE" style="text;strokeColor=none;fillColor=none;align=left;verticalAlign=top;spacingLeft=4;spacingRight=4;overflow=hidden;rotatable=0;points=[[0,0.5],[1,0.5]];portConstraint=eastwest;whiteSpace=wrap;html=1;" vertex="1" parent="WiFk0VLU-a0-PrsS2nk8-9">
          <mxGeometry y="26" width="140" height="26" as="geometry" />
        </mxCell>
        <mxCell id="WiFk0VLU-a0-PrsS2nk8-11" value="CICD-FILE" style="text;strokeColor=none;fillColor=none;align=left;verticalAlign=top;spacingLeft=4;spacingRight=4;overflow=hidden;rotatable=0;points=[[0,0.5],[1,0.5]];portConstraint=eastwest;whiteSpace=wrap;html=1;" vertex="1" parent="WiFk0VLU-a0-PrsS2nk8-9">
          <mxGeometry y="52" width="140" height="26" as="geometry" />
        </mxCell>
        <mxCell id="WiFk0VLU-a0-PrsS2nk8-12" value="RUN-DEPLOY.SH" style="text;strokeColor=none;fillColor=none;align=left;verticalAlign=top;spacingLeft=4;spacingRight=4;overflow=hidden;rotatable=0;points=[[0,0.5],[1,0.5]];portConstraint=eastwest;whiteSpace=wrap;html=1;" vertex="1" parent="WiFk0VLU-a0-PrsS2nk8-9">
          <mxGeometry y="78" width="140" height="26" as="geometry" />
        </mxCell>
        <mxCell id="WiFk0VLU-a0-PrsS2nk8-16" value="&lt;h1&gt;&lt;font style=&quot;font-size: 16px;&quot;&gt;Deploy&lt;/font&gt;&lt;/h1&gt;&lt;div&gt;&lt;font style=&quot;font-size: 14px;&quot;&gt;Al realizarse el despliegue, se actualiza la función con el cÓdigo y este almacena el código que va a utilizar en un bucket especifico (ya creado en MultiRegion)&lt;/font&gt;&lt;/div&gt;" style="text;html=1;strokeColor=none;fillColor=none;spacing=5;spacingTop=-20;whiteSpace=wrap;overflow=hidden;rounded=0;" vertex="1" parent="1">
          <mxGeometry x="3650.5" y="64.88" width="227" height="120" as="geometry" />
        </mxCell>
        <mxCell id="WiFk0VLU-a0-PrsS2nk8-18" value="OLD Cloud&lt;br&gt;Storage" style="sketch=0;html=1;verticalAlign=top;labelPosition=center;verticalLabelPosition=bottom;align=center;spacingTop=-6;fontSize=11;fontStyle=1;fontColor=#1A1A1A;shape=image;aspect=fixed;imageAspect=0;image=data:image/svg+xml,PHN2ZyB4bWxucz0iaHR0cDovL3d3dy53My5vcmcvMjAwMC9zdmciIHhtbG5zOnY9Imh0dHBzOi8vdmVjdGEuaW8vbmFubyIgd2lkdGg9IjIwIiBoZWlnaHQ9IjE2IiB2aWV3Qm94PSIwIDAgMjAgMTYiPiYjeGE7CTxzdHlsZSB0eXBlPSJ0ZXh0L2NzcyI+JiN4YTsJLnN0MHtmaWxsOiM0Mjg1ZjQ7fSYjeGE7CS5zdDF7ZmlsbDojNjY5ZGY2O30mI3hhOwkuc3Qye2ZpbGw6I2FlY2JmYTt9JiN4YTsJLnN0M3tmaWxsOiNmZmY7fSYjeGE7CTwvc3R5bGU+JiN4YTsJPHBhdGggY2xhc3M9InN0MiIgZD0iTTAgMGgyMHY3SDB6Ii8+JiN4YTsJPHBhdGggY2xhc3M9InN0MSIgZD0iTTE4IDBoMnY3aC0yeiIvPiYjeGE7CTxwYXRoIGNsYXNzPSJzdDAiIGQ9Ik0xOCA3bDItN2gtMnoiLz4mI3hhOwk8cGF0aCBjbGFzcz0ic3QxIiBkPSJNMCAwaDJ2N0gweiIvPiYjeGE7CTxnIGNsYXNzPSJzdDMiPiYjeGE7CQk8cGF0aCBkPSJNNCAzaDZ2MUg0eiIvPiYjeGE7CQk8cmVjdCB4PSIxMyIgeT0iMiIgd2lkdGg9IjMiIGhlaWdodD0iMyIgcng9IjEuNSIvPiYjeGE7CTwvZz4mI3hhOwk8cGF0aCBjbGFzcz0ic3QyIiBkPSJNMCA5aDIwdjdIMHoiLz4mI3hhOwk8cGF0aCBjbGFzcz0ic3QxIiBkPSJNMTggOWgydjdoLTJ6Ii8+JiN4YTsJPHBhdGggY2xhc3M9InN0MCIgZD0iTTE4IDE2bDItN2gtMnoiLz4mI3hhOwk8cGF0aCBjbGFzcz0ic3QxIiBkPSJNMCA5aDJ2N0gweiIvPiYjeGE7CTxnIGNsYXNzPSJzdDMiPiYjeGE7CQk8cGF0aCBkPSJNNCAxMmg2djFINHoiLz4mI3hhOwkJPHJlY3QgeD0iMTMiIHk9IjExIiB3aWR0aD0iMyIgaGVpZ2h0PSIzIiByeD0iMS41Ii8+JiN4YTsJPC9nPiYjeGE7PC9zdmc+;dashed=1;" vertex="1" parent="1">
          <mxGeometry x="4048" y="259.5" width="42" height="34" as="geometry" />
        </mxCell>
        <UserObject label="Anteriormente la función creaba un bucket por defecto y almacenaba el código en dicho bucket, posterior a los cambios ya se puede eliminar dicho bucket" placeholders="1" id="WiFk0VLU-a0-PrsS2nk8-20">
          <mxCell style="text;html=1;strokeColor=none;fillColor=none;align=center;verticalAlign=middle;whiteSpace=wrap;overflow=hidden;" vertex="1" parent="1">
            <mxGeometry x="3989" y="151.45" width="160" height="102.55" as="geometry" />
          </mxCell>
        </UserObject>
        <mxCell id="WiFk0VLU-a0-PrsS2nk8-23" value="" style="shape=image;verticalLabelPosition=bottom;labelBackgroundColor=default;verticalAlign=top;aspect=fixed;imageAspect=0;image=data:image/png,iVBORw0KGgoAAAANSUhEUgAABcoAAADYCAYAAADbLNB6AAAMOmlDQ1BJQ0MgUHJvZmlsZQAASImVVwdYU8kWnltSSWiBCEgJvQkivUgJoUUQkCrYCEmAUGIIBBE7uqjg2sUCNnRVxLYWQNaK2FkEe18UUVDWxYINy5sU0GVf+d5839z57z9n/nPm3Ln3zgCgcYonkWSjmgDkiPOlMaGBrPFJySxSF0AAGTDACODA4+dJ2NHREQCWgfbv5d1NaA3LNQe51j/7/2vREgjz+AAg0RCnCvL4ORAfBgCv5Euk+QAQ5bz5tHyJHMMKdKQwQIgXyXG6ElfKcaoSH1DYxMVwIG4CgEzj8aTpAKi3Qp5VwE+HGuq9EDuJBSIxABosiP1ycqYKIE6B2AbaSCCW63um/qCT/jfN1EFNHi99ECvnoijkIFGeJJs3/f9Mx/8uOdmyAR9WsNIypGEx8jnDvN3OmhouxzSIe8SpkVEQa0P8QSRQ2EOMUjNkYfFKe9SQn8eBOQNMiJ0EvKBwiA0hDhFnR0ao+NQ0UQgXYrhC0EJRPjcOYj2IFwnzgmNVNlukU2NUvtDaNCmHreIv8KQKv3JfD2VZ8WyV/usMIVelj6kXZcQlQkyF2KJAlBAJsTrEjnlZseEqm9FFGZzIARupLEYevwXEMUJxaKBSHytIk4bEqOxLc/IG5ottyRBxI1X4YH5GXJgyP1gTn6eIH84FaxWK2fEDOsK88REDcxEIg4KVc8e6hOL4WJXOB0l+YIxyLE6VZEer7HEzYXaonDeD2DWvIFY1Fk/IhwtSqY+nSfKj45Rx4kWZvDHRynjw5SACcEAQYAEZrKlgKsgEopaeuh54p+wJATwgBelACBxUzMCIREWPGF5jQRH4EyIhyBscF6joFYICyH8ZZJVXB5Cm6C1QjMgCTyHOAeEgG97LFKPEg94SwBPIiP7hnQcrH8abDau8/9/zA+x3hg2ZCBUjG/DI0hiwJAYTg4hhxBCiLW6A++E+eAS8BsDqjHviXgPz+G5PeEpoIzwm3CC0E+5MERVLh0Q5FrRD/RBVLlJ/zAVuBTXd8EDcF6pDZZyJGwAH3BX6YeP+0LMbZDmquOVZYQ3R/tsMfngaKjuKEwWlDKMEUGyGjlS3U3cbVJHn+sf8KGNNHcw3Z7BnqH/OD9kXwDZ8qCW2CDuEncdOYxexY1gdYGEnsXqsGTsux4Or64lidQ14i1HEkwV1RP/wN/Bk5ZnMc6px6nb6rOzLFxbKv9GAM1UyXSpKz8hnseEfQcjiivmOI1jOTs6uAMj/L8rP1xum4r+BMC9953JPAeBVCsn07xzPHICjTwFgvPvOmb+Gr81yAI638mXSAiWHyy8E+JXQgG+aPjAG5sAGzscZuAMfEACCwRgQBeJAEpgMo8+A61wKpoGZYB4oAWVgOVgDNoDNYBvYBfaCg6AOHAOnwTlwGbSCG+AeXD2d4AXoBe9AP4IgJISOMBB9xASxROwRZ8QT8UOCkQgkBklCUpB0RIzIkJnIfKQMWYlsQLYi1civyFHkNHIRaUPuII+QbuQ18gnFUBqqgxqhVuhI1BNlo+FoHDoJTUdz0SJ0AboUXYdWoXvQWvQ0ehm9gbajL9A+DGBqGBMzxRwwT4yDRWHJWBomxWZjpVg5VoXtwxrgc76GtWM92EeciDNwFu4AV3AYHo/z8Vx8Nr4E34DvwmvxJvwa/gjvxb8S6ARDgj3Bm8AljCekE6YRSgjlhB2EI4Sz8F3qJLwjEolMojXRA76LScRM4gziEuJG4n7iKWIbsYPYRyKR9En2JF9SFIlHyieVkNaT9pBOkq6SOkkfyGpkE7IzOYScTBaTi8nl5N3kE+Sr5GfkfoomxZLiTYmiCCjTKcso2ykNlCuUTko/VYtqTfWlxlEzqfOo66j7qGep96lv1NTUzNS81MapidTmqq1TO6B2Qe2R2keaNs2OxqFNpMloS2k7aadod2hv6HS6FT2AnkzPpy+lV9PP0B/SP6gz1B3VueoC9TnqFeq16lfVX2pQNCw12BqTNYo0yjUOaVzR6NGkaFppcjR5mrM1KzSPat7S7NNiaI3SitLK0VqitVvrolaXNknbSjtYW6C9QHub9hntDgbGMGdwGHzGfMZ2xllGpw5Rx1qHq5OpU6azV6dFp1dXW9dVN0G3ULdC97huOxNjWjG5zGzmMuZB5k3mp2FGw9jDhMMWD9s37Oqw93rD9QL0hHqlevv1buh90mfpB+tn6a/Qr9N/YIAb2BmMM5hmsMngrEHPcJ3hPsP5w0uHHxx+1xA1tDOMMZxhuM2w2bDPyNgo1EhitN7ojFGPMdM4wDjTeLXxCeNuE4aJn4nIZLXJSZPnLF0Wm5XNWsdqYvWaGpqGmcpMt5q2mPabWZvFmxWb7Td7YE419zRPM19t3mjea2FiMdZipkWNxV1LiqWnZYblWsvzlu+trK0SrRZa1Vl1WetZc62LrGus79vQbfxtcm2qbK7bEm09bbNsN9q22qF2bnYZdhV2V+xRe3d7kf1G+7YRhBFeI8QjqkbccqA5sB0KHGocHjkyHSMcix3rHF+OtBiZPHLFyPMjvzq5OWU7bXe6N0p71JhRxaMaRr12tnPmO1c4X3ehu4S4zHGpd3nlau8qdN3ketuN4TbWbaFbo9sXdw93qfs+924PC48Uj0qPW546ntGeSzwveBG8Ar3meB3z+ujt7p3vfdD7Lx8Hnyyf3T5do61HC0dvH93ha+bL893q2+7H8kvx2+LX7m/qz/Ov8n8cYB4gCNgR8Ixty85k72G/DHQKlAYeCXzP8ebM4pwKwoJCg0qDWoK1g+ODNwQ/DDELSQ+pCekNdQudEXoqjBAWHrYi7BbXiMvnVnN7x3iMmTWmKZwWHhu+IfxxhF2ENKJhLDp2zNhVY+9HWkaKI+uiQBQ3alXUg2jr6Nzo38YRx0WPqxj3NGZUzMyY87GM2Cmxu2PfxQXGLYu7F28TL4tvTNBImJhQnfA+MShxZWL7+JHjZ42/nGSQJEqqTyYlJyTvSO6bEDxhzYTOiW4TSybenGQ9qXDSxckGk7MnH5+iMYU35VAKISUxZXfKZ14Ur4rXl8pNrUzt5XP4a/kvBAGC1YJuoa9wpfBZmm/ayrSudN/0VendGf4Z5Rk9Io5og+hVZljm5sz3WVFZO7O+ZSdm788h56TkHBVri7PETVONpxZObZPYS0ok7bneuWtye6Xh0h15SN6kvPp8HbiRb5bZyH6SPSrwK6go+DAtYdqhQq1CcWHzdLvpi6c/Kwop+mUGPoM/o3Gm6cx5Mx/NYs/aOhuZnTq7cY75nAVzOueGzt01jzova97vxU7FK4vfzk+c37DAaMHcBR0/hf5UU6JeIi25tdBn4eZF+CLRopbFLovXL/5aKii9VOZUVl72eQl/yaWfR/287udvS9OWtixzX7ZpOXG5ePnNFf4rdq3UWlm0smPV2FW1q1mrS1e/XTNlzcVy1/LNa6lrZWvb10Wsq19vsX75+s8bMjbcqAis2F9pWLm48v1GwcarmwI27dtstLls86ctoi23t4Zura2yqirfRtxWsO3p9oTt53/x/KV6h8GOsh1fdop3tu+K2dVU7VFdvdtw97IatEZW071n4p7WvUF76/c57Nu6n7m/7AA4IDvw/NeUX28eDD/YeMjz0L7DlocrjzCOlNYitdNre+sy6trrk+rbjo452tjg03DkN8ffdh4zPVZxXPf4shPUEwtOfDtZdLLvlORUz+n00x2NUxrvnRl/5nrTuKaWs+FnL5wLOXfmPPv8yQu+F45d9L549JLnpbrL7pdrm92aj/zu9vuRFveW2iseV+pbvVob2ka3nbjqf/X0taBr565zr1++EXmj7Wb8zdu3Jt5qvy243XUn+86ruwV3++/NvU+4X/pA80H5Q8OHVX/Y/rG/3b39+KOgR82PYx/f6+B3vHiS9+Rz54Kn9Kflz0yeVXc5dx3rDulufT7heecLyYv+npI/tf6sfGnz8vBfAX81947v7XwlffXt9ZI3+m92vnV929gX3ffwXc67/velH/Q/7Pro+fH8p8RPz/qnfSZ9XvfF9kvD1/Cv97/lfPsm4Ul5iq0ABiualgbA650A0JPg3gGez6gTlOc/RUGUZ1YFAv8JK8+IiuIOwM4AAOLnAhAB9yibYLWEmAZb+RY+LgCgLi6DdeCspjhXygsRngO2OMpRa+dLMLQoz5w/xD20BXJVVzC0/RcLkHrD08Y81AAAAIplWElmTU0AKgAAAAgABAEaAAUAAAABAAAAPgEbAAUAAAABAAAARgEoAAMAAAABAAIAAIdpAAQAAAABAAAATgAAAAAAAACQAAAAAQAAAJAAAAABAAOShgAHAAAAEgAAAHigAgAEAAAAAQAABcqgAwAEAAAAAQAAANgAAAAAQVNDSUkAAABTY3JlZW5zaG90BwoNqAAAAAlwSFlzAAAWJQAAFiUBSVIk8AAAAddpVFh0WE1MOmNvbS5hZG9iZS54bXAAAAAAADx4OnhtcG1ldGEgeG1sbnM6eD0iYWRvYmU6bnM6bWV0YS8iIHg6eG1wdGs9IlhNUCBDb3JlIDYuMC4wIj4KICAgPHJkZjpSREYgeG1sbnM6cmRmPSJodHRwOi8vd3d3LnczLm9yZy8xOTk5LzAyLzIyLXJkZi1zeW50YXgtbnMjIj4KICAgICAgPHJkZjpEZXNjcmlwdGlvbiByZGY6YWJvdXQ9IiIKICAgICAgICAgICAgeG1sbnM6ZXhpZj0iaHR0cDovL25zLmFkb2JlLmNvbS9leGlmLzEuMC8iPgogICAgICAgICA8ZXhpZjpQaXhlbFlEaW1lbnNpb24+MjE2PC9leGlmOlBpeGVsWURpbWVuc2lvbj4KICAgICAgICAgPGV4aWY6UGl4ZWxYRGltZW5zaW9uPjE0ODI8L2V4aWY6UGl4ZWxYRGltZW5zaW9uPgogICAgICAgICA8ZXhpZjpVc2VyQ29tbWVudD5TY3JlZW5zaG90PC9leGlmOlVzZXJDb21tZW50PgogICAgICA8L3JkZjpEZXNjcmlwdGlvbj4KICAgPC9yZGY6UkRGPgo8L3g6eG1wbWV0YT4KcfXR4AAAABxpRE9UAAAAAgAAAAAAAABsAAAAKAAAAGwAAABsAABdxkZ3JCoAAEAASURBVHgB7J0JuFXTG8ZXlCFkKJJIpuYkVIiiQQlFCJmiTPnLPGQoIvM8Z0yZZYiMRWUuKpESqUgkmacGw3//Vtax7r77zOfec+857/c8955z9rD22r+999p7v+tb31fln8CMTAREQAREQAREQAREQAREQAREQAREQAREQAREQAREQASKlEAVCeVFeuS12yIgAiIgAiIgAiIgAiIgAiIgAiIgAiIgAiIgAiIgApaAhHKdCCIgAiIgAiIgAiIgAiIgAiIgAiIgAiIgAiIgAiIgAkVNQEJ5UR9+7bwIiIAIiIAIiIAIiIAIiIAIiIAIiIAIiIAIiIAIiECV+fPnK0a5zgMREAEREAEREAEREAEREAEREAEREAEREAEREAEREIGiJSChvGgPvXZcBERABERABERABERABERABERABERABERABERABEQAAlWWL18uj3KdCyIgAiIgAiIgAiJQiQl88cUXtvb16tWrxHuhqouACIiACIiACIiACIiACIhA/ghIKM8fe21ZBERABERABERABHJCQEJ5TjCqEBEQAREQAREQAREQAREQgSImIKG8iA++dl0EREAEREAERKAwCEgoL4zjqL0QAREQAREQAREQAREQARHIHwEJ5fljry2LgAiIgAiIgAiIQE4ISCjPCUYVIgIiIAIiIAIiIAIiIAIiUMQEJJQX8cHXrouACIiACIiACBQGAQnlhXEctRciIAIiIAIiIAIiIAIiIAL5IyChPH/stWUREAEREAEREAERyAkBCeU5wahCREAEREAEREAEREAEREAEipiAhPIiPvjadREQAREQAREQgcIgIKG8MI6j9kIEREAEREAEREAEREAERCB/BCSU54+9tiwCIiACIiACIiACOSEgoTwnGFWICIiACIiACIiACIiACIhAEROQUF7EB1+7LgIiIAIiIAIiUBgEJJQXxnHUXoiACIiACIiACIiACIiACOSPgITy/LHXlkVABERABERABEQgJwQklOcEowoRAREQAREQAREQAREQAREoYgISyov44GvXRUAEREAEREAECoOAhPLCOI7aCxEQAREQAREQAREQAREQgfwRkFCeP/basgiIgAiIgAiIgAjkhICE8pxgVCEiIAIiIAIiIAIiIAIiIAJFTCAroXzhwoXmlVdeMXPmzDErVqwoU4zVqlUzW2+9tenYsaOpW7dumW5LhYuACIiACIiACIhAZSIgobwyHS3VVQREQAREQAREQAREQAREoCISyFgoRyQfNmxYmQvkYWgI5scff7zE8jAY/RYBERABERABEShaAhLKi/bQa8dFQAREQAREQAREQAREQARyRCBjoXzEiBFm1qxZOapGesU0btzYHHnkkemtpKVFQAREQAREQAREoEAJSCgv0AOr3RIBERABERABERABERABESg3AhkL5YMGDSp3b3JHBa/yIUOGuJ/6FAEREAEREAEREIGiJiChvKgPv3ZeBERABERABERABERABEQgBwQyFsoHDhxYYvOXX355id+5/lHe28t1/VWeCIiACIiACIiACJQVAQnlZUVW5YqACIiACIiACIiACIiACBQLAQnlxXKktZ8iIAIiIAIiIAIFS0BCecEeWu2YCIiACIiACIiACIiACIhAORGQUF5OoLWZyk9g2bJldidWX331yr8z2gMREAEREIGCIiChvKAOp3ZGBERABERABERABERABEQgDwQklOcBujZZ+QisWLHC9OjRw1Z89OjRhjj5MhEQAREQARGoKAQklFeUI6F6iIAIiIAIiIAIiIAIiIAIVFYCEsor65FTvcuNgBPJx40bZ7fZqVMnI7G83PBrQyIgAiIgAikQkFCeAiQtIgIiIAIiIAIiIAIiIAIiIAIJCEgoTwBHs0QgLJI7IhLLHQl9ioAIiIAIVAQCEsorwlFQHURABERABERABERABERABCozAQnllfnoqe5lSiCeSO42KrHckdCnCIiACIhAvglIKM/3EdD2RUAEREAEREAEREAEREAEKjsBCeWV+Aj++eef5tdff7V7QMzstdZaK+7e/P7772b58uV2/tprr22qVq0ad1nNMCaZSO4YSSx3JPQpAiIgAiKQTwIVXSj/7rvvzLx58wzPI9tss42pU6dOPnFVyG0/++yz5oADDrB1O+uss8zQoUMrZD1VKREQgeIj8OOPP9qdrlKlill33XULHsD7779vpk6darp3725q1apV8PurHRSBTAmgR6FLYeuss45ZddVVMy2qUqzH/j799NOmXr16pl27dpWizqpk+gQklKfPrMKs8eqrr5quXbva+tSoUcN88MEHZpNNNoms3yGHHGKefPJJO++FF14wHTt2jFxOE1MXyR0rieWOhD5FQAREQATyRaCiCuUTJkwwV155pXnllVdKoFlvvfXMaaedZv/WWGONEvOK9YeE8mI98tpvEajYBP766y+z5ppr2koihNHxWcj29ddfmy233NKw37wz8+4sEwERiCawxx57mDfffNPOnDRpkmnZsmX0ggUydcCAAeaOO+6we8Mz7i677FIge6bd8AlIKPdpVLLvvlBO1Xv06GEef/zxyL2QUB6JpdTEVD3JwytKLA8T0W8REAEREIHyJFARhfKbbrrJnH322ebvv/+OiwLvcl6wEM4rmv3yyy/Wm5B6NW3a1Nxyyy1lWkUJ5WWKV4WLgAhkSKAQhfKbb7455kR21VVXmVatWsXoLFy40Gy11Vb23oXH6Lhx42LzKsKX119/3QwaNMhW5bDDDjP9+vWrCNVSHYqUQKEJ5cme/fr372/uvvtue7THjh1r2rdvX6RHvrB3W0J5JT6+YaGcXcFrfJ999im1VxLKSyEpNQGRvGfPnuall14qMW/PPfc0L7/8ctJpXbp0sfwJgyMTAREQAREQgfIkUNGE8hdffDEmMq+yyirmjDPOMNxPCbkye/Zsc8UVV5h3333XItpvv/3MY489Vp64UtrWDz/8YGrXrm2X3Wmnncxrr72W0nqZLiShPFNyWk8ERKAsCRSiUH766afHOj+fe+4507lz5xII33nnHTNlyhT7bljRQoWNHj3aHHTQQba+55xzjrnkkktK1F0/RKA8CRSaUJ7s2Y8wVKNGjTKbbbaZQf+RFSYBCeWV+LhGCeWbbrqpDcFCHHLfJJT7NEp/j+dJTg/hmDFjbLwtfy16GumQmDhxoj/ZyLO8BA79EAEREAERKCcCFUkoR1Rp2LChcXV66KGHzIEHHliCxB9//GG2335789lnn9npb7zxhmndunWJZfL9I9nLUq7rJ6E810RVngiIQC4IFKNQngtuZVWGhPKyIqtyMyFQbEJ5Joy0TuUjIKG88h2zWI2jhHJmnnzyyebaa6+NLceXZEL5nDlzzAMPPGCmTZtmZs2aZTbaaCOz7bbbWg8whp75NnLkSPPMM8/YSTfeeKMh2QkvwdOnTzcbbLCB2XnnnW3MUbywFi1aZBjaRryqL7/80ibwOuqoo0q9MLvyly5dau6//37bSzd//nwbc7158+bmhBNOMM2aNXOL5fQzmUi++uqrm9VWW63ENkmMumzZMonlJajohwiIgAiIQL4IOFGa5EL5tvHjx8e8bHbccUfz1ltvRVbp+uuvN3jDYXjEue8DBw40PJeQpPz22283gwcPtjHO8d4hgZKzTJ4ZiCeJIM3zDs8lm2++udl1113NqaeeGktQ99VXX5lTTjnFJqfC0xDj+Wa33Xaz3x999FGDl7wznnVuu+02w3PZN998Y591iNGJFz3rhQ3Riecn6vLJJ5/YToVevXrZTnnXoaBknmFq+i0CIpAvAtkI5f/8849tt0eMGGE+/fRTm+iPdzo8uHknJDlolM2dO9e2q+Tg4p2wfv36pk2bNrZdjQrVxXZ4l6XTlfb9t99+s+FTGLHEdlyCwRtuuMGG+/rwww8N28CIMbzhhhva99ODDz7YxmDn3RPjffjCCy+03/1/jIgaNmyYfQ/GgapJkyaG+x33jrDDGt7p7t38f//7n92X6667zrz33nsG79TGjRvb+58f/sXflvtOmIc777zTEEN98uTJdjLhy9g2ZfTu3TtWV3hdffXVblX7uXjxYnPSSSfZ7yQo5f5KwtLLL7/cTiP2MiOjuZ/xfk/SVup05plnxs2Dlu79r0SF9KMgCGQjlKdzHTlYXOvDhw+3z1y0DzyPcf736dPHjlx0y/mfuXz2Iz65y7vDs2ujRo38TZkFCxbYGOY4VHJ9bLHFFrYdQaPjuvTt559/Nn379rWTOnToYPfhmmuusc/NOJKgwx1++OGGEEuy8iUgobx8eed0a75Qvvvuu9ubPS/KPAjwkLDDDjvEtpdIKCeuOQ8D3OTDxs0SEZz4587OPfdcw80d22uvvSITnLRo0cIOZ+Oidi/vbn0+hwwZYijHNwRrMou7hsefR6IvHmyOOeYYf3LW31MRydlIlFDOdInlUJCJgAiIgAjkm4C711YEoRyRFyEY43kBYSDKEIl5Icd4bjj66KPtdzrcGfLOMwjiNM872NZbb21mzpxpv6f7zIDQg+COcMBLVtgQSYiVzksM9UrUOY83vBNdiGXbtm1bg7getrp165pHHnnEijtuHs9aPJMheISNFz2cFTAJ5WE6+i0CIpAvAtkI5XQY4jQVZby/4iAVDm3y8MMP2/tG1Lspzlx4VPvvuSQX5f5ByK8o455Cm8v7HKJTvFBf5513nrnoootse+4ELcSrcLlPPfWUOfTQQyPzb7AeTmWI+s4IjUq7j9EZSmdyOCEq9xSShsIknt11110xoTu8DPchQoXyDEDZiIc8F8DLGayPPfZY+5O45tx/n3/+eUNnAkYZCPDcX33j+LDPjALzLd37n7+uvhcOgUyF8nSvI4h9++23VkyOeoZifp9ALKczyVlZPPuhm9177712E1zLXDfOcPIgIgH1DBvOHzwTu2dd5i9ZsiTWCUU7RQcf4n/YeH49//zzw5P1uwwJSCgvQ7hlXbQvlO+9997muOOOiwnaeDLhweVe5OIJ5f7LYM2aNW0yEHrO8bZCQKdxodf+448/jnlF+UI5+0jjyIssPfM8SPAC6QyBu2vXrjYJFl5Z9E5jNBT0kvmeVjQaDz74oJ1PvCdimdITxw38zz//tC/MNBxhD3e7Qob/iO/Gw5Zv7A/TqLuzeEI58/FooyOBhtK3RMlV/eX0XQREQAREQASyJVCRhHL/3hovd0qi/XVCub8MoeXwynGd6ek+M5B4iQRMGII06+MthwciidEwPMt5tiLkCk4CvLBccMEFdh6e53idY5SDF+RPP/1kRY2PPvrIPm9RJt59TzzxRMzbD3GfZ5eqVavadSmPxHEYz114ANaoUcM+P9E54AwPvssuu8z91KcIiIAI5I1ApkI5HZNO3OH9DQcq3qloI/H6xnhPdCOV+T1jxgzrxcw2GdWLoMtoIsRtvJ8xysIT1XluH3HEEYaRPhie6niF48mJ1ynCFUY9EJvIRcU07k2u7T/++OOtVyge4QjcdHzGE8rJVcF7N85S66yzjvUGpX68BxKuE0NYZqS183z3hXLmI2bjHIaYTaxj19GaLBcG9xo8Y7mn3HfffRRlw35SH7ZJri06pp1QiOer72Tm35sR1XcPRHlfKKc87lmEF11zzTXtcUIrwBjhjQe8GwGQyf3PFqR/BUcgE6E8k+sIcDwzcc1gjHbgnOd65vr/9ddf7fRbb7011iFUFs9+8YRy2hyS/zIChuuEutKmoKMhrNMBxTWPvuU60nyhnMrTptA20P6gxznRPEo7szurf2VGQEJ5maEt+4LDQjm9cn7jwYuYe6mLJ5QPHTo09iLGEGjEdmcIvfRsYwjHeI9jvlDOUBGGbTnzGyOmMczO9aDzm0bBPRi5GzTT/QcIbvbsizO27RKWsH889OTKyGLOfrqecxeTnAcz3xIJ5SwX9ixHZKejQQkefIr6LgIiIAIiUFYEKpJQzosCQ80xQq/ReZ+O+UI5HfGI2b7HYSbPDIgxiCK8pFAnhqpjhFJDhGf4O/N4aXHiS7IY5Qyxd89AJCclOZwzP1Ecw/MR0b///nsrQvAyhwiB5x6x3DFEITwNXagXCeWOpD5FQATyTSAToRzxyrWzDRo0sO3v+uuvb3cFJ6N99903luuJkTcIXli3bt0M72cYwjOOU878DlK8zg844ADboUknKh2bjOJBaHfvbQi7hFXBwmHA/DY6nMwzkVCOgMV8RjzhlMZoKGd+R+iJJ54YG1nl37MQ+RHKnKc33t/U+++//7YdqoRicB2rrtzwp/9uHE7mycgohEvMf6fmXZX7KPcfPufNm2fveb5QzvFCiHcCP2I43rJOLOf9nDKxdO9/diX9K0gCmQjlmVxHXG+7/zviAscGOr24DjEcMDl/GTGIMwQdVVhZPPvFE8oJ8US7hN100002YoP9EfyjrrR5WNOmTWN6mC+U81zI9eh7qNNuObGcdpHna1n5EJBQXj6cy2QrUUI5PVn0+HJjo+eJC4te7nhCeaKK0QtNrDLMF919ody/YbIcL5Ubb7yxbaToLXe9+MzDGM7mPKTciyPT/WF59J75AjMvsewDZUeVyfrZmBPLeZDigSwsklO2e+By26FOYXNiOS/gEsnDdPRbBERABESgLAlUJKHc7xRnJJkTS1Ldf18o//zzz0uI5JSR62cGhtDj4Yj5wn4yody9wNA5Tj2dCEQ5eIezHxjejvfcc499xnBi0JFHHmlwLvCN5x+EH0yhV3wy+i4CIpBPApkI5ThL4Q2OhT2bmeaLXq6N/P333207ithFByvtsW8I3zhNYXiBcy9IZojQhEHAU9MPd5KJUE47z6ghjPsGoUx8Q4Tecsstbcer/87qC+UuvIu/HqKfizmOKI2ImMgSCeWwwyucOMncmxD16fzFQQ1PcczPZ+YL5aeddpq58sorS2ya+hIzGUMcd3HP073/lShUPwqKQLpCeabXEaNC3PkX1qAAilD99ttv2xF+OGb60QGigGf67BdPKOe641mca3/27NmxyA5u2zidulGR5GtgpKIvlCOQhyMU+PtM6CX2UVY+BCSUlw/nMtlKlFDOhhhu5eKBup7kZEI5SUEIe0LvMvHG6JVnmutBJsmHexhJJJSzfXrDeKDiQYIhYr4xFIabMOb3tLkHBELF8OCCV5dvCM8kXGE+Pe2u99BfJpvv9L4T6y5eg5qKUM728ZBgWKDzXsimTlpXBERABERABFIlUJGEcndPp+68tPixZFPZH18oxwvbeXi7dV35mTwzINwjMiAi8JxDxzfDYknCiSHeIABgiYRynpNIhsbzDi87/ug5u3Lwj1iUjFijvjyzEafXPUsRG9aJSG55CeWOhD5FQAQqEoFMhHKSRiLsYDhuhRPeUSbiNeE1nYclYTzd/SKqMzEREwRiRF/ydJGomcSVeGkzuglnpurVq1sB25WRiVBO+BdinGO054j1YSP0Cx7jGCI194lkQjkdpLT/GB7xeOAnskRCOev54hohKfbff/8SHuCMrnKhH5IJ5YRVJRQERixzGGRy/7MF6F9BEkhXKM/0OvJDB+GMiSCdquXq2Y/tRQnlOKu6+jA6kPB9YSPxJ3+Yuy6TCeXoZYwwxPyQMnaC/pUpAQnlZYq3bAuPJ5TzoMCwFF5OMYaz0SBxk8YIp9KxY0f7nX+DBg2ymbhd+JHYDO8LXuDuIs21UM5DDHFCeYhJxRhag4d5eVqqQnl51knbEgEREAEREAFHoCIJ5bwkuJizPHs4LzZX12SfiYTyTJ8ZyJ9C3NpwUrZwXeg4J+4llkgo970hw2WEf+MdiOPBwIED7fMW86O4SCgPk9NvERCBikAgE6HcdWhSfzy6edcLG52MdFjSGUqnKCFQEHWxdEbV4J2JiMtnPMORixHXzjIRyn0BmlFILpSCK5NPP146Ij0JMMtbKEdsd4k3XdhS5+3q7keuzsmEco4Lo8Ux7o3cIzO5/7nt6bPwCKQrlGd6HfmjFXGcjOfg6BPO9bMfZUcJ5X5oFSIyuFEYfl38EMWM3MB5VEK5T6hifZdQXrGOR1q1iSeUUwie3K1bt7aeTMQho6fexXvzhXKGAhNDDWMZLny8oYn1RkxQF3olE6GcG/LMmTNt2e5fPI/yDTfc0D68EPbEj5Pu1vM/aVz9JKD+vLL6LqG8rMiqXBEQAREQgVwQqEhCOR3reMFgeFW7UW7h/UTUcEnHCBuHByGWSChnfibPDJSN4wDGaDtEc7ZDQk2efXAowFIVyvFO4jkLY6i9i9tqJ4T+EZKF2LXXXnutFcuZPXLkSFsHf1EJ5T4NfRcBEagoBDIRyhG8Xc4FktttsskmpXYHj3IcpYjzTXJOwo8gsGN4a+O1ncwQwhCFcaTCeHft0KGDFXURx5s1a2Y9u3MhlJPPi5jgGGFXCN0QNjqGCXNCMj+8TGn/y1sop06ErkEPYPt0EDsP8rPPPttceumlsWonE8oZfUVcdYx48YQpzeT+F9ugvhQcgXSF8kyvIzqmEKQxRo24OP+JgOb62Y9tRQnlRBQgGS9GAl3CTYWNUMYuQbzraJNQHqZUcX5LKK84xyLtmiQSyikMT3GSS4XNF8q54ZG0A6M893DCb5JmOtE6k9Ar6QjlJOtycejC9aAu+TYJ5fk+Atq+CIiACIhAIgIVSSgnBqNLAE4YE7zPooxYk3R+Y0OGDLHJwvmeTChP95mB8CoI4ggyiAYI9DVq1GBT1vwEcamGXkGcoSw83CkLISgcIsaV7z55MXLCyuDBg2P77uZLKHck9CkCIlCRCGQilCPI3nDDDXY3ELcQ03zz4xQfe+yxNqyA773MPYQQI74x+hlvaYwOUxIxE0bEjZRGIA+PGqIjE1EtF6FXfI937l20474xqpuwKewbn66u+RDK8Vi98MILbfVg72IfE+d92223jVU7mVDOei53mDtOmdz/YhvUl4IjkK5Qnul1hAc2TpeY/6zmgNKpg/CM4XzB81mun/0oO0oo/+WXX+y2mO/C7fHdt759+1onCabxzM5IDQnlPqGK9V1CecU6HmnVJplQTrzs7bbbzsb29gvmhtipUyc7ieFXLnM3FyyNiTN6zOnxw8paKPcTc0XFdSI5Ci+Y+UpgIKHcnRX6FAEREAERqIgEKpJQjqiCSMBLC0asRu7tvvFSgcebqzdxZZ2HdjKhPN1nBjwNGzdubDfPc5FLmsYEhBdEFobIY/7LF8P0EWMw5/Fof/z7zyUz42dUvFoEefKrOJGBPDDUg5c3Ru7h7Ve1atVYkX78ynTCDsQK0BcREAERKAMCmQjlhN9y7b6Lbe1XzU8S6Sep495BxyPvXsQhdmE/WNcPXTBs2DBDJ+e9995rhSvm+8km+U1YFwQzwjSEhXJ/5JPz7mQdjHdj3pExX3zHQ5z68Y7NiG0S9vnhH/x43sQyp25YroVyv1M1XpgHJ9Yj3jsjTjzx4n3zhXJGARA72TffI9e/z6V7//PL1PfCIpCuUJ7pdUQ+Pa55jBwITqfiN89ynN88d9KBxnMfz19l8ewXJZRTB3dNMJqEDinaHmcI4jiRkrCYEMJuBIyEckeo4n1KKK94xyTlGiUTyinI9+pyBftCebdu3WIhWUhExcsnSVUYnnzjjTe6VWx8csKvYKnGKGeY1qxZs2Jl8CVe6BUaCXq3+SSRJzd9GkK8tHihZYgYCV6oH6J9eZuE8vImru2JgAiIgAikQ8AJzi6ZUDrrlsWyjF7r0aOHLZr7+qmnnmoFB7ywSZ5JGBIXno3njxEjRsSqkUwoT/eZgecaHAHwgsMQpEkKhXDNs47vgYi407Vr11hdqC+Jy0gcioDAiw7JykkqTsI2ErdhxN/lWQUvSLbz2muv2SG2dPQ//PDDsWRohx12mCFBOYaAjli01lpr2Zju1MuJGog47rnLLqx/IiACIpAnAr5QjjBMMuJ4hkhFriwMkZlOUAxxiXCfhEChTbz44ottp2HDhg1te0lbi9E+0k5ivBvSRhPLHHGYkdKI33Qw4iVOKE5ycrVv394uTxksTxhRQrkQ5sAJUohXeKzT3mKEBeOdFiNZJSOxWR8RK55QzrIXXXRRrG3Gc5T3Uu67eLYTZuzHH3+02yDkqUtMmmuhfMqUKXbkFfXhfkRHA/c4WPrGcaDz1xn76EI/uGm+UM403sFxTGOEFEI/nukYncZ0/tLhgGVy/7Mr6l/BEfCFcs4x18kU3lH0lF69etnJmVxHtENcUzw78kxGGTw/8vxLx5kLocfzJmFOyurZL55Q7mtzhJpC96K+5KihTm6Eid/hJKE8fJZUnN8SyivOsUi7Jv7FSGzMp556KrKMPn36lMi86wvl3DzxLqchCRvxwl2CTV4aXWKushDK2TYPQPRa80IaZTwM8fDEkOvyNgnl5U1c2xMBERABEUiHQEUTyqk7ccoZfo8HdTwjtiyCgh+2JJlQTlnpPjP4YV7CdfGfd/ycLCzXs2dPG5PVX8ePjclLIUKCE7j95fiO0MPzk4vPi9CAePTNN9+EF7UiDQlEMQnlpfBoggiIQJ4I+EJ5sioQoxthGEPQ4h114cKFkavhlY3AHO7gRfxyZYRXpL3Gs5w8ExhtL52yfoenv47fvvs5KKZNm2ZjCvttt4uLnkgoxyOUfaKsKEPEp+5+h2uuhXI6YxHF8cx1FuUtTpxkhG9njGJCWPfNF8oRHznWYaOzGyEyPLI73ftfuFz9LgwCvlCeaI9wgEQYxjK5jliP646RD3RIRVm7du2sXuQ63sri2S+eUE59GA3oO5uG60hSdzoJnUkodyQq3mfGQjkNI0Mc8mF48RDLstgtVaGcTOMM/aAXHfOFcn6PHTvW9nLx8oZxg+fFEEHcZczGO4DhK1hZCeWUzVA7etyIm04DipGogQQk9Ngz3C0fJqE8H9S1TREQAREQgVQJVEShnLojgvCiQoxaJ0jg2UfoEcRgRo/xcu5bKkI5y6fzzMC28e7h+dG9YOFZSB3wViT5EoYn43333We/849t4AFF8jJniD4uJAvTeGahQwBvIed4wKg6Xh4R0UlY5xvHCsGBcC+IEjx3IbzgUe5ix0oo94npuwiIQD4JZCqUU2c6/4gtTFxiwllh3AMYUUP76EIj2BneP7yk8SB3IbzwZG/VqpUVmfycWqxCuWgTrOPaYDon6axldNM999xjSyZ5NA5kzq655hobZ9xpGni8I3IlEspZFx7UjfLwcHdG+31R4OVKZ4FvuRbKKZv3d+6fixcvtptq0qRJifsUExHh6ISASTjsmF0p+OcL5YSz4L4IN8LLYGgAMCGRYpSle/+LKkPTKjeBTIRy9jjd68hRwlmB0RvEz3cjBXmOo8MMZwdftymLZ79EQjl1xDmCHAZoa85RhE5B6oyQ7puEcp9GxfqesVDOENlwWI3y2jVuqHgey3JLgF5pbraI0X68tdxuJbXSaFR4OXUv06mtVXZL+Q0uWyExmEwEREAEREAEKgqBiiqUOz50flNH7u8kV8vlc0Y6zwwsS+xW7uN41uEpl8x40UKsQWBH4A8L3259yuTFqHbt2qZWrVpuctxPRtDhhEA9cskj7gY1QwREQATySIC2l3jhiFp+QuVEVaLdpf3Fgzr8PhZej5HQxDVfb731TN26dcOzI38THovwLIxcZp1U7gl+QQhd1A9hnra/PA2Bn7q79+UwH+653F+4h/n5xvw6+kI5HRp0XiBgci8jpBgCXyqW7v0vlTK1TPEQyOQ64nmO85/OHTdqLx6xsnz2i7dNnvG4jlzbEnYKibeeplcMAhkL5XjTMATH9cCW1+7gTc6wqFRvfuVVL22nsAmEHzwklBf28dbeiYAIiEBlI1DRhfLKxlP1FQEREAEREIHKTKBfv342/wdCOh0IxF8PW5RQHl5Gv0VABESg2AhkLJQDCrGcZJE0vGUtmCOQk0CpY8eOEsmL7SytAPsrobwCHARVQQREQAREIC4BCeVx0WiGCIiACIiACBQFAUaIk0CVkCiEhsGOO+44c8stt0Tuv4TySCyaKAIiUOQEshLKi5yddr+ICEgoL6KDrV0VAREQgUpIQEJ5JTxoqrIIiIAIiIAI5JDAqFGjTO/evWMlEmN8+vTpcUOGSSiPodIXERABEYgRkFAeQ6EvIhCfgITy+Gw0RwREQAREIP8EJJTn/xioBiIgAiIgAiKQTwKjR4+2CaiJL04CzgEDBpgWLVrErRIJEfE4x0hqPXDgwLjLaoYIiIAIFAsBCeXFcqS1nyIgAiIgAiIgAgVLQEJ5wR5a7ZgIiIAIiIAIpEyAJIKErQ07eqVcgBYUAREQgSInIKG8yE8A7b4IiIAIiIAIiEDlJyChvPIfQ+2BCIiACIiACIiACIiACIhAfglIKM8vf21dBERABERABERABLImIKE8a4QqQAREQAREQAREQAREQAREoMgJSCgv8hNAuy8CIiACIiACIlD5CUgor/zHUHsgAiIgAiIgAiIgAiIgAiKQXwISyvPLX1sXAREQAREQAREQgawJSCjPGqEKEAEREAEREAEREAEREAERKHICEsqL/ATQ7ouACIiACIiACFR+AhLKK/8x1B6IgAiIgAiIgAiIgAiIgAjkl4CE8vzy19ZFQAREQAREQAREIGsCEsqzRqgCREAEREAEREAEREAEREAEipyAhPIiPwG0+yIgAiIgAiIgApWfgITyyn8MtQciIAIiIAIiIAIiIAIiIAL5JSChPL/8tXUREAEREAEREAERyJqAhPKsEaoAERABERABERABERABERCBIicgobzITwDtvgiIgAiIgAiIQOUnIKG88h9D7YEIiIAIiIAIiIAIiIAIiEB+CUgozy9/bV0EREAEREAEREAEsiYgoTxrhCpABERABERABERABERABESgyAlIKC/yE0C7LwIiIAIiIAIiUPkJSCiv/MdQeyACIiACIiACIiACIiACIpBfAhLK88tfWxcBERABERABERCBrAlIKM8aoQoQAREQAREQAREQAREQAREocgISyov8BNDui4AIiIAIiIAIVH4CEsor/zHUHoiACIiACIiACIiACIiACOSXgITy/PLX1kVABERABERABEQgawISyrNGqAJEQAREQAREQAREQAREQASKnICE8iI/AbT7IiACIiACIiAClZ+AhPLKfwy1ByIgAiIgAiIgAiIgAiIgAvklIKE8v/y1dREQAREQAREQARHImoCE8qwRqgAREAEREAEREAEREAEREIEiJyChvMhPAO2+CIiACIiACIhA5ScgobzyH0PtgQiIgAiIgAiIgAiIgAiIQH4JVJkzZ84/+a2Cti4CIiACIiACIiACIiACIiACIiACIiACIiACIiACIiAC+SMgoTx/7LVlERABERABERABERABERABERABERABERABERABERCBCkCgyj+BVYB6qAoiIAIiIAIiIAIiIAIZEvj888/tmptvvnmGJWg1ERABERABERABERABERABEShuAhLKi/v4a+9FQAREQAREQAQKgICE8gI4iNoFERABERABERABERABERCBvBKQUJ5X/Nq4CIiACIiACIiACGRPQEJ59gxVggiIgAiIgAiIgAiIgAiIQHETkFBe3Mdfey8CIiACIiACIlAABCSUF8BB1C6IgAiIgAiIgAiIgAiIgAjklYCE8rzi18ZFQAREQAREQAREIHsCEsqzZ6gSREAEREAEREAEREAEREAEipuAhPLiPv7aexEQAREQAREQgQIgIKG8AA6idkEEREAEREAEREAEREAERCCvBCSU5xW/Ni4CIiACIiACIiAC2ROQUJ49Q5UgAiIgAiIgAiIgAiIgAiJQ3AQklBf38dfei4AIiIAIiIAIFAABCeUFcBC1CyIgAiIgAiIgAiIgAiIgAnklIKE8r/i1cREQAREQAREQARHInoCE8uwZqgQREAEREAEREAEREAEREIHiJiChvLiPv/ZeBERABERABESgAAhIKC+Ag6hdEAEREAEREAEREAEREAERyCsBCeV5xa+Ni4AIiIAIiIAIiED2BCSUZ89QJYiACIiACIiACIiACIiACBQ3AQnlxX38tfciIAIiIAIiIAIFQEBCeQEcRO2CCIiACIiACIiACIiACIhAXglkJZQvXLjQjB071nz66admxYoVZboj1apVM9tss43p3LmzqVu3bpluS4WLgAiIgAiIgAiIQGUiIKG8Mh0t1VUEREAEREAEREAEREAERKAiEshYKEckv+2228pcIA9DQzDv37+/xPIwGP0WAREQAREQAREoWgISyov20GvHRUAEREAEREAEREAEREAEckQgY6F8+PDhZubMmTmqRnrFNGnSxPTp0ye9lbS0CIiACIiACIiACBQoAQnlBXpgtVsiIAIiIAIiIAIiIAIiIALlRiBjofz8888vd29yRwWv8qFDh7qf+hQBERABERABERCBoiYgobyoD792XgREQAREQAREQAREQAREIAcEMhbKzz777BKbv+qqq0r8zvWP8t5eruuv8kRABERABERABESgrAhIKC8rsipXBERABERABERABERABESgWAhIKC+WI639FAEREAEREAERKFgCEsoL9tBqx0RABERABERABERABERABMqJgITycgKtzYiACIiACIiACIhAWRGQUF5WZFWuCIiACIiACIiACIiACIhAsRCQUF4sR1r7KQIiIAIiIAIiULAEJJQX7KHVjomACIiACIiACIiACIiACJQTAQnl5QRamxEBERABERABERCBsiIgobysyKpcERABERABERABERABERCBYiEgobxYjnQZ7Oect74ys15ZYL77/GezRo3VTIf+LcxGW69XBltSkSIgAiIgAoVIYO47X5t5731j1t5gTdOmd8NC3MVy2ycJ5eWGWhsSAREQAREQAREQAREQgUpF4J9//jFPPPGErfNOO+1kNt1000pV//KsrITy8qRdQNt69pJJ5p0HPy6xR8eO7Grqt6pdYpp+VD4Cy35dYb7++Hvz9azvTaMOm5n1666d0k4E7a75/oufzVczvzd/rfjbbNd9y4TrLZn3k/nsnUVm3ruLzFrrr2HqNq9lGrXf1FRff/WE6y37bYWZPeFLu50l838y62+6jqnTaH3TaI/NTPX1Eq/763d/mLnBNj8LxDnquGmwza13qWNqbbFuqW3Om7zIzJ+yuNT0eBNWWbWKaX9c83iz7fTff1xmpo+ZaxrsVtfU3LxGwmWZOevVBWbB+9+ab+f+ZFZfq5qpWb+GaRwck40brp90XbfAn8v/Mh8H5axWvZpp0K6umxz3c+FH35lPJn5pFn/2k/n7z79NrWCb9bbfyDQMjk269uHz882SoCOt6mqrmN36Nou7Oufap29+Zb4NtvnHz8vMBvXWMXWb1DTNu21h4CorXAJjb5hmJtzxge1kPWVMj6Q7umT+z+aDMfNMh/+1SLpssS1QmYTyP/74w7zwwgv2ELVu3brCP6j/+OOPZtKkSWbhwoVmyZIlpmbNmqZu3bpmt912M2uttVbCU23KlCnmk08+MV999ZVZY401TJ06dcyOO+5o6tWrl3C9dGfOnz/ffPDBB7aOv/32m6ldu7bZYostzC677GJWWWWVuMXx0vT++++buXPnmi+++MLuz+abb26aN29uNtlkk7jrMSMbLuGCP/30U/Phhx/ayR06dDDrrZe94wXcZ8yYEd5Uqd/77bdfQkalVghNSLXu2bAObTL2k2tp6tSphuP/9ddfm4022shw/LbffnuzzjrrxJbjC9t/6qmnSkxL9qNZs2amQYMGyRYzY8eONb/88kup5apUqWLWXntte95zPm2wwQallmHCl19+aSZPnmznVa9e3XTt2jVyuaiJP/zwgxk/fnxsVo8ePcyqq64a+60vuSHgzrNwaVWrVrXHlXNvs802M2uuuWZ4kbz85px65plnbFtGWy0TAREQgWIn8Ndff5nDDjvMYjjttNNMmzZtkiL5+OOP7T26U6dOSZctpAUklBfS0Synffn0ja/M8H5j7dY2a1HL7HDANqZG7eqmXsuNzJqBZ7mschJAwH3l5vcDsfuX4GVq5T70G9HFbNF644Q79Nv3S83oi94xcwKhExEb2yLoMOkXdJxEGWU/evpE8+EL80vNXrfOWubwWzuYTZpEv0h9F9Rt5ImvWEE1vPJ6wbq9b9nD1G1aMzzL/qZjhw6esFVdfVWz/yW7lBL2x14/1UwYtvKlPbxO1O9qa6xqLnr/8FKz/v7rH/PJa1+aqU9+Zj6esMAK9H3v72K2bBOf6/cLfjFPnvdm0InwTanyEI5bHdzA7HN+m4Qi8pcfLjFTn5pjRcU/fl5uOpzUwnQ8ebtS5bkJK5b+aZ677F3z3uOfxI6/m8fnVkGHwkFX7mbW2TC1FyAE9zt6PWfY/9WqVzWDp668KftlLv/9T/PStVPMpIdnm3/+/vek8xZghMpBV+0W93zwFtXXLAnQQcYxqBqcx1VXKz+BIRWhnLp98Py84Hz+zHwxbWXn1aWzjjKB/iLzCFQmofz77783/fv3t7U/5ZRTzM477+ztScX6+tJLL5lHHnnEIEiGDSGyT58+pm3btuFZZvHixeaOO+4wM2fOLDUP4ZoXDtZNJGKXWjFiwtKlS81DDz1khUqE0LDhLfS///3P1K9fPzzLLFu2zNxyyy3m3XffLTWvWrVq5thjjzXt2rUrNY8JmXKJKgy2Z555pvnuu+/s7Msuu8xsuWXizvaocsLTHnjgATNmzJjw5FK/WQ6xLxNLte7ZsI5Xr0WLFpmrr77ado6El6lVq5Y5/fTTS3D0X5DDy8f73bt3b9O9e/d4s2PTTz31VEN9EhmiOefTIYccYtZfv2SH/5tvvmluvvnm2OpXXHFF5DkbW8D78thjj5knn3wyNuX+++83q6+e2HEitrC+pExg2LBhJTokolakk2Pfffc13bp1y/sxcPXlXLjvvvuybmuj9lfTREAERCATAjyv/f7773ZVOhezfRZMtQ7+c0AioRynkNdee81MnDjRfPPNN6Zx48Zm8ODBqW6mIJaTUF4Qh7F8d+LJ898yU5741IZbOe+tg82qVeN7KpVvzbS1TAj8uewvM2boZPPuY5/Y1deqGXi8NdzA1G6wntn5iMYJPcrnByETHj3jNfPzN79b0bb2Nuvb9RCB6UCJsuevfNe8ed9Me97s1rep2XyH2ubHr341b42cZQXwamtUNf1H7V0qjA+i6tUdR5nff1hm64SH8kbbrGfwTH9rxCyzeM6PBrH6jLEHlBJzZ477wjw0YIIVArfdewvTrMvmgbf0P2bq03MCEXuhreYBl7c12++/dazKn09dbL78YEnsd7wv7z8zN/Bu/86WeeiNu8cW++bTHwNxfI5hPp7sviUSylcs/cvcftAYw/oci90DL/VNAu/qZb+vsHWd/MhsKz7vefr2pTzY2c77o+eaKcF24eFbMqH8qQveMu+N+tSsWm0Vs8uRTcxWO9ex32Ew8a4PzdJAbN9m101Mn7s7+8VGfkccv+2AMXZkAgvEE8qfOPeN4Bh8Zs+dNoc2smL8GuusZsVQvIw55oxoOHl0d7P62tUit6WJuSFw1R6jzE9f/2a6nLmDadcvvvd/brb2XynxhHL0vrlvf22mBJ09M8d+brgufJNQ7tNY+V1CeWkm2U7hBeH222+3xbRs2dJ6kONNjnf4008/bV8e8Fy95JJLSgiSy5cvN+eff75ZsGCBWXfddQ0ernh3I2rjvY337d9//20OPfRQOy+belI/6slL1p577mm9J3npwssZ72G2ueGGG5qrrrqqlKfn5ZdfbqZPn24Qxffff3/rOfzzzz+bN94I2ubASxlDwMYD3rdMufhl+N/vvfde8/LLL8cm5UooR3hFgN14442tp2tsA6EviLyZeiCnWvdMWYeqGvvJcT355JOtFzfHF3GSThG8yhmtgTftaqutZm666aaYdz4v5m4kR6ygiC+cA5zfGEI8XsLJzAnldHBsu+22JRZnhAPtEx7+GB1MnI++WB4Wyjt37mz69u1bopyoH7z0n3TSSXZ0g5svodyRyO2nE545fh07dowVTltGJ9fs2bPtiBtm0F6effbZQYd2/nq0p02bZkaMGGG22247c9RRR8Xqqy8iIAIikG8COFMMGDDAVuPSSy81W2/9nwZRlnVLJJTz7MroSZ7xPvroIzsKzdVFQrkjkcInNz/feOApSyvv7ZXlvlT2su887AXzeRCSgtAaeHvKKjeBe49+2XwWCFKIzB1O2s7sekzThJ7Kbm8JTcK6iKKMJthvyM6mdiBcJzJ/NAKCK8KrM8KS3HX4i1bgRcw++NqSXmx4HT9z8Ts2NMv/nupu1t24ulvVsO7tBz1n8MTe48RtTadTWsbm4U19ZbvHrNBGaBQEZmd40D5+9hs2HMp6m6xtTn95/7Q6fpb+stxctfso60l//CPdTL3tNnRFmxu6PW1DpjCh5ubr2NAlCPpYIqF8/O0fmHE3TrOhVgY8291QL9/wcsfbHUH7gkmHWhHazcezHyEdIwxN8271zUcvfWGF+kRCOdcz1zXW++bdTdPOm9vv7h+dBnf2Xjn/6Hs7B+Fq/jtubhn/M1bHoBPtryB8S5RQTqiV4X1XjkzpfVOwzT1LbnPB9CVm2KHP286NqE4Bf3v6nj2BiiaU0+lzedvHYju2eRD+hxEnHzw3z06TUB5DE/sioTyGIidfEAsR//D46dKlizn66KNLlMv0M844wxD2oUWLFmbgwIGx+Xi34uWKYI3QiHevb4iQeKnjxXz33XfbkCz+/FS/E2oFURmL8gyaM2eOufDCC+3LTliUR0hFBMeoO/vgDEH1+uuvt6EwGjVqZC666CI3y2TDJVaI94UhvRdffLEV+nmBw3IllA8ZMsR69DPMGCE515Zq3TNlnai+dLbcc889VnS+8sorS4Q0IQQKHTW8iPfs2dP06tUrUVGl5j3++OM2himC93nnnVdqftQEJ5TTWXPMMcdELWJD61x33XV2dEbTpk3tuekWDAvlXDuMyEjmGc5oiGuvvdYVYz8llJfAkbMfTiinQ+aaa64pVe6ff/5p2z3CnWB0dNDhIRMBERABEShJoCIK5W+//ba58cYbbUVxoCCEG8+4dHJLKC95/BL+Km/hury3l3Dni3zmzT2eMYtm/2C9WX3RscixVMrdJ5HePX1etsL4cQ/tZTZr8Z/Qm2yHELXxKCc2+OG3dUgpDMLL1001E+/80MboPuquTqU28dHLn1vP7yqrVDGnv7i/jVXtFrqp+zPmm09+CLydG5u9z2vtJsc+KZfy19pgDTPwzYNj9XGCLMLxWeMPNKutWTW2Dl9++fYPc3WHUTYkStirvMSCET9eu2uGDR0CtxMe7VZiiWGHPG82brSBabnfVlZAx+v+yvaP22USCeWENaJDYccDtzH7X7pLiTL5QX2v2G2lgHjiY3ubTbf9T4BhZABewS17bGUa7r6pFdOv6/JkkHD3l4ShVxw7YoOf8XLPUttkwvVdnzLEh07mcYyH/809nrXCTOuDG5q3H5gVKZQ/d/m75q37Z9r6sx9R5jpxmnWtbw69oX3UIpqWIwIVUSgfdsgLZrseW5qW3beybcH0Z+eax8563e6xhPLSB15CeWkm2Ux57733rBiEpzFiNsJd2JwgXqNGDXPnnXfGZjvv4T322MMcf/zxsenuC7G9TzjhBPszG08ivCWff/5564lEOVHGdOJ0k7QJMdPZ8OHDzYsvvmjjWSO0ho0Xo0GDBtnJvldxNlzC21ixYoU555xzrIf+PvvsEwuTkiuh3Im3eG0Rqz2Xlk7dM2WdqL68FxFTfq+99or0lnWdMZybCJypevYSIoZQPYjt4Q6URPVxrBMJ5azPyAG88DE8/vGGx5xQjpc5daAjimuHayiRuWuNmP/wwCSUJyKW+bxkQjkl08lG58q8efOsJ/e5556b+Qa1pgiIgAgUKIGKKpQz6oycDjwzkYOHZ9tXX31VQnk652F5C9flvb10WOR7WTx6X79nho0RTVI8vO7qNqtl9ui/rfkh8LDFu3ODzdaxHr/huv4YiGpvB16un7y+0ApsiImEs9j58MYlvH1Z775jxtoHoAXTv7UhEfB0xVMWa3VQA+u9an+k8O/j8QvMOw98bD1u8filfpsF3ri7n7BtCU9hvyj2E6GEsC/fzv3Z1qVOIESyHqEC8FoNG8tODxK/rb/p2jYOdXg+cZlHnviqndz51O0DoXil6EhSwWcvnWSnHxbEvZ4ShKQgpjYJDrsPbmNa7PNf7Mx0GPrbJxY4x43Ekr8uCYZGb7muqdN4A+sRzTGMst++W2omBIIw3tx4TxOmgqSQrQ7axiY+THeE491HvGjjYO9+fHPT+bT/PK2jtu1PY/t3H/mS9VoeECTgW6dWaQHBX959d8JnlzOC8A7Hlg7vgIf3pTs9YsN84FGOZzmGV/Lg5iODY25MPI9mOm/oxMHOfaNXrE7OQ5sEmlHiPMtzDnBOturVIPI6YZmwkSTzmo5PWOEaERcx1zf2BcHfWapC+axXFpilvy43mwTnQu0GJWN4UhbXwaBmIyyLw27ewzTpXM9twnpf+9tkRipCOdc0Ijjxx+N5i7uOEcLx7HN+6Y4KtsXxuevwlSNOSLbIeYGXe5RH+YgTXgkSq35tQ/Tse2EbVi9lxGknjAyhfOhcSMUyveZd2SR5nfTQx+bDFz8POhhWtjO1gmuMjoe2fZoEIy9KtzNu3XifhJAhtBHe0Fy3VYI48xtttZ4N19P6kIZxR3Ck20bcf+w4e610PWsHs27ttcz4IHwNx5ZksISw4dh2HLBdrLOIdv+Nez+y1WZUAec0bbobxcD1QmitdNrDj4NEu7OCUEcLZ3xn95W2jJwDe/RvYRPDhhklCr0Sbs8klIfplfxdaEI5oT/wFiXJJC8UhDwhfAkesiTEDBtxull21113tQ/5zz77rB06yjSSCRISgnjLTpgLrx/+jVfkqFGjbNiOeKMmid9422232bAdI0eOjMWYREwmdjVJFaOSduI5ffjhh9vnGLzSW7VqFd58Sr8RuBkeu/vuu8f14sUrd8KECSbswYuXOB7RJLIkZnSU9evXz/z66692eLATmrPhEt4GXvUIuk2aNLH1dx7uuRLKCbeA6Mq+4hmfitGpwHEnmekBBxwQd5V06p4pa0THu+66y3z77bdWDMeTF/PPHzzHqWvYEI3duxPnQKrJUek8QdhnW3SQpCqwpyqUE/cUIR7zz30nlHOdE+qHGPhbbbWVGTp0aHjXYr/hQicInI444gjDNYhJKI8hyumXVIRyNug68EjcSvsYNuLd0j5zrf300082aXD9+vVt287xjzLOedYh4S+Ja1mO84P7AfcHwkyRwJi8Cs5o9wgjRZsf1WFJmZx3LEeiZs4j2uxtttnGxuUn+XLYWJ7EsYQjon3BA/Ott94yjN5hfaYTxoo2TSYCxUKAewYjp3iWYQRe2Oh4Z5QdRuc43sq+cb/iWYBrmzBOtB1cS+THyDQkCfca7meEu6NMngO5r5Eo2h9B59eD77NmzTLPPfecfZ4kFAnPcDw/cF2H651Je8AzFKMBKduFI6MtwxmD+pG7BnNl064deeSR5uGHH7btH6P6cIBgOkboq3Hjxtl6f/bZZ8YlcycRN2H/wgnnaffiJfOkDQvf8yWUW8zp/XMPX26teC8Rbn62n+W9vWzrW17rEzf4oVMnmM/e+rrUJtdcd3Wzdds65sPn51vBbcAz3UssQ1zoO3o9b35Z8oedTpJARDhnO/Tc2vS87L8EVRc2HVFivluOz2Repv6yeAQieDjzt0tiRZI5+iE53HKjznnDTBv9mftpxSVXX8Tig69rVyqRo0vISEiQAc/2iK3rvpAkbsiOD9mfRw7raMNj8ANx6Y6Dn7e9d7UqAAAdhklEQVTTiVtNUkRn3QftZNr0bmh/psvQlUH86GGHvmAI3YH5DDhuva7ZzXpdu+X5JDniPYE47RJm+uswHxEMYYvpqRixp28Pki0iRhHCY41/E7ESxoQ6hEUqv8z7jxtn42UjHHY7d+ULPrHO/w7E4bDHtr/e0EAEp/wDr9zVej3789z3W/Z/1tDh44fb+GnR70GIk5Xe2KcEwjxJHsNGJ8JlbR+1k/uP2ifoLFr5sE1scjzViZnec2i0R5nzbt6mbRCD+57O4aIjfxPPm7jeCJCnB17YybinKpRHbsybiFc93vUImAODHAHJEuimIpR7xUd+5TrDi53ErUfeEVwngWgcZZMeCsLjDHnHbLjVuubkp7vbTq14QnnU+uFpN+072sZq53rjukvFMr3mKZv2dFgQYsbFd3fXQPDcYA3R94QgxA7Ji1M1hPf7jnk5lpiVMunMcG0XInLf4V1i158rN5M2YvC2D1ixm6StdO7RiRc2Ohf7P7GPPV/pVCDnRDy7+IPDbWLPVNpDOrNeuOI9O4LAlUdSUMR3jOuj9017mMYdN3Oz7Wc8obzEQv/+kFAeReW/aYUilPMQj+DFC44zXk7w4MXw8CbMSDhutvMsJVkgL0hRSTR5EUFc3mijjVzRWX2SIA5Bj5ebqFAE8Qp3Iib7wktI+EUm3nqZTD/rrLNsrPSwpy9JVBGsCJPBvChDyERAQtTH4ztVS4UL5yuep8RWR5DlZY/kk1guhHI6Kly4HOe5zEsg20kUj5y6TJkyxb4ssh9RYlm6dc+UNaKB88hFMKCjB/OT4XLecf6FjZfp4447zk5OlSfXHoI3AnQq3tz+NlMVyvEUd6FZTjzxRNO+fXtbDKIAxwkPeMIFcd5iiZJ6Pvroo1YgRVAhzAcdEpiEcosh5/9SFcoffPBBK2ojTDEaxzfENEaqcB5gXIucdxjLE3c/LGIh/Nxwww1WJLILev9Yh44iBGsELV+PcOdHvPb51ltvNa+/vnKUGkXSFtE+YOQ1oBMmnFR49OjRVrBiWwhRjOgJG0IT1zyjeGQiUAwEuKYRfaPC1LH/3FO5t2Lh9hmRlzBi3J8x/zrk94EHHmj/+J6q8Qx4wQUXxHJX+O0MZeBc4Eb1+WXSHtAuOPPX45rnmcgJ1CyTSXsQbnfctvikk46cN5grm44+/vxnWnffZ3QieUjcPOrrnnMog/sp938//F8ioZx1wiahPEwkhd/lLVyX9/ZSQFAhFvFjEuNVjaiLV/i8dxeZV2+dbkUmKopnqi+U+4IQoRvw6MSbGc9HYhwTIxkhB89RPEgxBE4TtGF3BV7IiDhM7xB4CWLVgnAWxLhOZpMf/cSMHvy2XazzqS2tFy5ep7NeXWA9G7/++Hsr0p72wn42hIYrz4XsQEinTk061Qu8VKuZBe8vNk8H5RFagv1GsPSFw0xFM18Yog7Ex0UcxAt0o63XtV7cmTCkLEJn3BEI1IhYeEzvGXhyrxeIrd/N/8mMuXSyIVQI+3LmKwfYONWsw7G4JkhkiWBMYkfYbdG6tvWs/2DMXPPGfSRcMKXic7NuPHvv8UDovfAte24cen178/wV75oFgXj+x0/LrGi3WfNaNsQJomfYCCGC8Isn9XeBZzwJKwm5QR1q1a8RhEvYyrQPPMbD3s239nw2SHz5vcHjlWScUTbi+FfM7IlfmtYHNzA9Lt7ZLuJEfX6QQJbwKmGDUczTOhgFwDmCsV9vDp9pO0HoDIkyPPtfvHqKqbXFuoZzL5mxnzfuvTIGOR0FdBgks1wI5YyAgM/cSYtsyJsjbu+QbLMpeZQnKoR95ToiPAvn5bmv97IhXcLrEPLlxn1GB23ICkMYH+LW05ZkKpTTCXV1hyfsZghrk2pYoEyveTZEYlq8vuk06h60iXQ+/RkI3TOC0SQThn1g28DNd9jIHPfgXuHdj/wNu8fpGAyu0bVrrmn2u2Rn6x1PJwfn+DMXT7Lx44kJT2x4Z5m0EazrhHK+b9xwfXtebhOMpFj8yY/WM596YHQY0XGEiL38tz/ttJv3e8Ze08SyZ0QRVn391e1nKu3hKze/b+85jB6gk6txh82C63TNoEPtSzMxGNVERx8dcGeMDbXRN0wzJG6l84tOsEQmoTwRHWOT5bEEHnEV3XyhD0Fh551XtvXU28VHRqDE0xlBnId9ErPx4uA8xImj6AvMTiinDJLN4UnDunjt4PGHhxBiO0NKSf6XrTlhd9GiRWkl5cTDGTEHT/AddtghJghmW5+o9X3vXV6+eAlz5rytETjjCTrEDse7Kl54D1eW/5kKF5bhJZZjyTHGq50EqbkUyv3y+vTpY73nYY6AjnBG7E28UYkT7xujGBDYEN+iEgBmUvdMWfNCi0CINxze/U60w3sVfhgvsVwfYaOeeI3x0ux7boeX8387sZoEtLfccksp7zl/2fD3VIVyRjE4QdsX8N226cyig2Lw4ME2OWS8pJ6wcUk86RDZZJNNYt7nYSEmXFf9zoxAKkI55xujHLi2GzZsaPMPuK0h6nDe0i61bdvWHHzwwVYAIgEtHql4WdJ2I/z4oa4Q0YjJj9FhROcKyyEOPfHEE7YjkHnpCOVuRAidsLQPeMJyzyEJMqM4aNfZBteff59x4hXbQxDfe++9TevWra0Q9c4779j7DNcrnbGsi+gnE4FCJ5CpUE7CczqDac9pE/D2rh+MLuG5g2ue+zHXGZ3qUSOnorjSscb9g045vNG5P1AmCbAR5fFsZ3tc92zPGe0J9yTasIMOOsgmLK5evbq9D9H24VgQztuRSXtAPXgWpUPa5QDhkxGTCN1sEwuXTTtD5xyjwxghyHLuGY37HyPgSFzMvpGQk5FxjNgJjyZkfjyPcsfC/5RQ7tNI8Xt5C9flvb0UMeR1MYTW6/Z80sZWDicwpGKILSTD++HLX0sJ5QikCKXEJD4l8LRGgPbNhatAxCaMhW/ZxCgfGYRbYGj+Fq1qm34j/2ucKP/nxXgNj7LhI/zkfoQHIKQAdtSdnUyDdnXtd/cPYReBjv0Nx6/OVDTzhSG8248cVtpTO1OG9xz1khU6o0KBIFzdsNfT5oeFvxq8QhGtMESm2w4YY7/3G9ElEMk3tt/dP9dhEs9z3i3nf9IZwnEm7A3sEGER8BCzSKSH4R1+SCCGN2y/aWxVGwYl8FwltAjb++bTH+28tWquYZb+tNyGfmAC3tlHBMI0ZTp7etDbNgQFIjYhbcLG/uNRTqgHP1nsJ68F50DgxY5d+G7g/R6EnIkyJxT6scYRBx8783UrVJ41/gDrIRteF69avGtJEHr2hIPCs0v9JjzKAye9alZfu5o5Z+JBsQ6NUgt6EzIRyhGf57z1lb3GCcPxwfPzbGcJceEPumrXuBy8zaYtlNPhMO3pYAhp4FTz06Lf7MiBLz9cYjsRDr91DxsiyC/ffXcdHL73dzZCuStvq13qmGPujfZ2dNv2PzO95jmfL2n9sGGUCWFjOv5vO79YOzLnkdMn2mnnv31ITEQusVDohxN28aZGBKYjxjdi/BPSBqODxs3PpI2gDHf+rxd4vp84am97zjMd47gO3XllWCP/2lo515hEMcqTtYd0CFzb6Qnbbu09sJXZ5aiSHUecw4TuwsIjEuRR7o5A9p+F4FHOCwpefLxAMNS0W7duJcAw7N6FYmD4bsuWLWPznVDOiwZCTXjoO57kiO3xwgHECkrxC8NnCfeCqEiCQl9M8YtANEEAItEdL1qI9nQUIJIj9LmXIn+dXH13+8wLJkyc0XkAX4xwJ2HvfLecY4owhfdvKpYKF0Io4HVKpw4vphwzX9j2BdRUthm1DKK488yKms80hGde0qOE5njrpFv3smDNUHI8rTHifcc7hwhHwgu577kdb7+YDgu82DPx4EtFKKcuvNgj9HO93H777Wa11VY+zzmhnHOBc8N59iGYRiX1dEk8SfZJOQjwzptYQnmio5z5vGRCOQIMnUy0ARje4YhfzrgeuS7DyY+Zz7lBRxltPyKVC3uEqM65RfsZlZgW8R2RjvArqQrl06dPN7RtGOc84pJvhJuiXaTscCehL165Tj5/3TFjxpgHHnjATqIz1/c+9ZfTdxEoJAKZCuXueuEexogi/zmKzl70PwTveJ7qUQydsMu1h+d1OFyKyy2D4My9BaMDnZBgiOyM3KJDzjfqQF2oEyI8iS2xbNqDZDHK/bLpVCT0i2+sj6MJz81RI69cZyAdDTwnuM5HCeU+xcTfqwRwg1fc9K28hevy3l76RMp/DWLLvnDVe9aTG7EOgTNsL10zxbx294xSQvn1gRiLB3D3wUEYkUMbhlezwqkLdXH6Sz1tjG+3UDZCOeIiIiNe0Qz/D67dEoagQggPPLcR8bEXrnzPekzjoXr8w9GenG8Fcdafu2yyFWUHTe0dE0MzFc18Yei0IKkkXtJhy4ThiqV/mSE7PGhFKz88iF+266TA098lOSQUCQIyRmiacPgCOk0WBd74eHD7orZfbvi7H8qG2NR7BnHD8QLFI5943w+fMsHGrUY8Pu3FnrERA8RYvrbzk7Hitg+SVbbp3cjUDTzQ/wqE7ol3fWjGB6MZaFn2uSAYkfCvdyoruHAlHPcTHi2ZiJL5Twx8MxbmZrdjmpquZ+/IZOt9i3CKDXqvtxWo7Y/QPycU+kI5AvO1QYcStldQ3q5Bub4RVoftYoRr4bgkM8LmfDFtsWl7dBB65pxWyRa38zMRyulUonPJN+oIu2ShXtw66YZeYVTJxds/6Fa3n3QIELoIATbKXGcE58opz+0X6zjIVCgff9t0M+6m92088AHPdredOVHbjZqW6TWPkHzZLo/aERUIvQi+vi3/408bU51p9XeoXSpUir+s+87oGUbRNN+rvjkkGLURZTcEIxO+C+LDk7iVEUGZthGU7c7//S/ZxewY5C0IGx1GHKuotjRVoTyqPeRaX/pzMOIosNXWqlaic4xpdEJcvuvK0D3h/AQSyiGUGysUoZwXFYyHekQz33hkJSQEYSXCLzNO1CVGuYuB7K/7yiuvWE9BXhqIoRt+efKXTfYdsQcxlxeOsEd8eF1irTsBz81DoEU0Cu+fm5+LT/cyiJDIkGc/3Axe7c5bmhAXiPZR5pimKpSnwgVPTZ7pEb6Is+m8pHMtlNOpQgcGAhz1R5xr0KCB9WYlWRXCLNaxY8cScY2jOLhpmdS9LFjT4UMnCIb3tXsBdvV0n+kI5a4TiuuCoeHpdB6wPSeU4/UWDtNDYlC8hglThBDqlvdHMjihnHnEYuX86N+/v00qSgiZDh1KjqBz56ZLmIsH3fXXX2/LllBuMeT8nxPK6Rz0OzERjxC0uf65RvCiRuhG2Ka9xegwwrOTNjNeR5hrs/ACdcmJnZBGhwrxzgm1EjY6LBHnUxXKEbIpl/ZgyJAh4eLsb9oIziPa6OHDh8fuF068itfhyv5zLWDx8gfYmfonAgVEIFOhnNBFPI/xnELHUjiXBh23OBvQ5qQaq5wON54nCMfFiKSw0QHGvQVj1AfPRu7+h1CP0B71bOYSo/th0LJpD1IVyklwTWdw2GhLEfixqHbRhfhjPnV3/CSUQyQ1k1CeGqcKudQzF79jJj0824YFIdRBlEUJ5XhMXtLqIStknjy6ux2iH7VuvGnxhHKEw2eGTCq1GgJ+3+ErPUL9mLgkxCS8xmYtNywlrPiF3BnEDP586uISMav9+Xz3xVs/hnWmopkvlBMChTjUvmXKkP1gf0gIiAAYDk3CNua8+ZXB85rwIoQZwRCirukwyoZrIT4ySU8RtePFSk7lWBBCZ/6731j2fQMvdcLL+EZyR8KLICDufV5r663PfMJ+4PGKEY7miNs7lurwcCI8oRsGvnFwTNSlLBJ6kgwU8bXL6TvYZKwLZyyxIS8oGyYIa37YH8JUZCqUU08nxvG8vusxzUzTPeuZXxb/ESRsnG/jl1MvtkliTBJkJjJ3DBGqCSPhEh8mWod5mQjlJGFEyMeL/8cvf7MhlQiBVC9IYEucd2LzJ7N0hXJiao+7aZoNs/RTEF7nyw++taGNONd6Dm1bKn/A7z8sM9d3e8rwefhtQSdOcF46y0QoJ6fCo2dMtEUcfF17KzK78vgcde4btiPHn8b39sc1t8tmes1Thjtvia29W9+mNkEuoyaiDE7E+I8yRsQwUoNRIIwG8c/lqOX9ae78SreNoAwnlPsdRX7Z7jqICnOSqlAe1R762+A7uRcIE8WICDoYsDGXTLL5MDqd0tKGiLITg3+J6uSWcZ/OQ5/fl846qlS745Yr1s9CEMrDx444trwk8YfgiCEM8qLTq1cvK8S4dZxwFk/UdS9CLM/QeobVZ2K8gPFSiNdhOO53VHksP2HCBCsQIRIypBjhEJGGlzVi4ebaiNdL+AIMD30/tA3TykK8TYULHR10EDDEmZAFCLnOWD+XoVcoFwGPoce8aIaNc4DOE0Q9BNZknp+Z1r0sWJeFUM5IDa4RBGkX2zzMLNFvJ5QnWoZ5XHd4DIfj4vtCuRO6naBJZwriqjOuI5fEk3qTCI2kjYSLwdz6bnl95oaAE8oTlYaATEdleETP7NmzrSem67hzArpfFiNvuC7ppEGswlzYlXAYF3+9dIVyF9YnyiPcleuLWC4eMPOcMEbMX3e+uXX4TFeE8tfVdxGorAQyFcrpWOK+z70aIRcRmhFw8Tp/iYOOd3TYELjJbYFwTA4M7tc4KNB5loqRDJjRMLRb8UbPEeaJZzk6eF1nWDbtgd/G+EK2q2+yst1y7pNnHZ6Vf/jhB9vRzDMq7SlGuDOX0DzdNsp56ONFT9tZTCahvBIfbZdQsXkCb8UoodwXOi+YfGiJmN6p4IgnlH/6xldmeL+Vw+v9cnzBl+nEg37p2qlWmOQ3gmmj3TczzboEmcaDeLp+rHMEwkuCZJt4Wfa6ejfTYt8tWaWUIXQO3nakFXUROhE8sUxFs2RCeaYMiZVNzOxUbfC0w2LJMQmhM7L/q4Zkjs6IKw83/lzYBualcixICElZrQ9paHpctJMrssTniMCbeXbg1eyHavho7OfmoZMn2OUGvtmrRHgHt/LCGUGomANXhoo5I4gb70YHMB+h9/aDnrOdG255PhGx9whi3s946XMbA5/QLC7OuB+6IdE5O6j5SBumBO9drgtndDQ8NGC8mTn2Czcp9kkYE7zoSRQbDt0TW8j78kBwDIip37xb4CUcCLmpWiZCebhsOmieDBKIzggEfsLPINQTNzyRpSuUh8uiA+H1YPQKbQlGGBTCoThzXsrNuta3MevddD7TFcrnvhPEqQzCLCFC+6GH/DJJssv1GTaXZDfTa57yCD/E6IIPX5gfKx4v+aZ7co3VN/WCzqR/naNsfG+E6Sijs45OjItbPmg7Ofw2KWp5f1o2bUS+hfLPpyw2rwUjSujY4pqLsk4DtrPXuZsnodyRyP6zkIRywijgIYggyAtPlOVDKOcFhJcxvCeJVUn4lyjPo6j6umm8yCE4Ec+W4cZ4UWUq2rsy/U+8Ouk0wCPXD2HgL8M8EnRiieJXI04iXsWLE+3KTJWL8+onMRXiE6KZs7IQyl3ZUZ90ViAIc34lGxXA+pnWPdesqYvf6YOQ6A9XZ74zjjHbT7Z/eO0RggLxktEHUclBXZnxPp1QjkdguPMHbze89urUqWMY8RElgvhCOQkgWQcvdEQUjpE/tNwNKSemK+c6Nn78eHtd8V1CORRyb04op71iJIZvtGeIXsTQdfHz/fnOc9Sflui7O4Ycd0IN0dnHeRxl6QjliER4tuPhjqDP+RhlLEdHHgKe30YmE6/SFaGitq1pIlDZCGQqlLOf3M/w7HajCXmmQrBGkCZ3gD+6yQ+b5DNynWs8/7iQa4nujf66fHdJvMPTo37TMetCAGbTHuRCKOfeSCcxI2TcO0BUnSWUR1FJPk1CeXJGFXYJRGkEUZKykZwtyqKEct8796L3Dy8hTEeVEZ4WTygnvjRepWGrEnjeEuvcNxJAfhQIoh+9/LnBm9i9ByNKHRaEFqnbtKZdHG9ExCaMxIWImlHmC+W9rgkE9cBbHctUNEsmlGfK0IWRwVt0wy2TewMfM7xLiY4MGHPMZwbcEGv/+Hl5DAchTroF4SLwdE7lWNx95EvWs5v1CJESZS8GoX0QSf0wMPMCL/S7A2907IJJh0SG/PHDd0TFlWf+Z29/bRP94blOoka80zcNwrdctN0DK0PTBKF53HlA8lji0GMkbK35b1geO+Hff/65cuwDQTKQHWv7s22ZeNoT75xPvGqJ9Y7Ae/eRK73r9zonCM1ydNMS6/k/iJ1+4z5P2/OVsDhwSdVyIZSzrWW/rbCx/PHaTVZfls9WKKcM7J4+L9vQI40YRXDHyhckOlHoTCEOPcko1w5d51zfr901w7YxLidBjY2qR46EILwQoxzoDEjUefPb90utkL6yVv/9JwEnMfUzveb/K8mYL97/dmX7FHQK0UHlrH6QW6H3jbvHkslyTKMMDlyDru2Kugai1mNaNm1EPoVywgQ9GITWoi2u02gD0ygYWUB7TocOnQvPXjLZ5j6QUB7vyGc/3T0kV/ZknoQqQURFoGBfCAtSs2ZNKyoj5OFRjudMeQvleLfzssFwVl6UEMxJ/paJIZYTn5wyETPDoSoyKZN1EDyJAU35ycRtRGJC2ESFtXDbJ8EUSfnCrN18PlPlgpiO4MTyeHKGE3PhJczLMoanfd26da2gSpKqsjJiKLPdqPif/jazrXuuWLs6ES+VGMoYzMLCNNN9T3b/JZl5YWP0AbHzidWMYJ6JOaE8lVEWUeX7QjkebE4ccXGtO3XqZBOaIkS6JJ7HHntsTLB1HRmU7UTWqO1oWuYEnFBORwpttG9+iKlw/giWc6MD6ByjwySZ0b7SAeRGCrkQO1HrpSOU+9dForBT3H8Qyjnf/Fjr2QhjUXXXNBEoBALZCOXsPx3X7733npk8ebIVzungxQgFRjvfrl07+5tQaiwbNkaG0Unrj7YipIvLgRFePvzbPesQ4iVqBJq/PKPPTjvtNDspm/YgF0K5a/vYfzop+ePeybMpnOgswPxngHQ78+RRbhGm96+8Y4aX9/bSo5GfpV38W5JN9rm7dAwmahUllBObnPja2Okv7Z9S+Aa78L//4gnl/jLpfP9lyR/Wa/n1IJY6oike5cRDJnQBdmW7x22iz30vbGN2OqxRZNEM8Sd0AObH0M1UNEsmlGfKkFA5hMwhJvi5r5dMkhq5YwkmIkgRFmPqU5/Z2N94/rbq1cDsN2TnBGv9N8slIyVUBiEzouzl66aaiXd+aEN9HP/IyqRqvuB70pP7BvHmNyi1KiLhRS2ChJ+BI2CfezrbxJ6lFoqY4Lgjep4TJNVcrXpVuxTi8JAdHrLfiVNPjOWw+bHI44np4XX4TV0vb/uYDRdBCKNwCBp/nacCb27irLNMvHBH/vL+d59b3/u7mC3bZD7cngSQJIIkDjXxqBNZroRyYoYTO7zm5usE7UZPu0lGBpDoMx0jbFDnU1uWWAUxetghz9vQHIwEOPjadpFhiUqsFOdHptd8nOJsYtkZgeD/xn0fBXG4l9uRGyTeTMWuCOJy075xTXJtpmLZtBH5Esq5hobu9IihA6xdv2amy5ml4x2TJ4BrVKFXUjkLMlumogjlvMgw5BPjpYMH+LDhke3iiPPC0aZNG7sI6/JStHTpUjsElzjkYcOrkKSYYfHWCSplEXqFelE+IUMQbhGjs/UC58UFz/lMQ12EufDSxcsqYWnwviQ0RVR4A7fewIEDzbx586xovd9+0W0agjWJR+OJ6elwIUEjiTDTsUThFtIpJ96yiM2IzlFJAv11sq17Llj79aEjBK9YjBjLhPEJG9eI88CNJ6azDucNIjfCYDYxlctKKMdTmfrjhU6cVkY4EHve/XadVRLKw2dA7n8nEsrZmmvTENIJe+C3/WPHjrWijZ9AL5UaMrpg3LhxkQlA3fpOLEo1RjmhFej84hoiSWCUEcKADhmM0ExO3M9GGIvajqaJQCEQyFYo9xnQmTVjxgxDngA+Mb+zyl82/N0fmZbovhdej5F9hKwj+TDbStWyaQ+yFcoJQwN3nvPQSf3k9tSfZzcXi11CeapHtORy/wcAAP//LKv4rAAAQABJREFU7Z0HmBTFFkavikgQySAgwQAIimAOiChBzGCOCGLO4Zkx56zPnB+CYgQURVQEQRRFxYQCShDJIEhGJOjrU2utvb0zu7Mzs4GZ/37fbs90qOo61WH6v7dvbfR3YJaEXXnllXm2uueee/J8T/eXkq4v3ftfHOWNenq8ffDA17ZF3Up2xYhjbONNNspXzfv3jbOPn/3B6jarbhcNPsItX7/2L7upzYv21/q/7ZTHO1iLDg3zbff3X3/bj8NmuPnb7VPPKlQpn7vOI10H27yfFlv7s1rZgZftkju/sA+rl6+xBVOWuNW22ql2vv1dOH2ZPXTIm0bdh123h+19Sgu37nM93rdpY+fZzt22tWPu2jdmNT+8/6u9fPFIq7hFees99kTb6B8UI58ab8Me/NoqVd/Mrh1zQu58X8ifK9baLbv1d19PfaqjNW+/lfs887vf7Mnj33WfLx9+tFVvsLnfxE2TZUg7aA921cfH2hZ1KrnPhf2bP3mJ/blijVWpXcmqb5V3X9j29StH27eDp+W089PjbaON8x8L0To4Ljg+qm5ZyS4fHvv4eeXSUTZ+6HTb5cjt7Og727oiuGLcvPNLtnb1Out60162xwnNo0Xbb1OX2kOHvunmXzHiaKtWP/8+Rzei3GdOGWq/jltgHS9sYx3Ob51nldv2eNn+WLbGDr9+T9vr5O3zLOPLxOEz7cXzR7i23zDuJCtfsVy+dWLNGPbQNzbyye9tmz23tNNf6BJrFTdv+W9/2L0d3jD6/qRH9rcdOjeOu26sBcvmr7K727/uFlEP9UWNY/+/h70VsF1vB1+5q+14UJPoKu47xybHaLvTd7SDrtg15jp+5gNdBtqiX5c7nnCNZW9c/Yn98sV826FLIzvkqt1jreKuNVxztmpVy859/VC3zuCbP7clc1bGXJ+ZS+asMI5drk1N923g1mt1SBPbueu2udusWvynPXnCu8E+LrOmbetb9yc72iabbpy7vKgfkj3nl85daUvnrbRNK5Szei1q5Kv2qzcm26Drxrj5XEu5phZmT5+cczy37dnSDrk6NleuCauW/OnqrNmoirvWJXONYF9u3OlFW7dmvTtXOWej5o/1OttVs4vf6Zpn8T0HvGEw6HL5rrbfGTvmWVbY9XDmdwuD6+UQt03vz05w16E8BQRf7j9woP0+Y7l1unhnO+DcnXIXF7RPuSv98+G7t6fZa1eMdt9um9gj3/U8un62ff/1119dkxs3Ltq1Kd2cfv75Z7vhhhtcsXfccYdts802+aqYMGGC3XLLLW7+XXfdZU2aNHGfp0yZYtddd537/Mwzz1iVKlXc5/C/iy++2ObPn2/HHXecHXXUUbmL7rzzTvvuu++sffv2du655+bO9x/Gjx9vt99+u/sar2y/bnjKz+SHHnrIxo4dazVr1nT7zTSesf5//vMfW7NmjZ1yyim21157xVz1+uuvt8mTJ9vhhx9uJ598csx1Ep25fPlyo7x58+bZTjvtZPxmLleu4Hvg/fffb19++aXtueeedumll+arijLPPvts++uvv+yaa66x1q3z3pOLymXYsGH29ddf56vHz1i9erVNnDjRfW3evLlVqlTJttpqq6TYsG/XXnutrVq1yk466STXRl+Pn7JOz5497c8//7Tzzz/f2rVr5xflm6a676myzrdDwYzTTz/dVq5caaeddpp16ZL/t8tXX31l9913X3Cd3Mj69Oljm222Waxi3LL33nvPGjVqZKk8y11yySXu+DvwwAOtV69eMesqaOann35qjzzyiFvl6aefti222MJ9Xr9+vZ133nm2dOlSO/PMM915+P3331vnzp0dA1/m8OHDjfMae+GFF+K216+vadEJPPXUU/bRRx+585JjK2rhaz991bFjx9xVfvzxR7v11lvd9yeeeMKqVy/8NxQrv/nmm/bKK69YjRo17NFHH7WNN87/+7B///42ePDgfMfwq6++aoMGDcq3v+wH+7Pffvu5Yyt3J0MfuN4/+OCDVrlyZXv22WfdecTit956y15++WWrVauW25/QJu4jx6u/nnNd5foqE4FMJ8BvK35jxfs9MW7cOLv33nsdhvD1mWsGVq9evXy/9ziXuK/89ttvtscee9hll13m1i3o37p16+zUU091v1uuuOIK23XX/M/I3Pu/+OILV0yrVq3cb43XX3/dBgwY4PbjgQceyD3fC6qLZalcDxYsWGAXXXSRq+K2226z7bbL+9xWWNlc87j2NWzYMJdteH9///333OvbTTfdZNtvn6OdFPUaxf14xIgR1qJFC7vxxhvDVWT8542CgyWQp4puJS1cl3R9RSdS8lvM/3mxIVrTgyc82N5aHdwkz04g6CG4/Pr1gjxCOSv1OX2YTf50jm27Tz3r9fyBebbjy/Qv59sz3d+zStU2s6s/Oc42KffvD5NkhXLEoDvbvuoE+jP6HWRb7143X72PHfW2zZnwu7XrtYMddOVubvkXr/5sb934mduHyz44Mqbo+sRxQ2zW9wsDMa6+9Xy2c2653w/5xV79z8fu+/kDD7f6LfMKYJM+mmn9zh3hlhdFKGeDZBgizN/XeYAhDu56dFM76vZ9XN3hf/TnpBEzbfvAgeEF/yF3fGFj+k60rffY0s7om/+BaGKw/ovnBSJxoI9f/9VJtlnlTcNFxvyMKPZAl0FOWMMBgSMibCsW/WH3dRzoBPGw44J1Bt/yuY3t/5PVbFzFLnn3yHxOj3fv/tI+/d+EhIV7nDYjHv3WPnrie6sQODuuCJwTYecMdQ66fox99fpka9i6lp3zao5Qy3xvOEpwmGx/QEPr/kQHP7vAKf3f/8KRtn7dXxbvmPQFvH9/4HR65ger0bCKXfb+kQk5I/y2TBMRylnPH8uIycfcnd8xxHmEYL9m1To79p521uaIbdgsriUilHuHWo1AqL1kSLeYQvVTgZg949vfbLdjmtqRt+U/bmPtwBev/GRv3fS5la9Uzm78Or8QtOaPde4axblLv/bq0yVhB0es+piX7Dk/4cMZ9tIFHwVC+SZ2XeBsK7fZJnmqwNF36+4vu3mnBmJ+8/1znGp5Vop88c5MHHhXjjzWcQivQvvv2vc1+3PlWjt/4GHB9alm4BBL7hpBuakI5fGEbMotTCj/aeQs63vOcFZ1zqaoEwjn1/O9PrB1f663The1sQPO+1dwk1DusKXlX1kRyv/44w8n3tEoRMojjjgiX/t4UBo6dKgTPfi86aY596xvvvnG7r77brc+wu8OO+yQZ9tJkyY5sXvt2rUlJpQ///zz9sEHH7iHuJtvvtnq16+fZ59ifUHsR/RHfEWEjRoi9IUXXmiIw4WJtNFto98RehF+qI8HLbjFE0XD237yySdO6IH9k08+6QSh8HLaTNsRLB977LHcPvLrJMPFbxtrOmfOnNwH4XgOlljbxZvHQzkP5ziO/DEVXtcLYcxjeSoOpsL2PVXW4f32n/3DK33OQ3bUEPloI0IBgkEs4zi84IILnLMA5xJOpmStuIRy9gehFMG0Tp06TjTh0TXaZxLKk+25xLcrTCinJAR0nDTVqlWz//73v7nXIu4LiEIccwcccIBzwkVrpl85ZzlmcfBgM2bMsKuuuip41v3bcJLuvffeeTZDGOP699NPPyUslH/44YdO/N5kk03cPiJ6R81fw3EQ4ij0Vph4VVQRyperqQhsyARwUnINxrHE56hDq1+/fjZkSE5ATVgo59zmt+sxxxzj/qIM+vbta++++64LuOB3QSLGejhTEcF79+6dbxMc8vyWIxCD3z5cB8JOvni/ybiGTZ061Xbc8d9golSuB/GEbL/DhZX94osv2jvvvGMVK1a0xx9/3E39tkxZxjqYhHKHocj/JJQXGVnZ2gBhB4EHIeakRw7IjVJd+ftqe+f2L5xoxB6HI8r5TkT4o0e+7aK3iR4kMpwoZCJafwlE8oG9P7XFs1a4yF0ieMOWrFBOGc+e+n4QuTrP6jatFkQ97mv1d6jpxF2E0okjZtgrl4xyQvpJDwcRuwc2dtWyDAGdfa69TVVDpELQw3AGIKB+8+ZUx+Cs/gcb0ZLeiFJ98OCcKPWdDt06iNLdzUXgs93Uz+a6KHTEKiwsfhUmDLF+sgzHDZxiA6/91LV7vzNbuQhL/zYAEdNv3zLWvntnmu15YnM74sacSDT65NnAcYF1+c+utvtxTa1i1ZzooJWLVrsoyylj5jiuF72dN1LUbRTnnxe0EdZPfvQA23bvem5NxNj+F410fUU0/SXvdssjHC5f+Ifd3ylHRCey+rj72uUuR6gccM2nToCPF3FOJURNL5y+1Ob/vMQQFHnbAIfMEUGUOmJs1FhOtDUWfZvhy9cCZ0ogyHL84ijBYRLLOJYWz1puv01bal8GDphJgcCH7XrUdnbUHW1jbeLmIV4ScYtYeljv4G2H7i3irhtvQaJC+ecvTbK3bx3riuHc4zjwbwjQLwOC6G/2mzcBLhrc1TkW4tXJ/ESEcpxTRARzXuwSOEwOC+r1zhbnxHjsO/vo8e+cQ4RzrGHr2gVVmbusIKGccvudO9x+/ni2O2fPeumg3GM6t4AkPiR7znM83r7XK84xRNT7gZfu4pwi7ALXiJGBE4fjlL64JnAeVq5RodC9o8wHDx7kIrWJlj8+cGhyrcY4nofe/ZX9PDqn/eEI72SuEZSZilDONYl6uQZwDvlrEuUWdj3kbYu793vNOW1x5nW7eS+rtXVV5wCgf4nExxmA7X5cM+t2y78PuhLKHZa0/CsrQjmNITKV6OEKFSo4QTgc1cPD1HPPPecifqJRoUuWLHHR4IgiLVu2tDPOOMMJ0zygfPvtt4Y4yGeMaEWiFr0VR0Q50YhEJfIgggAdKzre1x+eepGZeUT8EmXrhR+EIiIq4UOUJIIuD5fe+L5s2TLnYNh999397JhTRBnWhw3R1zwMbb554W9wURjbIpIuXrzYOSQISPECO6I7kf4rVqywrl272oknnpin/mS55Ckk8qUwsbkoXCjaR1Tzmchxoq59H/CwS5Q3D6q77babXX755azmjP3gGMVJs8suu/jZBU4L2/dUWCPqsZ8HHXRQbpQ1OzNr1qzc/Y72EftPFCznUay3AXxjiKAjkg5Rk2jdwt5C8NvFmhanUE5EISIr7cGaNm2aG53s94U2K6Lc0yieaSJCOccl1xLeRImKXyNHjnTCFOchx+yxxx7rRCr2lrcjcL7xZkH0vuDfyOA6SVSpd6BynUR0Yxss+lZEvIhy9u3qq692IjyOT8S6unVzgrcQ3rnPfPzxx+66jKDGtdVbYeKVhHJPStNsIsCbJlwfMAIk+M3D7z9+r3EPe+mll3JxhIXyN954w/hjXX6P4JjygRM4yfgdwv2P+ze/pRKxsHONQA1+v3DN4f7B24zsJ9Hc0befEJs57/m9x2/Lffb5NyiMt/VwPlM2QQ5+WarXA+5r7Ev0Wkk7Cyv7s88+c44+1uX3AW9YEtjAbzr647XXXmORM/a5bdscnaOo1yjvlFdEuaeZwLSkI7xLur4EEJSJVUhX8vxpHzghhh0iDQtCDCIMvyc3r1nRiAyOCuWsS+oNUrcgLpKahHQDC4I0CYge2PZBxOTxD7TPFwWZilCOQEkEN2IWVqVWRasTiOazxi90kZTMa9GxoZ0ciP5eHGTe3Im/B2k1PnKpHBBwtmxe3UUcz/5hkRNgypXfxE57vrM12S3nhw7beEO0/XrQFPeVbWFBahBSFFSuWcFWBU4FWBVVKKfAZBhS16DAEYEohSF4E+mOc4M0FfQHjoSez3XOTc3CNsMf/sZFXLMN7UCsRFinrzEY9OpzoDXepY77nsg/hF+cLaR/wBC3KgfHAsIpqVVIX4IDJpbwPP7d6Tbg2k+c4E3EcIPA6bEkiFLHwYIhDPZ4plOefnQLgn/fvDXVCb60yxtOkGPvbefK8fOiU45XxEqMY7tei+qB2L4st06isI8OouP/CUTJszlpQO7vPNA5YvwCotaPuHFPa31YwVHZnzz/ow295ysnSl8VIzLYl1fQNFGhnDJ8dDyfq9arbHUD58+fq9bavEmLc4/3ns92cm8YsE5BlohQzvZhgZ5ryJbb13COi/mTF+deE3Co4aRI1AoSysP1cfyQ8qQgw3GG4yURS+acp1ycjqQxIlofw+nGMTI7uD7x1gF28FW72b6n5Y1ydQvi/Js6JnDIXTLSnas+rQuiMW8EYTUbb2E9nu7opr6IZK4RbJuKUP7jsF/d2xWUw7nFtfH04HqCQ6AwoZxtvODNZwwHG6lscIhwjcMJxr2o8a517KyXDs5ZKfjvt4uVDiZ3pX8+KPVKlEje72VJKEfw5ncbQgaGIEy6ElKm+HkIFET+8IAUNi9u+Hm1a9d2D0r8uEcEJvqHNAy8Roow7C3dQvnMmTNzI3F5cOPhqSBDbAynrvARvWxD2xFbiP6mn3h4pExETBwCYSPNBA+GpNZAMCrIwoI8HMuXz3HExduG16Ip1xupV0h3QZoYtt92222dOE7bEZO23nprt48+DQbbpcrF1x2dFiY2F4WLL7tPnz5GWhGMaOQGDRq4h0jawPFE+gdSAHGMefOiHCwRmwtjynaF7TvrJMOah3L//BPrQZoUEDxMY1WrVrUmQQqjuXPnugdv5vFGA9y8g4B53uhzIudw3ETTGPl1ijItTqGc/UAwwSGExYp+l1Du0BTrv0SEcnaAKE1EcRxvRJVzbcQQqiiDZRjXc45Z7gmckywnjQBpk8KpWTimeWti0aJFbjvuJ4jmiPJsw7HPPSFRoZxCpk+f7qLfFy5c6O4p1EuZ06ZNy70+E43q0xW4ioN/hYlXRRWhfLmaisCGTIDjnpRzCMoYv5f43TN79uw85yjLwkI5v4Uefvhh421CjGsGjlDuqfwOwrh3c/6Hf4e4BQX8Iy0J90euD0SOc53hGsNvUwwnOCJ1+Pcn1yHeVMKRjvGmCb8ZaAPXCYw3WhD0+R2KpXo9CP9GIf0MDjuceImUzW803qbxKeuI4mefEd4xv+98RkTnPo8V9RolodxhK9o/bh68+loaxsOFzzNZGvWXtTqJ7h1w1Sc2LYjUJiIUQzA/9JrdAwF6kY1+7gerF4heF7x5eL5dn/7VfBd5jmiDoIEhWJLGhRzRYbHab5yKUE4ZiLtDgmj3aWPnBkLKKl+sE2YQoMhNTvqDqK0OtiNKnnQZlOGtUZvaLirbR0P7+X5KVOcHD35tn784MbeN5EBu1q6Bdbt179z0IskI5dSRDEO2Q5ga9uA3TuhFHMdI64HYf0jQdz7y1C34598P70230YFoSzQ7aQy8kVud/NMNdoyfN9WvG53S7wjQROUjZGGIWo12rh3w2cdqNcnJExndju9zJixykdxzA2HdC4kIbKTOoS9jHT9sh+NiyJ1f2paB06Jus2ru+GxzxLYx+531w4bIPiKIcF48c3lwA8xZUi0Qk/cM8pZHcyuHt1s8e4XLgV9n22pBvdWsbuBsaXVQEydEh9eLfuacuq/TAJc6JZGc4NHt/feiCOW069vBQTsf/c5+D9rpzR23+zVwecT9WxV+WbxpokI528/4ZkHgEBjnhFF/TG60UZA7rkVNJxBHU2rEq9PPL0go9zny/bqFTXFm8OZCIpbMOe/L5Vr47l1f2awfFhrXHG84r0gZEk1x5ZcXNCXNEW884JDCAYVVqV3Rttunvh16bXCu//N2SLSMol4jUhHK2S/SEBHh7u2aT49zonkiQjnXkbH9J9nwR77NvT5zHdkucJgRQT48SK1E6iScsuQx9yah3JNIfVqWhHJagwBHtOqoUaOcQOxbiBhBdFC3bt1iipD8+EcAZluiDDEeSsi9TZQP0UfkS+Thx0eQsk66hfJwvnTKL8wQdogU98YDGik3aId/cGEZUbtt2rSx7t2750Yx+m2YEkVPJHe8/JrhdX2OyvC8gj4TUURkUdh++eUXx5HjhwcoDAGLtwDINe2jzP02qXLx5USnhYnNReESLpuoKx6Yw33AwzFOA3KZcjyGDaak+mjWrFkeR0x4nejnwvbdr19U1uRYJ9qd44G0E+E3M3yZo0ePducE7eOYw3hYJlouVtojv513suAIILVOrPEA/LqJTItbKPc5bukvzrOoA0NCeSK9lNo6iQrlCNocD+gE0Td/2APyA3OOIYD7YxYxjIjFWOck2yBwEfFJRChR3xiCOesjbL399tv50ix5pytOylg51bm/IFTxdo+/11Au5z6iUjjFAvOxVIWxnFL0XwQyjwDnPaIqY8V4QzDv1KmTe3PL57cOC+WsxzWAt5u4V3Mv9dcE9L7999/fjjzySHeu+zITnZKqj/PbO8bZjgANxG4cz7EcyPwG4hxnXBIiszEEaJxwvH129NFH59ku1esB7SXAwjsY2D9ypGOFlc06XLeIHCdq3/9+gznciOzndyRlh3PHSyiHXGKWdOoVDjxuVqVhRN/0DF6jlOUlQIQ00cVV61Z2ojNLX7t8tEvj0bJTI5daI+8W/35jW6KsEdgTSSnw75apfSJtCAImUbObB9HliHKJGNuQ57ta/aCtCaRAoEwET6KPqYPI6XBqgUTqLGydZBkiUBFpX3XLxNuCKEVf0wYG9ywsGrewfffLiQhHHMRZUpQBFRHtF0xdYlWCwUl5S6Aw41ku0b6OVxbpUOhP2k8u/UQsHfUmUk861yHqf1EwCGKFzTcN2lol7cdtrH3lWGbgRZwftZpUTciBEauc0p6X6jkPg9XBILpwj+W4Kmr7cD7wNs1Gm2xsDNyZqCVzjUi07Oh6XANWBM5XIsITvbaGy6CNXJ9XL18bRORXdW+6hJfrc/ERKGtCuW8pDz08cBAdhIDnowv98nhTtiPlAmIhkTE8NG2oRht4WGGASqKXfTRStD0w8hHARDNHRdzo+un8jvhEhCYiOf1UliwdXHigpA+IPiXSLdZDsm8zUW6FvUHg101mWhTWnAdEf0cdFtF62WeER46vVEXvaNn6LgLFQYA3bBCKOB8TjRZFfOc6Fd6Gt2JIv0KqKqJakzHuNTh3ufYlui/J1KNtRCDTCfh7EedRUX9LMG4LEdzcwzjH4/1WKgpDrhmUiWOtKOc21wOuC/z+LOz+W5T9ia5LcAj3bvZzyy23zBPlHl033ne25fcNvIhML+j3TbwyND8/gaSFcg44PLt0TEkaD0o8RHDQygLxNxCyli9YFXOAS0Qi8uOSCmP/c3ayzpfsLGQiIAIiIAIiIAIZSKCsCuUZiLrYmuQHXyKikZQgshwC4qIjQQSylwARkDhbY4luOJ3IW84bFUSeHn/88dkLSi0XAREQARFIG4GkhXL2ALGcVxMmT55c7II5Ajk5i8jXKJH83/5nALYJw2cag1+G0yIgoA8N0gd8FqQbIXf1BYMOt9rbVv13Q30SAREQAREQARHIGAISyjfsrkQMIhCEKEtyt/MKriwnn6a46EgQgewlQM5zBue99NJLcwfyhAbXzH79+rlxCNAJyGMvjSB7jxO1XAREQATSSSAloTydO6Kyik6ANBIjHvvWPgryNZPHghy6jXau41KM/DpuvktLQalFHYCv6HuiLURABERABERABEqTgITy0qSfnrrJ/82gdLFyUaenhg2zFHHZMPtNey0CqRIg9RD5i/nDGHSzefPmLk85OYhJWYCdcMIJbtwL90X/REAEREAERCBFAhLKUwRYFjafOGJmMPjcly6ncHh/tgjyRTNQ3I7BgIUyERABERABERCBzCUgoTxz+1YtEwEREIFsJsBgrn379rX58+fnwcAgyj169LC99torz3x9EQEREAEREIFUCEgoT4VeGdt25e+rbeb3C219MBAfgzHWbLKFbVJu4zK2l9odERABERABERCBdBOQUJ5uoipPBERABESgLBFYtmyZ8YYJY6SRZoWB69Ix4F9ZaqP2RQREQAREoPQJSCgv/T5Iag96b/9CUttpIxEQAREQARHIRAK3T+qRic1KuE0SyhNGpRVFQAREQAREQAREQAREQAREICYBCeUxsZT9mRLKy34faQ9FQAREQARKjoCE8l8d7MaNG5ccdNUkAiIgAiIgAiIgAiIgAiIgAhlEQEJ5BnWmmiICIiACIiACIpCdBBRRnp39rlaLgAiIgAiIgAiIgAiIgAikj4CE8vSxVEkiIAIiIAIiIAIiUCoEJJSXCnZVKgIiIAIiIAIiIAIiIAIikEEEJJRnUGeqKSIgAiIgAiIgAtlJQEJ5dva7Wi0CIiACIiACIiACIiACIpA+AhLK08dSJYmACIiACIiACIhAqRCQUF4q2FWpCIiACIiACIiACIiACIhABhGQUJ5BnammiIAIiIAIiIAIZCcBCeXZ2e9qtQiIgAiIgAiIgAiIgAiIQPoISChPH0uVJAIiIAIiIAIiIAKlQkBCealgV6UiIAIiIAIiIAIiIAIiIAIZREBCeQZ1ppoiAiIgAiIgAiKQnQQklGdnv6vVIiACIiACIiACIiACIiAC6SMgoTx9LFWSCIiACIiACIiACJQKAQnlpYJdlYqACIiACIiACIiACIiACGQQAQnlGdSZaooIiIAIiIAIiEB2EpBQnp39rlaLgAiIgAiIgAiIgAiIgAikj4CE8vSxVEkiIAIiIAIiIAIiUCoEJJSXCnZVKgIiIAIiIAIiIAIiIAIikEEEJJRnUGeqKSIgAiIgAiIgAtlJQEJ5dva7Wi0CIiACIiACIiACIiACIpA+AhLK08dSJYmACIiACIiACIhAqRCQUF4q2FWpCIiACIiACIiACIiACIhABhGQUJ5BnammiIAIiIAIiIAIZCcBCeXZ2e9qtQiIgAiIgAiIgAiIgAiIQPoISChPH0uVJAIiIAIiIAIiIAKlQkBCealgV6UiIAIiIAIiIAIiIAIiIAIZREBCeQZ1ppoiAiIgAiIgAiKQnQQklGdnv6vVIiACIiACIiACIiACIiAC6SOw0fTp0/9OX3EqSQREQAREQAREQAREQAREQAREQAREQAREQAREQAREQAQ2LAISyjes/tLeioAIiIAIiIAIiIAIiIAIiIAIiIAIiIAIiIAIiIAIpJmAUq+kGaiKEwEREAEREAEREIGSJqDUKyVNXPWJgAiIgAiIgAiIgAiIgAhkGgEJ5ZnWo2qPCIiACIiACIhA1hGQUJ51Xa4Gi4AIiIAIiIAIiIAIiIAIpJmAhPI0A1VxIiACIiACIiACIlDSBCSUlzRx1ScCIiACIiACIiACIiACIpBpBCSUZ1qPqj0iIAIiIAIiIAJZR0BCedZ1uRosAiIgAiIgAiIgAiIgAiKQZgISytMMVMWJgAiIgAiIgAiIQEkTkFBe0sRVnwiIgAiIgAiIgAiIgAiIQKYRkFCeaT2q9oiACIiACIiACGQdAQnlWdflarAIiIAIiIAIiIAIiIAIiECaCUgoTzNQFScCIiACIiACIiACJU1AQnlJE1d9IiACIiACIiACIiACIiACmUZAQnmm9ajaIwIiIAIiIAIikHUEJJRnXZerwSIgAiIgAiIgAiIgAiIgAmkmIKE8zUBVnAiIgAiIgAiIgAiUNAEJ5SVNXPWJgAiIgAiIgAiIgAiIgAhkGgEJ5ZnWo2qPCIiACIiACIhA1hGQUJ51Xa4Gi4AIiIAIiIAIiIAIiIAIpJmAhPI0A1VxIiACIiACIiACIlDSBCSUlzRx1ScCIiACIiACIiACIiACIpBpBCSUZ1qPqj0iIAIiIAIiIAJZR0BCedZ1uRosAiIgAiIgAiIgAiIgAiKQZgIpCeWzZ8+2YcOG2eTJk23t2rVp3rW8xW266abWtGlT69y5szVo0CDvQn0TAREQAREQAREQgSwmIKE8iztfTRcBERABERABERABERABEUgLgaSFckTyxx9/vNgF8mgrEczPO+88ieVRMPouAiIgAiIgAiKQtQQklGdt16vhIiACIiACIiACIiACIiACaSKQtFDep08fmzBhQpp2o2jFtGzZ0nr27Fm0jbS2CIiACIiACIiACGQoAQnlGdqxapYIiIAIiIAIiIAIiIAIiECJEUhaKO/du3eJR5N7KkSV33777f6rpiIgAiIgAiIgAiKQ1QQklGd196vxIiACIiACIiACIiACIiACaSCQtFB+5ZVX5qn+nnvuyfM93V9Kur5077/KEwEREAEREAEREIHiIiChvLjIqlwREAEREAEREAEREAEREIFsISChPFt6Wu0UAREQAREQARHIWAISyjO2a9UwERABERABERABERABERCBEiIgobyEQKsaERABERABERABESguAhLKi4usyhUBERABERABERABERABEcgWAhLKs6Wn1U4REAEREAEREIGMJSChPGO7Vg0TAREQAREQAREQAREQAREoIQISyksItKoRAREQAREQAREQgeIiIKG8uMiqXBEQAREQAREQAREQAREQgWwhIKE8W3q6hNr50RPf21/r/7KWHRtZvRY1SqjWolcz45sFNvnTOVZh8/LWtmfLohdQSltMGTPHJg6faYt+XWYVtihvHc5rbXW2q1ZKe5Md1f4+c7l989ZU19j9ztjRNq1QLjsarlaKgAhsUAQklG9Q3aWdFQEREAERSJHARx99ZIsWLbJtt93Wdt555xRL0+YiIAIiIAIikENAQrmOhJgEVi9fY8Me+sYqVClvnS5qYxttvFHM9aIzb9zpRVu3Zr0dfWdb2+XI7aKLy8z30c/9YO/dO86qblnJrhx5bJnZr4J25O1bx9rnL03Ks8qZ/Q6yJrvXzTNPX9JLYOqYufZ8rw9cob0/O8EqVd8svRWoNBEQARFIA4ENSSj/448/bOjQoa7Ve+yxh2211VZpIFB8RSxZssTGjh1rs2fPtoULF1rNmjWtQYMG1q5dO6tcuXKBFY8bN85+/vlnmzMncM5XqGD16tWz3XbbzRo1alTgdkVdOH36dPv+++/dPq5cudLq1q1rW2+9te2zzz628cYbxy3u77//tm+//damTZtmM2bMcO1p3LixtWrVyurXrx93OxakwiVa8OTJk238+PFudocOHaxatfQHAdDW+fPn2y+//GLr1q1z/Rfdj0S+w2rixIkG87/++svg1bRpU2vRokWBm6fCOl7BixcvtjFjxtisWbNs2bJlrt85tvbdd18rV65gx36yx0ysfRk2bJgtX74836KNNtrINt98c3fcczzVqBE7iIb9/+KLL9z2lSpVsoMOOihfWfFmwADB1FvXrl1tk0028V81TROBb775xp07FMcxxnUsUeMa+MMPP7jVq1evbgcccECimxa43o033mg//fSTHXjggdarV68C140ufPvtt23evHl2zDHHGPu0oRrnzuDBg901m3uSTAREQAREIHUCEspTZ5iRJRBB+8ZVn7i2nfPqIdawde2E2imhPDamP1estb//+tvKVdjEypUv+o/3yZ/MsT5nDHOFN2xdy3Y9uqltUbeSNdq5jlUMIstlOQRS5RyLo4TyWFQ0TwREoKwR2JCE8t9//93OO+88h/Diiy+2vffeu6zhzN2f999/31555RVD3I9alSpVrGfPnta2bdvoIluwYIE9+eSTNmHChHzLEK47derkti1IxM63YYwZq1evtv79+xtCJUJs1HBCXHDBBdakSZPoIvvzzz/t0UcftS+//DLfsk033dTOPPNM22+//fItY0ayXGIVBtvLL7/cRYay/I477rBtttkm1qpJzUNAfu6555wjwfdjy5Yt7YYbbihyeYMGDbLXXnstJmvE3e7du8cUaVNhHW8n3333XbcvHANR23LLLd051qxZs+giS+WYyVfYPzMuueQSJzrGW858RHOOpxNOOCGfMPnpp5/aI488krv5XXfdFfOYzV0h9IH+GDhwYO6cF154wTbbTEENuUDS9OGZZ56x4cOHu9KqVq1qjz32WKHOGF/1TTfdZJMm5QT7EP19++23+0UpTQsSyjnXcWSVL1/euJ6FjSj0888/38068cQTDefKhmpPPfWUcxRxzP/vf/8r0DG6obZR+y0CIiACJU1AQnlJE99A6ls8e4W9fPFI2yxITXLqkx0STjchoTx2B99zwBu2dO5K63L5rkb6jqLawN5jbNyAyS7dyrVjjrdNysWPDitq2Zm0fqqcY7GQUB6LiuaJgAiUNQISytPfI6NGjbInnnjCFcxr/UTrEU1OdPibb77popOJXL311lvzCLtr1qyx3r1728yZMw1BCRGG6G4ESqK3EbURcNIh0LB/7CeCO1GVRIJXrFjRiNBG1KXO2rVr2z333OPmhyndeeed9t133zkR6cgjjzREVUTlTz75xL7++mu3KgJ2NHI0WS7husOfn3/+efvgg5w3t5ifTqEcce7hhx82nDP0FY4DomERyosa1UrUJk4JjG133XVXVyaR/O+9954Tzw855BA79dRT3Trhf8myDpcR/jx69GgnVDJvzz33dBHkW2yxhTs2iZTlGCUq/7777nMR3eFtUzlmwuWEP3uhHAfHTjvtFF5kvOHA9YmoYgwHE8djOIo3KpR37tzZTj/99DzlxPqyfv16J3jydoM3CeWeRHqnYaGckhN1chLxzHXEW0kJ5QjhCOInnXSSHXHEEb56N8Wp+MADD7hrOE7bWI7EPBuU4S9E+vft29fatGljPXr0KMN7ql0TAREQgQ2HgITyDaevNog9lVAeu5tSFXCfPnmo/TpugbU5Yhs79h69VhebslmqnGOVK6E8FhXNEwERKGsEJJSnt0cQjBH/Vq1aZV26dLHTTjstTwXM/89//mOkfWjdurVdc801ucuJbiXKFcH63nvvtVq1auUu4wMiO1HqpMZ49tlnXUqWPCsk+AWBFlEZu/TSS51gGt50ypQpdv311zsBNyrKh8Ur9p02eENEevDBB10qjO23396IBvWWChdfRniKkH3zzTc7oR/RE0uXUE40/2233eacEjgBiJBv2LBhuPqEP7NvF154oRPccXzAM2xEdyNWkV7n8ccfN9KHeEuWtd8+OsURc9ZZZzknCFHsPYO3GsKGMM3xQF9169bNRXD75akcM76MWFMvlBeUAoPUOoiTRPrusMMO7tj0ZUWFcs4d3sgoLDKctyHuv/9+X4ybSijPgyNtX6JCebQP41VEf/hUW6xTFoTyePuq+SIgAiIgAiIAAQnlOg7SSkBCeWycqQq4j3QdbPN+Wmztz2plB162S+xKNFdCuY4BERCBrCUgoTy9Xf/VV1+5aFyikBGzEe6i5gVxInmffvrp3MU+epio47PPPjt3vv9A9Os555zjviLkbrfddn5RkaYIswi0bE85sYz55Abea6+9nPDv1+nTp4+Lgia/9t133+1n506J/vWpSRD7vcCcCpfcwv/5sHbtWrvqqqtc9PNhhx1m77zzjluSLqHcp3sg8puIVlJ/JGvkz0bk5XggIps+DxttQbxGBMapgnPFW7Ks/fbRKW8L4ADBEOVj5f32oiZRpldffXVuEakcM7mFxPiQiFDOZrw5wBsEGKlWeNsB80I5UeakqcERxblTWNS/P9d4S4Ac+5iEcoch7f/8McX4DIzXwPmEQ400P/GM84JrHc4b30cSyuPR0nwREAEREIGyQkBCeVnpiST2Y/7kJTbkjmDgm+B3f6/nD7RJI2fZ1wOm2JyJi2zdn+utUZs61rJzIxeFTPGLfl1mX70+2aYHkcnzJy8OBrKsbE12rWOdL9kl3wCFcyYscoNdst3JjxwQpGDJm9uN+bEsLJST13zUU+Nt9o+LbPlvf1j9ljWsWbsG1rZny3yDg5JW5Lt3frHqW21uR966T76i165eZ/3OHeHms7/k6Y7azO8W2pi+E2zW9wttxcI/rFqDzV2dB5zX2mo1yftAU9BgntQ16PrPXBmb16xoR962d57UM3+t/zvY12n25Ws/24IpS618pXJWr3l1x5rc4d5+Hj3bPnn+R/eVaHAGOa3ZuIpVq7+5m9fjmU6FplD5X6+cnKMzv/vN1qxa57alDGz3Y5tZq0OauM8vnPmhrV/3l3W8oI39uWqtfdZvos389jdrffg2dvj1e7p1+Df/58X2VXCMzP5hYfB5iVWsWt5qb1PV9cl2+9TPXc9/eP/+ccG6i1w5O3fd1uA29fO5NieYV7HaZtZgx5rW5T+7WvWAdSwjXeqP708PWE0OWC1x+1Z766q2dTAA6f7n7ORSycTa7o9la2zsyz+5bX+fucLlYa8XHD9N921gux/XLPhx/u9WyXCe/uV8+6TPj65ta1evty2D/muyW7BPZ7eycpvlzSGviPJ/WeuTCIhA2SWQaUI5qT+IFmXgRPJ9k/KE9CVHHXWUGxgw2hOkxGBdBjEkRQrpJ3788Uc3j8EESQnBK/hemItuH/1Omo033njDiUCkiYhlH3/8sRMqEU/79euXmxsWMRnBFBEacShqRCefcsopLtKbqPTdd989ukpC3xG4aeP+++8fdyA7onJHjhyZL4LXi8jRiONwxWeccYatWLHCLrroIjcoKMtS4RIum89E1RNdTxoUBuLz6RnSIZQTTX7LLbe4NB8I/YkODopTgX4nhc3RRx+du8s+DzaR6ZQby4hs5pgl/zzsvCXLmsh+xMnffvvNpVTwg95yPjCAIRZv8D6/vxx/4eM3lWPGtyfWNFGhnMFwyZmPhY99L5RznpPqhxz4hQmqcOHYhBO54TkHMQnlDkPa/3mhnGOOgWBJLXX44YfbySefHLcuf43kDYuDDz7YBgwYkK9fGYiV/q9Tp45zNkULw3HCOYyR3z7sWIzmKCeVFNd+jHMEoR4h37/Vw9szXK9JfeXfxuE8L2wgXldg8M/fZxiEmhRDnGcM7OvTCfn1mDJ/yJAh7h7EWyCci7yhQ5qraM50vx0D4nL9wRnGwMM4Jdg37nvkh+e+SN28ueGN6zvpsri3xXLMcr+BL+vh4OB88QMQk5KGt2Ci5tuZrvtptHx9zywCOIN5c4rfMmEnsW8ljnfOFQznePT4x8nJbwGuK6RLwvmLc57jM3y++/I0FYGSICChvCQoF1MdiK+k5MD2Onl7+/ylnEFSotV1u2Vvq9usuvU7Z7itWvJndLEhBl88pKtVCoRPb8mKg14o37FLY2MAyj9XrvVF5k63P6ChHf/Afla+YrncecMe/NpGBqJ63abV7KK38w+owiCNt+zW361/6lMdrXn7rXK35cNPo2bZi+eNMERsjBzeCMfu86YbO7EYgdVbPKF8/dq/AkF+uNv3ClXK2xl9u1i9FjX8Zm466Lox9tUbk93njTfZyA3SiSCM0e5j7t7XCeuI/+QWj2c3f39KoQN7Xr9D39w2RcsJ5zv33Fsfto398N703LbveFATO/Gh9m7TcQOn2Nu3fG4IwxiDiiLee2t3+o520BW7+q9uygCi9OPO3ba1JXNW2i9fzMuznC+bVd7ULnzrCOfkiC784IGvbdTT43Nnw8v3UeWaFYL89x1tq1Z5nR6rl6+xp08aGjhzcvJNhrehIJwtx9y1r7E9VlTO4YFq2T5cPufJKY8eYDUa5TgjWJ7sucC2MhEQAREoKQKZIpTzUI/gRc5nbzxUIXhgiByklYjmzfaRpQwWiBgXaxBNosIRChFk0mEMnIagh4BJLuhEjYfCK6+80rWFSPTKlSsnummR17viiiucoBVNiUF+YYQYBOqw6BKuACETYQVRn4jvRC0RLhyv1157rXMuIIIhXF122WWuinQI5QwGST74cM5wjiHqKSidB/sybtw4Fy1LO7yI5AfMIx84x18sY8BQ8s+Tzx4xwFuyrBENfDQ4ggGOnkSN6Hei4Ok3+q8oFu+YKaiMRIVyIsU55rBzzz3X2rfP+Y3qhXIi9YmWZx+wggb1fPXVV10efgQV8pnjkMAklDsMaf/nhXLeTkG85fygv3irgTRSsSwsZOOsQiyLOkC8w4x+9IJ4uCz/lgbzOK84v7yFy+e4QnTnXI1n3Fu4n3Cf8QJ/rLRV8bb39xkcaQiDpN7Com8VhccQYDn3LerEEMy5ttatW9d99/9wPODUwgEUNYRtrlsIjtF0S/48iHcfYtBV9scb41lwHcRwIuBsig6e7NtZkvdTv3+abngEePuMYzNWmjpawz3Vn9vR6/OHH37oBtvGgYOFj0++H3PMMe6PzzIRKEkCEspLknaa6woL5UTYHnB+a2vRoaFtXquiTRg2w0XkEsWLELhJIBZXqVPJ9jyxue10yNYuCv3HD34NItK/dELv3qe0sMOu2yN3D5MVB71gS0GNdq7jIpW32WNLW7HoDxeBPabvRFfHAefuZJ0u/veHTipCOdHvz5z8nq35Y53tetR21j6ICq7RaItg8MwV9sGD39h3b09z7T/75UNcBDQ7EEsoR8B95ZJR9uOwXwOhexM77bkDrXEQcR82xHz2tXKNCtb1pr2s2X4NnPD7w/u/2ju3jXVR36RGIUUKIvSalevc5o90G2zL5q+yDkEfwRqrVP1fx4SbEeOfc2wE941nur/nIrL37t7COgQR8timgaOB/cTC3Ik436FzY9tqp1pWpXZF1w/Txs6z53q879Ylop9c51s2r2Ezvl5gn/efZOOHTndR2qf3PchFe7sVg39eKOc7jhTYcowhtn8/5Bf7tM8E106izXEQhI2I+zdv+Mw5LRD1dzpsa6tcvYLRX4Nv/txFc/MGwQWDDjecEhiOiv+dPswJ8tXqVbZut+3j3nqgPt6YeDvYjn7eZq96dnqfA902ReGM0E/5FjDteFEbF53O2xJwGBg4QH6fsdyatq1vPZ/r7MrmX7LnQm4B+iACIiACJUAgU4Ty119/3UUdIlASPYggjgjBgGVvvfVWboT4f//73zwCs3+wBzXRfeSRZlsi+caMGeMi+xBKiYZkkLdUzQu78+bNK9KgnERHIoYQCU5KEC8Ipro/sbYPR+8y4GjTpv++9cagb+wLAifCVywjdzhRkUSCJjpIXCJcWOe6665zfUkfE9XO4JPpFMoZoI8BPL2AS8QldfAwXq9ePUMA4hiJpmMhIhzhCSEs3GYvvEcdDmFu/tiNprNJljXC2kMPPeQi7IhQj4pZ4brDnzlXfBT57bffnvB2lFHQMROuI/rZcy6ID9uQk94L2mGHiBfKcWYhwHoBNN6gnrDhPCaNEalu6tevb7QViwoxbqb+pUzAC+Vct2CPo4NrSLxBPcO5+TkeuQ4TNVqcQjnXeAYwxhDVuQYQMY64jHFvwFIVyikDB6d3GnDcwgXDScuxzbXm2GOPtY4dO7oxC4hwR8THQUk0Oo5Cb6zLvQBmCOI9e/Z040bQHsYVIMIbhwFWFKHcOyFwDlAmEb/cW4lYpz+5f8GE60zYYVvS91PPQdMNk0CyQjnOIZzBnI9t27Z1x3aTJk3c7w6cztyPuUdzrnBPlolASRKQUF6StNNcV1go73BBa5d2I1wFKSlIyeHt7JcPdqKp/87UDxIZjeROVhz0gm3NxlvYua8f6lJmhOt75/YvXFqQCluUtytHHJOb0iUVofyBLgODtDLLXXqQ4+5tF64u+JFigTD6gRM7dzp0azv+/v3c8qhQznoDrv7EiDYmGv2Uxzs4ETxc2C9Buo7nTs2JcDsrEN0btcnJq+jX8cJwxaBtlw8/Olf8ZXlx5yj33KtuWcnOG3CYe0vA7xdT2vb1m1OtRceGdspjHcKLjGj9O/d91Ynf7XrtYAdduVvuci+Uw+S0/x2YR0Rnpb7BWwo/BQI29V458tjc7ZbMWWH3dx7onAik0tnt2H8fzllp1eI/7b+HveUcKF1v3tv2OL6Z25ZULx8/84Njd8nQblYlcPqEbcY3wVsUQbQ5/XVyEPndslPeV9oL4kw77+nwhq0O0rqQLma/M3cMF+0cEeSCx2FyZr+DrEmQHgZL9lzIU7i+iIAIiEAxE8gEoRyxgOg2IupOPfVUFw0cxsZggF4Mi0YW+gd7Ivd69+7t0nmEtyWSHAGRV3qJgEzVSEGCeFG1alWXuzosMoTL5jVihI5169Y5gQSxCPHGi03hQR/D26Xjs28zD5gw8YbzAL4Y6U6i0fl+Pc+UqF9EsUQsES6kRnjppZfc6/8ISvRZOoVyHrp9ahuiVHkYx+grUsmwHEOs4jii/sIMYZ/BUcMR6tFtcOS8/PLLLs3Do48+6hYXJ2tfP9F6DNxJ2gYEMFL/IIYhZsbrW79tdBrvmImuF/2eiFCO6IfzBY6cL+R6L18+J1DCC+X0BceGj8hFgIw1qCcCCqluEBUpBwHeOwcklEd7Jz3fvVDuryf+LYt4g3qSjoE3g3y6ohdffNGNQ1CcQnm4pRz/XH95E4M3MsKWqlAe7z6DmE1qIXKyx6oXIZy3iXAW4gzyKV8+++wzw/mLca3Zcce8zyiI71yPOYcSFcpJQ8M2GGIk4xWEjWsh13+cTVFnqL/2x2unv06k634a3i993vAIJCuUMy4J1wV+BzFmRfh3FOcI5wrnTLxI9Q2PlPZ4QyIgoXxD6q3IvoaFckRKxMqwkXrkjn1edcIgoh/iX9S8YEwajpu+O8VFFbNOsuKgF2yPun0fC+fr9vUunbvS7us0wImRJzzY3lod3MQtSlYoXx7kIr9r35ycV5cM6Wa1t63qq8qdEvn8+pWjrWoQoXz5h0e7+b7dXuAdHKQkGdv/J5c7HbEdUT1qwx76xkY++b01338rlzIkuhyB9eZdXnL54Xs83SmP0F6QgBstJ9b3wgbz9NxJsxNOMePLIp3J33/9HeTf/jcK3S9j2v/CkS6SnrQm5E735oVycp1HnRCs450DvNHA8cNxhMH81f98bFvUreScBgjtUXvrps+DnPk/B9Ht29rRd7Z1ix8/+h2X076gQUtfuuAjm/DhDJdT/MwX8x7TBXH2xzROmt6fneDetIju0/OnBU6Vz+bafmfsaETBY347PrNdIm8CsK5MBERABEqSQKYI5QgMGAJZVMBESCcHK6JgVITwD/bkVPU5kMP8ye+K0EN0EgMaRnNkhtct7DPR4Ai8iC3xoil9GeSU9QKen0dkMBHe0fb55emY+oFGERJ55TmcboYoUB8tTRSjj4SM1uuZJiqUJ8KFCEYefnEcMNCoj5JOp1BODm8cLt7YfyKTEeioF0GbXMkcTz2DKEsfberXjzXF0TB16tQiC+XFxTq8j0TbkZ8/bOH83+H5BX0u6JgpaDuWeaGc/MnRND0I+HPnznVpinxaCdYPv8nghXLKwtlAP/FWANsySGqHDnmDPPyx6QfMHTt2rBtYku0llEMh/eaFcvJs81YAxxzHXqxBPXEQ4Vzjeo5gzZs8DOLKYK6ZIJQT/XrhhRfmg+yduQh+pNWKdY33AyyH0yl54bmggZm9sy5Rodw7JryjIt/OBjOGDh3qzhf2E8eGvy/686sk7qex9kvzNiwCyQrlDEbO7zF+p+Aoio4lMj1IP4azCye3cpVvWMdEJuythPINuBcLE8pp2hPHDrFZ4xcaKTsO6/1vahXfbNKv9L9opPt6yw/dcweXjCUOMkAkea6jRqoKLyp6wRbhc5cjt4uu6r77CPBwju1khXLScZB7nSju6744MWZ9sWaGhfJ9erS0oXd/5VYLRzdHt3u+V05kOiLu7v9EQEfXeeGsD+23qUvtiBv2sj1Pap67OJ6AmwhTCklUKC+Iu98ZBnpdOm9lkJpmpTFoJtHZX7zykxOIt927nvUKIse9eaF8lyBH+dFBXvCoxTpOWAeen/zvRzfAKYPBJmKkV7k1yEOPg+fsV/JH7PsyfE5yBGuE67DF48w6ODlwdmwdpALywnx4Wz5/9Nh37hgP53aP18botvouAiIgAqVJIBOE8ig/8hnzkMQfgiNGWgYi4I477jg3wJnfxj/YxxN1vYDB+gg+/hV8v32iUwRdHgqJxisszQRlsj6DqCGqIxKSygTxD/ECIZAcsek2ohMffvhhVyyC8d57752niuIQbxPhgjCNgzGej8QAAB9zSURBVIDoyEMPPdQNwOh3LJ1COYI99WDkM0aYj6ZY8Xl7OQ6IjCUvakFWloVy8uRzjnBMEj1PVDmCF2ltiICPtj1WOws7ZmJtE57nhfLwvFif4U06imhe/LBQ7oVuL/ThTMEx5Y3ziOOa44k3TBBeSa3jo/j99n59TdNDwAvlYaHbO2miufD9IJ4MpEzEP8cjwvGIESPKrFBOjmXE/KghepM3HyvsPjNo0CCXuokBiuO9hYOTjnsCjiLOG8yPB8FAn8cff7ybF/1XVKHcpy/y6a2i5fE97FRknA0/YHBh7UzX/TTWPmnehkcgWaEcxzkp14geRwjHecQbKwRKyESgtAlIKC/tHkih/pIWyqMDM/pdD4uKiQjlz576vstBjZCMoIwlK5QPf+RbGxGIm1s2r+4GlPT7VNjUC+XkbicSnGhrjLQkpCeJGmLybXu8bERmJ2LRgTHjCbiJMKW+dAjli2etcLnZvx40JXdAz2hbwrm/WZasUE5O9elBqpp4DppovXwPH89XjTrWRaPHWi+cbx3nCE4Sb/E4s5zBXieOmOlXLXDKAKOkDsIklBeISgtFQATKCIFMEspJo0AKD1KlIIbFstIQyhm4DcGEPM5FSdsR3n9ezUeY/fzzz93rxkRRJSvah8v1nxGJETmIyEWQJD9v1FjmB3gsKPIYcZK0MfHyRPtyE+Xio/pr167tBj8lisxbOoVyBrFkMEsM1kSjRc1HwzKfPogOrBdd3wsB0WjO8HrkXyYncIMGDVxaEJalm3W4vnifOQaIUCWqtyDhzW+fyDHj14039UI5EYFR5w9iKW80kBueCNVYIkhYKH/22WeNbYhCR0ThGhAe1NPnXd56661zU0uEB3GUUB6vl1Kb74VyBqP0b8kgfCOAcw1DEPeDevrzJewQ886psNDOHvn+TMdgnuEWFjX1SjhVSbic8ECdhQnIfjDg8PbxPoc5kAqL85VBabnexrKiCOU4ZsndT5m8YcV5F8tYr3v37k6oDN8LCmunhPJYNLN3nj/f46VIKWgwT44lcuT7twl5uwFHE44kcupz/slEoDQISCgvDeppqjMsLMZKvUI16YwoJ8fznyvX5tt7BpSsWDXnYScRofy5nh/YtM/nuohzH9mbrFD+3r3jnPjLwJXnvpYjbObbwRgzvFDuF5GCZem8VU50veDNw61a/c39Ijdds2qdS6vClxqNqliFYADIggznAZHn3uIJuIkwpYxUhfLFs1fYk8e963KCkw5lxy6NjTzyDNDJYK9jX/nZ9Um6hHJ/3IVTmHgW8aY/jZplfc8e7hbfMO4k26xybMbkin82EOKxqz4OBPVgkFpv8Tiz3Kd1qVyzglUNGBRk1beqYic9vL9bRUJ5QaS0TAREoKwQyBShnFQlRLYRYcSgiKQFqVmzphOViYwlonzp0qUlHlFOdDvpBmbMmOEiIhHMyQOdjCGWI+JQJoJ1NFVFMmWyDa8pkwOa8gsTt0lnQQqbWGktfP0+WjTqlPDLmSbKBTEdIYb1iXCMDsxFlDAPyxiR9ojNCKoM0lhUI2L9lltucZt50TVaBgP+kXYFi5W/1y0I/WPfcG7ES0XAqj4COpqzOV2sQ7tT6EefRgWGRMnGiyovyjFTUKVeKE/kLYtY5YSFcoRXL47wZgBCfqdOnYwBTRH2OHd4q+TMM890AyVSnnfC8FlCORTSb14oJ+qYazTG2ynnnHOOu+YQ5b/PPvu4txr8IMU4rPw5TA5i+jksEFNGWRHKyf/N2z5R420TnxKiMAHZXzNxzlWvXj1aVJ7vOOcuvfRS5whCKKd+n6Ymz4r/fCmKUJ7oW0PcZxHKOa9IJUNKGaywdkoo/6dTNHEEUhHKKYDzjrE1cHJzbOFgxngThes8g2/LRKCkCUgoL2niaayvpIXyRHY9EaH8wYPftIW/LLXwAKTJCuVfvPqzvXXjZ04sRTRN1MJCOWLuvqftYI90G2zLf/vDGraubWe+dFBuGhpf5h1tX7WVi1ZbvDzgfr1Y04IE3FjrR+elKpT/r9cwmzJmjhuMs8cznQ3nRtgGXTfGvnpjsqUr9Qr5yclT3vqwILf5fe3CVcX9vOjXZfZAl0Fu+UVvdzUGmI1lDLj6xlWfWJXaFe3q0cflWaUgzq9cOsrGD53u8s/7QV3zbBzni4TyOGA0WwREoEwRKCtCOQ/7pIDAEAtipbQgItvnEUco2HPPPd36bMtDESJmOH+rW/jPP3KCz58/v0SFcvYL4QABFtEHMTrVKHBEdyLnyb2MkJqq8Qo9D6sIiKRaQbSKJ45S1zXXXGO//PKLE627desWs3oEawYejSemF4ULAzQyiGdRrHnz5o51UbZhXfaZfcfCkchuxj//2HfEKaKVEbd4Q6Ag69evnw0ZMsQJ/OGBUcPb+IjZqJieDtbhehL5jLjs088weC2D7kWtqMdMdPvw9+ISynFO4KRA8CdimTccEF/9d++sklAe7o3i+RxLKKcmn3ucKFCuQX2CXNcM4hl1GJV1oTwRaoUJyLydQhqjeDnM49XBmxO8VXPiiSda165dY65WFKGcAkj9goOSyHIifWMZKZsQ57EHH3zQvfXB58LaKaEcSjJPIFWh3JfDFCfPDz/84PLnM8XCThw3Q/9EoAQISCgvAcjFVcWGKJQTQY3gTJ5scl6T+xob+dR4l36FvNPXjjkheLjLS43tbgnyV2OnPtXRmrffyn1m4EUGYNxo443sus9PMAZqjNqKRX/Y9K8WGGlWWnTISavihfKw2PrLF/NcWaRiaddrBzvoyt3yFOXTiTBYJmJ5UawgATeRclIRymkPub/X/LHORUnvcGDjfFWmWyj/8L/f2EdPfG/1W9aw8wcenq8+ZsyfvMR+m7bUpVhp1Ka2S4FzU+sXXY7yo+5oa7seFTvH/du3jrXPX5pkLTs1spMfzZv/vCDOPk1PrSZb2CVDj8x3jMXcyWCmhPJ4ZDRfBESgLBEoK0I5eV55aMJI3eEHawyzCkf8hoXMKVOmGGIAhigTS4wuaaEcIRWhjsECiWwnUplpPGN9Iqd55Z1o8fCAheFtiEgnl/Thhx9uJ598cnhRkT8TjUV55PtE8CUnt0+BEK+w+++/37788kvnpMBZETXKZOBUIg4Relu3bp1nlaJyGTZsmPG2QDzDOUL+dgyBvFKlSi5fbjJs2DeixXngjpfKYPbs2a6fqI/c1rVq1eJjXEP4QwDE+YNgG8sBRGQ6EdpRJ0+qrKM7BUsGJEX89pHz0XV8Ggn/FoYXlP16yRwzfttY0+ISyol0xenBWyQ40TgPY6UDklAeq1fSOy+eUM5bNlxzMK7nOGhIoxAd6DieUO5TFnG9522CqIOPN2QQe7GrrrrKjTvgvgT/fB7uWG8yIAAjBEcHfmZbjit/bQk7a3258aaFCcivv/66GyiYNEM4dKJtiVeuT3NFRD5OzlhWVKHcv41BNK53HEbL9YPgkoedt2/8/hbWTgnlUZLZ/Z2xIjgmCHqI9XsiXuoVfi9inC/R33uco9xXeNuMQaJxJslEoCQJSCgvSdpprqssC+UI2ac83sGl9Qg3e8wLE2zInV+6+Zd9cJRVb5CT4oToY6KQMYRVBNawTfpopvU7d4SbFRbKSQVzX6cBtmrxn9b5kp1t/3PyRwSRwxyRdPsDGlr3Jzq4MrxQTsoV0tZ4Q9xF5EWo7/5EIMjvnyPIs3zU0+ONnOLlym9iF73T1WoGKViixkCeFmxbe5u8+TDvP3Cg/T5juXW6eGc74Nz8+xgtJ/o9FaEcRgjlwXOjdTi/tXW8sE2e4pcv/MOePmmo2790pV6Z8e1v9tQJ77p6zup/sDXepU6eOvnyXI/3jXzjh1y1u7U9raVb7iPR4XdxwBgHSNjoZ8TwtavX2YGX7ZInvQ3rFcR5xjcL7KkTh7rijrl7X9u5a46TJlw+DhkGvyWy3puEck9CUxEQgbJMoKwI5WFRI5ZAAUNSIwwdOtSJjXzm9VqMnOTkVsYQfolIDBsR2DyQEQ0cTQdSXA/2PlqShzgiyX0agfB+RT97QaNdu3a50XrhdRApiZBCHC7oVfvwNvE+IwYjiOBkYDAsuIVzf8fbzg9+CPsnn3zSEErC9sEHH7hIUVJgECnt+8ivkwwXv22saTpzlFO+3z/yZSNYRYVtHyEeT5yL7iNvQSBgxXMczJo1yy6//HK3Gcci+bO9pcral+On3377rRMk+R4vv/rLL7/sxHTSO7BO2JI9ZsJlRD8Xl1BOPT41B3nOEU1whHCdIDWTNwnlnkTxTeMJ5dToI0o533DY4VDiTQbyDXuLJ5SH0+6EHad+u7DIVhShPJ5TlXKLSygPO4rjXdu5R06dOtV23HFH30RjQF7SisELTtE3QLj+4LDk3hEdJ+HVV181BhENp8Sh4A8//NCJ35TJNSCWM9Dfq3CEUr634rqf+vI1zSwC/trA7wg+x7vf0upwaizOZ367HnPMMe4vSqVv37727rvvuoCL8IDO0fX0XQSKg4CE8uKgWkJllmWhHAR7HN/MCcOVa+Tk8Jw4fKa9dvnHLrKZaGGihr2RdoOULAyqudOhW9vBQTQ3ubTXr/3LiBp/+eKRbjvWP/XJvAI20cVEGW9aoZyR87zVwU1csYip49/71d664TNbt2a9nfjf/V1ubhbGE8qp/4UzP7TJn85x+bsvePMIQ0zHKOPhwwcb+0pU8gkPtrd6LXIEfURoUpu8GqT3IIL7/EGH5xHSB177qY0bOMUJsD2f7ZzPgeAqKOBfKkI5xT50yJsuenvzmhVdVHmjnWs74XxmIGi/GaSuWTBliaudvOWXvX9k7p4kO5gnBdBnP7z/q1XfanPrHjhN6jar7spFmP/0fxNcH5AfHUcFkf3Ykrkr7aGDB7nBRokYP/bedla+Yjm3bNmCVdbvnBE2Z8Iia7BDTTuj30FWvlLOMrdC8K8wzm9c/Yl98+ZU2yzIMd/t5r3dsea3pV9fvniUzfvp9yBdzH65yySUe0KaioAIlGUCZUUohxEDvRE9TBQrgjB5xr0haD333HNOcIzm0SZtCK+LI4TxGj85iRGmERYQB4k25DPWsWNHF2Hqyy2OB3vEB0QI0jwgQMeKjvf1h6deZGYekZBEO/pIPYQOIpLhgxjC4G9hkZrv5A4nKpmBrAoyxB7Whw0iCelcGAQxEWNb0t/waj4OCSJCvcCO6I5gRQod0gCQDiBsyXIJlxH9XJhQXhQulM2xhFCGKEw0GsehF/sR5nAO4HCJRpyzHxyjMNlll13y7KbPU06/IQz6QSvpLx7iiSZv2rRpbsoTv3EqrBG7SCWDOObzduNgob9IncIxiUiNiOwNYZF9pX3RHPipHDO+/FjT4hTKEcdxUnBdwGIxllAeq1fSO8+LYVFBllpGjx7tHGq+xljXjXhCOcI6Uaj0LylLiPTmHCNPMakXSAnCeYwVRSjnHB85cqQTpEmvFBbvOA+KI6KcfcRB8PHHH7v7Bm9BECXujbbSHqLwuSb5ZZyrfOe6xWCpnN9e2OaahLMPZxyWqFCOU4+3XKiL+yjs/KDFsOV+yn5y/8EJTL96K477qS9b08wjEB5MmQAJfvPw+4/fa9zDSL3mLSyUv/HGG8Yf6/J7BIeNv09z3PI7hPtfvEFCfZmaikBxEJBQXhxUS6jMsiyUN9q5jhHBS2R2nabVbdXvqw2BFKvRsIqd3reLVauXN3ppwDWf2teDprh1EFARVonQRqBmAEbK4DdyVChHmEaUnfDhDLctwmzNRlu4+kk3gnW8oI3Lie6+BP/iCeUsXxnU82i3tw1hlkhoBFn2B5v53W/20vkfubYwr9bWVd3AkEQh/7FsjWvvIdfsYfuc2sKt7//9OOxX63/hSPcVsZr2nN7nQPNOBL9evGmqQjnC/wtnDHP8qKNKrYrO8UC0Oe2gTxZOX+Y+3/TtKS5NDeulIpQjeuN0QISnjjrbVbMKVcrbr18vcA4RRO7jH2hv24ei9qnzu3em2aDrPnNR44jk9XesaetWr7e5E393aVno33NePcTgGLXCONO3DBhKf2Ecg+zXguA4WzJnhZvX6pAmduw97XJz1Esod1j0TwREoIwTKEtCOQ/7POgjIGKIHqQrIbe4n8eDO+JiNCWEj47zuGvXru0elBA2EIGJjiMNw/bbb++EYb9euh/sZ86caX5AOh7cEMsLMgZ7w0HgDTGE19ox2o4IgdhDP/HwSJlE8OEQCJvPCx4VcMPr+M9hQR6O5cvnTz/n12XKa9GU643UK4hXpIlhewbZQxyn7YgsREWzj16gZbtUufi6o9PChPKicPFlkysYp4RvH6IykZkIzBhpamifd2Iwz6dJgSWpCMJM2UeOWcrgOCSimeXTpk1zdRCdznGPkBu1ZFiHU1pEI+6ISEXcom0cS+wL9XOOsZ8YogNCWbh9qR4z0Xb578UplFMHggkOIQxnWvv27d1n/09CuSdRfNOChHKEXvqF6wfHGxHMYecNexVPKGcZ5+moUaP46ARtxGLSI1Eu0encNxDSiyKUMzAgAjNGGfwRQc31rDiFcvaVNx44RzEEbwYnpj1cOzDGkUAY5DrijWvEww8/7NoMQ+6ROMVIH8M5zh+DIScqlFMuzjsGXvXXrIYNGzphnGuWvw8x5gL307Cl+34aLlufM48A5xMp53AEYfxe4ncPxzznLecev9uwsFDOMcgxz9uEGM567p/cwxDIMa4jt912W57fIW6B/olAMRNIWijnosrNqzSMGwWv3ma7lWWhHCGT/NOkMVk6b5XrKlKWbLtPPTvmzn2NXORRWxuIoR88+LV9/uJEF5XNcvKKN2vXwLrdurfd13GgE0+jQrkvZ+zLP9noZ3+wxbNzBM9Nym1s9XeoYW177GCIn2ErSChnvelfzrfner7v9qP9Wa1cmg+//aolf9qQO76wSR/NstXL17jZRLM3aFXT9jpx+3x1sQLR7QjlP4+e7Yuxaz49LqbYm7tC6EOqQjlFUfeQO750A6ny3TsxyLe+eOZye+2K0cx2KU8Qj7FUhHK2p0/fu/cr+/7dX1x6HOZtVnlTI6K9y+W7Wr3t86bYYTmGg+Stmz6zmd8vdPnsmYfY3rJzY+sSpFypESPtDeskwhnHyqinvrcvXvnZOUN82ThmWnRsaB3Oa50n5YuEcgjJREAEyjqBsiSUw4rIafK1In74aEDmE71GdBADSIZFSJZhCLSIeWxLnlsMMQFRk+g8oo9GjBjhREGEG2/pfrAP50v3dRQ0rV69uhN7/Do8HJJyg3Z4YZZl5A5v06aNde/ePTe6z2/DlCh6xCZE+nAkfngd/3nw4MHWv39//7XQaawB5hjQE44cPzzsYjgkqLtXr165Uea+8FS5+HKi08KE8qJwCZdN+3iDgalvHw/thx12mPsLi8hsB1NSfTRr1iyPI8aXiQhGJCaRrohYGMcxaW/OOeecfOKg345pUVkjipHOheOB6Pjo8YD4RYoVBMHwMxmOqaOPPtoNFBurfakeM+E2+c/FLZT79BtcPxBVo9cOCeW+J4pvWpBQTq0+TUI0jYffo4KEchw+nHekIPHnKddKymIwYd4o4D5SFKGc9RHKydfv7amnnnKiHXUUV0Q5dVE+4wgwngBv7WBEtOMA2G233dz5GT03WYfULVxfvMDIOjgsubaw74jvBx98sPXo0YPVnXnncqxIf1bgPtqnTx/3FpO/pzKfaxwpzMIpYJiPpft+mlOq/mcyARw6HLvh8w3BvFOnTu6YZzwBLCyU853fSgMGDHCD4PI7gO8Yet/+++9vRx55ZL5URG4F/ROBYiaQtFDOBZfBmErDiL7p2bNnaVStOpMgsHLRals6f5XVbVotN1K5oGJIt0J0M0IuEdsIpEWx1UFk96JA+K2zbVWXjqUo2xZ1XaKQVy9f66KSE9lPoqxXBJH15GZPNJq8qPtU2PpE9i8N9oP0MUR4l5QtC46BlYtXB8dB9YT7FFEbh0tw1wxSuFTJl2ol3r4nyhmnx+JZK6x2cKz4FC/xytR8ERABESjLBMqaUO5Z8dCDUEB0EJF1RF4nYmxHygXEQqLxeGjaUI02EGnFAJVEyIejCMNtghGR04gjRDOHU7KE1yuOz7yKz6v9iOT+lf/iqCeZMtPBBSGZ9uHQKOwYJMqtsDcIOD6J3oYbkZ/htA6FtbEorKkHEdGnxYlVtj9XcE6RDqYkj5tY+6N5IpAsAc6NuXPnumsgA/zFu1YWpXwcSkSzcu0Nvx1TlDJSWZfzknsZ97GCzuNwHQjaXF+4tvi3rojY516KSI5YnoyxH+wP1/jSYJHMPmubDYsA90/OYY6vov6WwPmMk4i3o4hIT8f5v2HR096WJQJJC+UcxOTgCkcwlETDeFDiIYKbjUwEREAEREAEREAERMBcRDAcwgPcicuGReCdd96xF1980UX63XLLLRvWzhfj3opLMcJV0SIgAmWCACnLEMW9MB7eKRytvLWB8VZ/q1atwov1WQREQAREIM0EkhbK2Q/Ecl4pmjx5crEL5gjk5Cxi4CeJ5Gk+ClScCIiACIiACIjABk2grEaUb9BQS3DneVWfQBDSBZAHm0hCWU4KA3HRkSACIpDJBIjCJTUFbxORdisciUsEOGMnTJo0yYiyZyyMDfkNq0zuR7VNBEQgcwikJJRnDga1RAREQAREQAREQAQ2XAISyjfcvvN7Tv5vUgREc1H75dk6FZds7Xm1WwSygwBC+aOPPmrk4kcEZ2BlBh8mynz8+PEuXQrpnW644YZ8A29mByG1UgREQARKloCE8pLlrdpEQAREQAREQAREIO0EJJSnHakKFAEREAEREIESIcBYAwMHDnQDmjJocNgQzhnMukmTJuHZ+iwCIiACIlBMBCSUFxNYFSsCIiACIiACIiACJUVAQnlJkVY9IiACIiACIlB8BBYsWGBTp051gwqTcpZULKRlkYmACIiACJQMAQnlJcM57bX03v6FtJepAkVABBIjcPukHomtqLVEQAREoIQISCgvIdCqRgREQAREQAREQAREQAREIGMJSCjfQLtWQvkG2nHa7YwgIKE8I7pRjRCBjCIgoTyjulONEQEREAEREAEREAEREAERKAUCEspLAbqqFAEREAEREAEREIF0EpBQnk6aKksEREAEREAEREAEREAERCAbCUgoz8ZeV5tFQAREQAREQAQyioCE8ozqTjVGBERABERABERABERABESgFAhIKC8F6KpSBERABERABERABNJJQEJ5OmmqLBEQAREQAREQAREQAREQgWwkIKE8G3tdbRYBERABERABEcgoAhLKM6o71RgREAEREAEREAEREAEREIFSICChvBSgq0oREAEREAEREAERSCcBCeXppKmyREAEREAEREAEREAEREAEspGAhPJs7HW1WQREQAREQAREIKMISCjPqO5UY0RABERABERABERABERABEqBgITyUoCuKkVABERABERABEQgnQQklKeTpsoSAREQAREQAREQAREQARHIRgISyrOx19VmERABERABERCBjCIgoTyjulONEQEREAEREAEREAEREAERKAUCEspLAbqqFAEREAEREAEREIF0EpBQnk6aKksEREAEREAEREAEREAERCAbCUgoz8ZeV5tFQAREQAREQAQyioCE8ozqTjVGBERABERABERABERABESgFAhIKC8F6KpSBERABERABERABNJJQEJ5OmmqLBEQAREQAREQAREQAREQgWwkIKE8G3tdbRYBERABERABEcgoAhLKM6o71RgREAEREAEREAEREAEREIFSICChvBSgq0oREAEREAEREAERSCcBCeXppKmyREAEREAEREAEREAEREAEspGAhPJs7HW1WQREQAREQAREIKMISCjPqO5UY0RABERABERABERABERABEqBgITyUoCuKkVABERABERABEQgnQQklKeTpsoSAREQAREQAREQAREQARHIRgIbTZ8+/e9sbLjaLAIiIAIiIAIiIAIiIAIiIAIiIAIiIAIiIAIiIAIiIAIQkFCu40AEREAEREAEREAEREAEREAEREAEREAEREAEREAERCCrCSj1SlZ3vxovAiIgAiIgAiKQCQSUeiUTelFtEAEREAEREAEREAEREAERKE0CEspLk77qFgEREAEREAEREIE0EJBQngaIKkIEREAEREAEREAEREAERCCrCUgoz+ruV+NFQAREQAREQAQygYCE8kzoRbVBBERABERABERABERABESgNAlIKC9N+qpbBERABERABERABNJAQEJ5GiCqCBEQAREQAREQAREQAREQgawmIKE8q7tfjRcBERABERABEcgEAhLKM6EX1QYREAEREAEREAEREAEREIHSJCChvDTpq24REAEREAEREAERSAMBCeVpgKgiREAEREAEREAEREAEREAEspqAhPKs7n41XgREQAREQAREIBMISCjPhF5UG0RABERABERABERABERABEqTgITy0qSvukVABERABERABEQgDQQklKcBoooQAREQAREQAREQAREQARHIagISyrO6+9V4ERABERABERCBTCAgoTwTelFtEAEREAEREAEREAEREAERKE0CEspLk77qFgEREAEREAEREIE0EJBQngaIKkIEREAEREAEREAEREAERCCrCUgoz+ruV+NFQAREQAREQAQygYCE8kzoRbVBBERABERABERABERABESgNAlIKC9N+qpbBERABERABERABNJAQEJ5GiCqCBEQAREQAREQAREQAREQgawm8H9D7O0rJn4VZQAAAABJRU5ErkJggg==;" vertex="1" parent="1">
          <mxGeometry x="3521" y="538" width="567" height="82.64" as="geometry" />
        </mxCell>
        <mxCell id="WiFk0VLU-a0-PrsS2nk8-24" value="" style="shape=mxgraph.mockup.markup.redX;fillColor=#ff0000;html=1;shadow=0;whiteSpace=wrap;strokeColor=none;" vertex="1" parent="1">
          <mxGeometry x="3523" y="567" width="16" height="17" as="geometry" />
        </mxCell>
        <mxCell id="WiFk0VLU-a0-PrsS2nk8-25" value="" style="sketch=0;html=1;aspect=fixed;strokeColor=none;shadow=0;align=center;fillColor=#2D9C5E;verticalAlign=top;labelPosition=center;verticalLabelPosition=bottom;shape=mxgraph.gcp2.check" vertex="1" parent="1">
          <mxGeometry x="3521" y="590" width="24" height="19.2" as="geometry" />
        </mxCell>
      </root>
    </mxGraphModel>
  </diagram>
</mxfile>
